<svg width="167" height="64" viewBox="0 0 167 64" fill="none" xmlns="http://www.w3.org/2000/svg">
<path d="M0.239502 45.9298C0.427662 46.3061 0.83566 46.6824 1.30606 46.8389C1.5259 46.9022 2.0587 47.0894 2.4667 47.2469C2.8747 47.4034 3.21934 47.4974 3.43918 47.4667C3.62734 47.4667 3.72142 47.435 3.68974 47.3102C3.65806 47.2162 3.75214 47.1845 4.0027 47.1845C4.19086 47.1845 4.41069 47.1221 4.44141 47.0587C4.53549 46.9646 4.50381 46.5883 4.34733 46.4318C4.25325 46.3378 4.31565 46.0872 4.50381 45.6792C4.66029 45.3346 4.78606 45.0206 4.78606 45.0206C4.81678 44.989 5.13069 45.2712 5.47629 45.6475C7.01325 47.3093 9.49102 47.9688 11.7173 48.0312C12.3758 48.0312 13.0661 47.9054 14.3198 47.6242C15.8568 47.2795 15.8251 47.4677 18.0206 46.0248C20.2478 44.5512 22.0977 41.7912 22.6939 39.2194C23.1019 37.4626 22.2552 35.2363 20.7489 34.1074L20.2478 33.731L21.2203 32.915C22.2869 32.0366 23.5406 30.7195 24.1061 29.9352C24.5765 29.3083 27.4929 25.1371 27.9633 23.8517C28.3713 22.7227 28.2456 21.155 27.5246 19.932C26.9294 18.9278 25.4232 17.58 24.4517 17.4859C24.2318 17.4542 24.0129 17.4542 23.7931 17.4542C21.1905 17.4542 19.1832 19.211 17.9601 20.4024C17.9601 20.4024 16.5489 21.7512 15.2001 23.9774L15.2625 22.6286C15.3249 21.06 15.2309 20.653 14.5723 19.7122C13.3493 17.9554 10.7774 17.1403 8.70766 17.1403C6.7627 17.1403 5.06925 18.1435 3.62637 19.9627C2.24685 21.6869 2.02701 22.3147 1.93293 24.133C1.83885 25.764 1.93294 26.2344 2.46574 26.7355C2.81038 27.0494 2.87374 27.0802 3.34414 27.0802C3.62638 27.0802 3.84525 27.0178 3.87693 26.9544C3.90861 26.892 3.97101 26.892 4.03341 26.9237C4.09581 26.9544 4.1275 26.9544 4.0651 26.8603C3.87694 26.5781 4.56717 24.54 5.16237 23.5051C5.97837 22.0939 8.67502 19.8043 10.4625 19.836C10.7131 19.836 10.6824 19.9925 10.619 20.4312C10.5873 20.7451 10.4625 21.3096 10.3685 21.6225C9.92974 23.0961 9.1771 24.8846 8.42446 26.2958C8.20462 26.7038 8.01646 27.0801 8.01646 27.1425C8.01646 27.2049 7.85998 27.613 6.98158 29.1806C6.73102 29.6194 6.54285 30.0898 6.54285 30.1838C6.54285 30.2779 6.47949 30.372 6.44877 30.372C6.38637 30.372 6.2923 30.4978 6.19822 30.6859C6.10414 30.8424 5.82189 31.3762 5.57037 31.8773C4.19085 34.668 3.68878 35.2018 3.56302 35.5147C3.49966 35.7029 3.06094 36.5189 2.62222 37.3022C2.1835 38.1182 1.8379 38.8392 1.80718 38.9016C1.80718 38.9333 1.7755 39.0581 1.7131 39.1522C1.52494 39.4344 0.866376 40.9714 0.521736 41.9122C-0.042744 43.4798 -0.168498 45.1109 0.239502 45.9259V45.9298ZM7.26477 40.787C7.26477 40.1909 7.29646 40.1285 7.82926 39.3758C8.14221 38.9371 8.83246 37.9339 9.36622 37.1179C10.1505 35.9266 10.3694 35.6443 10.4952 35.7067C11.4993 36.2088 12.6907 36.5227 13.8197 36.5534C13.9454 36.5534 14.0702 36.5534 14.1643 36.5534C15.1368 36.5534 15.6379 36.4277 17.1125 35.8008C17.4888 35.6443 17.8334 35.5185 17.8651 35.5185C17.9592 35.5185 17.7393 36.8981 17.5512 37.5576C16.7985 40.2235 15.3873 42.2299 13.4424 43.861C12.4392 44.7077 12.3451 44.771 11.2785 45.1157C10.4318 45.3979 9.86733 45.492 9.45933 45.492C8.83245 45.492 8.45614 45.1474 8.11054 44.677C7.64014 44.0184 7.23213 42.0744 7.26381 40.788L7.26477 40.787ZM12.251 32.3198C12.3451 32.1 12.3768 31.9118 12.3451 31.9118C12.3451 31.8802 12.3768 31.7861 12.4709 31.692C12.5649 31.5979 12.6907 31.3157 12.7848 31.0958C12.8789 30.876 13.067 30.4056 13.2869 30.0293C13.5067 29.6846 13.6632 29.339 13.6632 29.339C13.6632 29.339 13.6949 29.2133 13.7256 29.0885C13.7573 28.9627 13.8197 28.7746 13.8513 28.6498C13.8513 28.5557 13.9771 28.2734 14.0395 28.0545C14.1019 27.804 14.1653 27.6158 14.1653 27.5842C14.1653 27.5525 14.1969 27.5218 14.291 27.4584C14.3534 27.4267 14.4168 27.3326 14.4168 27.2385C14.4485 27.1445 14.5109 27.0504 14.6049 27.0504C14.6673 27.0504 14.7297 26.987 14.7297 26.9246C14.699 26.8613 14.8555 26.7048 14.9803 26.5166C15.0437 26.4226 15.7022 25.4501 16.2657 24.6034C16.9877 23.7566 17.7403 22.9416 17.8027 22.8792C17.8968 22.7851 18.0225 22.7218 18.0225 22.6594C18.0225 22.596 18.1166 22.5029 18.2424 22.4712C18.3365 22.4395 18.4305 22.3771 18.3989 22.3454C18.3672 22.3137 18.4613 22.189 18.6187 22.0632C18.7752 21.9374 18.8693 21.9067 18.8069 21.9691C18.7128 22.0632 18.7752 22.0632 18.8385 22.0315C18.9009 21.9998 18.9643 21.9058 18.9643 21.8434C18.9643 21.781 19.0584 21.7493 19.1525 21.7493C19.2782 21.7493 19.3406 21.6869 19.3406 21.5928C19.3406 21.467 19.3723 21.4354 19.4664 21.467C19.5921 21.4987 19.9685 21.2165 19.8744 21.1224C19.8427 21.0907 19.8744 21.059 19.9685 21.059C20.0625 21.059 20.1566 21.0283 20.1566 20.9966C20.1566 20.965 20.3131 20.8709 20.5013 20.8085C20.6894 20.7461 20.8776 20.6203 20.9717 20.5579C21.2539 20.3698 22.6968 19.6171 23.9515 19.523C24.2961 19.4914 24.2961 19.7429 23.9198 20.652C23.5435 21.5611 19.7169 27.2693 18.8702 28.116C18.7137 28.2725 18.3374 28.7112 18.0552 29.0251C16.7381 30.4987 15.0129 32.1614 14.7307 32.2238C13.7582 32.4437 13.0065 32.5685 12.6609 32.6942C12.4411 32.7566 12.2529 32.8507 12.2529 32.8507C12.1272 32.8507 12.0965 32.6626 12.2529 32.3179L12.251 32.3198ZM3.31341 38.7173C3.46989 38.435 3.78382 37.9022 4.00366 37.4942C4.2235 37.0872 4.37998 36.6782 4.37998 36.5851C4.37998 36.4594 4.37998 36.4277 4.47406 36.4594C4.56814 36.491 4.63054 36.4594 4.63054 36.2712C4.63054 36.1147 4.63054 35.9573 4.63054 35.8949C4.63054 35.8325 4.66221 35.8325 4.69293 35.8632C4.75629 35.9256 5.72781 34.3262 6.07341 33.6053C6.16749 33.4171 6.29326 33.1973 6.35566 33.1349C6.44974 33.0408 6.5131 32.9467 6.5131 32.915C6.5131 32.8834 6.73197 32.508 6.95181 32.0683C7.17165 31.6296 7.42222 31.2216 7.42222 31.1899C7.42222 31.1899 7.57869 30.876 7.76685 30.5314C8.14317 29.8411 9.3979 27.2702 9.9307 26.0462C10.1505 25.5442 10.2129 25.1995 10.1505 25.2312C10.1505 25.2312 10.0881 25.2629 10.0248 25.357C9.93069 25.4827 9.89902 25.451 9.9307 25.3253C9.96238 25.2629 9.9931 25.1371 10.0565 25.043C10.1189 24.9806 10.1505 24.949 10.1505 25.043C10.1505 25.1054 10.1822 25.1688 10.2446 25.1688C10.2763 25.1688 10.4952 24.6984 10.715 24.1339C10.9973 23.413 11.1537 23.0366 11.2171 23.0366C11.2488 23.0366 11.1547 23.4446 10.8725 24.229C10.7784 24.5112 10.5902 25.0133 10.4961 25.3262C10.4021 25.6402 10.2456 26.0482 10.1515 26.2363C10.0574 26.4245 10.0257 26.581 10.0891 26.581C10.1515 26.581 10.1515 26.6433 10.1208 26.7374C10.0891 26.8008 10.0267 26.8315 9.99502 26.8315C9.93262 26.7998 9.86926 26.8315 9.83854 26.8939C9.80686 26.988 9.83854 27.0504 9.93262 27.0821C10.0891 27.1454 10.0891 27.1454 9.96429 27.1454C9.77613 27.1454 9.52558 27.5218 9.52558 27.804C9.52558 27.8981 9.49486 27.9922 9.4315 27.9922C9.3691 27.9922 9.24333 28.0862 8.67885 29.435C8.33421 30.2818 7.86285 31.1918 7.39341 31.9752C7.29933 32.1317 7.23694 32.2574 7.26766 32.2574C7.33006 32.2574 4.41358 37.3061 4.09966 37.6834C3.9739 37.8398 3.87981 37.9973 3.87981 38.028C3.87981 38.0597 3.81742 38.2162 3.69166 38.4043C3.5659 38.5608 3.40941 38.8747 3.31533 39.0322C3.22125 39.1886 3.0331 39.5966 2.87662 39.8789C2.4379 40.7573 2.37454 40.883 2.37454 40.8197C2.37454 40.6949 3.03309 39.2203 3.31533 38.7182L3.31341 38.7173ZM19.8408 33.5112C19.8725 33.4795 20.3429 32.9774 20.9697 32.413C21.5659 31.8485 22.3809 31.0651 22.7889 30.6254C23.1969 30.2174 23.5416 29.8728 23.5733 29.8728C23.6673 29.8728 23.4792 30.0917 23.0088 30.5938C22.7582 30.8443 22.5701 31.0642 22.6017 31.0949C22.6334 31.1266 22.4136 31.3771 22.0997 31.6594C21.7867 31.9416 21.1905 32.4754 20.7825 32.8507C20.2497 33.3528 19.9675 33.5726 19.8734 33.5726C19.8417 33.5726 19.8417 33.541 19.8417 33.5102L19.8408 33.5112ZM1.18029 44.3304C1.21197 43.452 1.43086 42.5122 1.87054 41.7902C2.02702 41.5397 2.08942 41.4456 2.0587 41.5704C2.02702 41.6962 1.90221 42.0725 1.83885 42.4171C1.77645 42.7618 1.61902 43.3896 1.49422 43.8283C1.36846 44.267 1.24366 44.7374 1.21198 44.8949C1.1803 45.0206 1.18029 44.7691 1.18029 44.3304ZM19.2446 44.3304C19.5893 43.9541 20.123 43.2331 20.4677 42.7627C20.8123 42.2923 21.1262 41.916 21.1579 41.9784C21.1896 42.0408 21.1262 42.1666 21.0014 42.2923C20.8757 42.4181 20.8133 42.5429 20.8449 42.5745C20.8766 42.6062 20.8133 42.6686 20.7201 42.731C20.5944 42.7934 20.5627 42.8875 20.5627 42.9509C20.5627 43.1074 18.9326 45.0523 18.7445 45.0523C18.6821 45.0523 18.8385 44.7701 19.2456 44.3314L19.2446 44.3304ZM16.6728 31.9425C16.8926 31.7544 17.0491 31.5662 16.9867 31.5355C16.955 31.5355 16.955 31.5038 17.0491 31.5355C17.1115 31.5662 17.3313 31.3781 17.5819 31.1275C17.8017 30.9086 18.0523 30.6571 18.1464 30.563C18.2405 30.469 18.4286 30.2808 18.5851 30.1243C18.7733 29.9362 18.8357 29.8738 18.8673 29.8738C18.9307 29.8738 18.8366 30.0302 18.6168 30.2501C18.4603 30.4066 18.3345 30.5947 18.3345 30.6581C18.3345 30.6898 18.2405 30.7838 18.1464 30.8462C18.0523 30.9086 17.676 31.2225 17.3304 31.6305C16.9233 32.0385 16.6094 32.3208 16.4837 32.3208C16.2955 32.3208 16.3272 32.2584 16.6718 31.9445L16.6728 31.9425ZM19.715 32.7893C20.4993 32.0366 21.3144 31.3157 22.0987 30.563L22.5067 30.1867L22.1928 30.5314C21.7857 31.0018 19.7784 33.0715 19.307 33.1973C19.307 33.1973 19.4328 33.0715 19.715 32.7893ZM18.2097 20.6837C18.7435 20.245 19.1822 19.8677 19.2763 19.837C19.3704 19.8053 19.6526 19.6171 19.9041 19.429C20.3429 19.115 20.5944 18.9902 20.6251 18.9585C20.6875 18.9585 20.3112 19.3032 19.5902 19.837C18.8059 20.4322 17.4571 21.4987 17.3006 21.781C17.2382 21.875 17.2065 21.9067 17.1749 21.9067C17.6453 21.3422 18.0533 20.8094 18.2097 20.6837ZM2.96781 22.3771C3.18765 21.9067 3.90861 20.8402 4.03437 20.8718C4.06605 20.8718 3.81549 21.2798 3.53229 21.781C3.46989 21.875 2.81134 23.0664 2.74798 23.0981C2.7163 23.0981 2.77965 22.7851 2.96781 22.3771ZM19.307 43.2638C19.4635 43.0757 19.8091 42.637 20.0597 42.2914C20.3102 41.915 20.4677 41.7269 20.4984 41.7269C20.5301 41.7269 20.3736 42.0091 20.0597 42.5112C19.9656 42.6677 19.0872 43.859 18.899 43.859C18.8366 43.859 18.9931 43.6392 19.3061 43.2638H19.307ZM16.2024 42.637C16.6094 42.1032 17.0174 41.6021 17.1115 41.508L16.7669 42.1358L15.7944 43.3905C15.5438 43.6104 15.4181 43.7045 15.3864 43.7352C15.324 43.7352 15.5745 43.4213 16.2024 42.6379V42.637ZM14.5713 24.2904C14.603 24.1022 14.6654 23.6952 14.6971 23.412C14.7278 23.0981 14.8229 22.8792 14.8536 22.8475C14.9169 22.8158 14.9169 22.9733 14.8853 23.1922C14.8536 23.5061 14.8536 23.6002 14.9793 23.6002C15.0734 23.6002 15.0734 23.6001 14.9793 23.6625C14.9169 23.7249 14.8536 23.8824 14.8229 24.0072C14.7912 24.1013 14.6347 24.5717 14.5089 24.6034C14.4773 24.6034 14.5406 24.5093 14.5713 24.2894V24.2904ZM19.2129 31.5355C19.9032 30.876 20.4677 30.3432 20.4677 30.3432C20.4984 30.3432 20.3102 30.5938 20.0289 30.876C19.7467 31.1582 19.2129 31.692 18.7742 32.0683C18.5237 32.2872 18.3979 32.3506 18.3662 32.3822C18.3662 32.3822 18.6168 32.1 19.2129 31.5355ZM9.36622 36.083C9.61678 35.676 9.86734 35.3304 9.9307 35.3304C10.0248 35.3611 9.9307 35.581 9.36622 36.3029C9.14638 36.5851 8.95822 36.8366 8.9275 36.8366C8.9275 36.8366 9.11566 36.492 9.36622 36.084V36.083ZM18.1157 42.6686C18.4603 42.2299 18.6494 41.9477 18.6801 41.9477C18.7118 41.9477 18.6485 42.0417 18.5237 42.2616C18.4613 42.3557 17.9275 43.1083 17.8334 43.1083C17.8017 43.1083 17.8958 42.9518 18.1157 42.6696V42.6686ZM4.59885 24.0082C4.69293 23.7259 5.10093 23.099 5.16333 23.099C5.16333 23.099 5.06925 23.3189 4.91278 23.6328C4.72462 24.0091 4.56814 24.229 4.53646 24.1973C4.53646 24.1973 4.56813 24.1339 4.59885 24.0091V24.0082ZM12.8779 27.301C12.972 27.0811 13.2859 26.7058 13.2542 26.7998C13.2542 26.9256 12.972 27.5208 12.8462 27.5208C12.8145 27.5208 12.8145 27.4584 12.8779 27.301ZM13.4731 25.7333C13.5355 25.4827 13.7553 25.2629 13.7237 25.4194C13.7237 25.4501 13.6613 25.6075 13.5672 25.7333L13.4107 25.9838L13.4731 25.7333ZM10.9953 22.5653C10.9953 22.5029 11.0577 22.4088 11.0894 22.3771C11.1518 22.3454 11.2459 22.3771 11.2152 22.4712C11.1835 22.5336 11.1528 22.6277 11.0894 22.6594C11.027 22.691 10.9953 22.6594 10.9953 22.5653ZM14.916 22.4088C14.916 22.3147 14.9467 22.2523 15.0101 22.2523C15.0725 22.2523 15.1041 22.3147 15.1041 22.4088C15.1041 22.4712 15.0725 22.5345 15.0101 22.5345C14.9477 22.5345 14.916 22.4722 14.916 22.4088ZM24.6062 28.3358C24.6062 28.2725 24.7003 28.1477 24.7627 28.0536C24.8251 27.9278 24.9192 27.8971 24.9192 27.9595C24.9192 28.0219 24.8568 28.1477 24.7627 28.2418C24.6686 28.3358 24.6062 28.3675 24.6062 28.3358ZM14.8209 26.3285C14.8209 26.2968 15.1339 25.9205 15.5112 25.4501C15.1349 25.9838 14.8209 26.3909 14.8209 26.3285ZM21.2501 41.6328C21.2501 41.5704 21.2817 41.507 21.3441 41.4763C21.4065 41.4446 21.4382 41.4763 21.4382 41.508C21.4382 41.5704 21.4065 41.6337 21.3441 41.6645C21.2817 41.6961 21.2184 41.6645 21.2501 41.6328ZM10.211 26.2968C10.211 26.2344 10.2417 26.2027 10.3051 26.2027C10.3675 26.2027 10.3992 26.2651 10.3992 26.2968C10.3992 26.3592 10.3675 26.3909 10.3051 26.3909C10.2417 26.3909 10.211 26.3592 10.211 26.2968ZM14.1307 25.7006C14.1307 25.6382 14.1931 25.5749 14.2565 25.5749C14.2881 25.5749 14.3189 25.6382 14.2881 25.7006C14.2565 25.7947 14.1941 25.8581 14.1624 25.8581C14.1624 25.8581 14.1307 25.7947 14.1307 25.7006ZM4.18893 25.1054L4.53358 24.3528L4.34541 24.8865C4.28301 25.1064 4.18893 25.1995 4.18893 25.1064V25.1054ZM2.4955 45.1147C2.4955 44.8642 2.52717 44.7701 2.55789 44.8949C2.55789 45.0206 2.5579 45.2088 2.52622 45.3336C2.49454 45.4593 2.49454 45.3653 2.49454 45.1147H2.4955ZM17.988 22.3147C18.0821 22.2523 18.1137 22.2523 18.1445 22.2523C18.1445 22.2523 18.1128 22.284 18.0504 22.3464C17.9563 22.4405 17.8622 22.5029 17.8622 22.5029C17.7681 22.5029 17.8305 22.4405 17.987 22.3147H17.988ZM10.6497 23.5378C10.6497 23.5061 10.6814 23.4437 10.7438 23.4437C10.8062 23.4754 10.8379 23.5061 10.7755 23.5694C10.7438 23.6011 10.7121 23.6318 10.6814 23.6318C10.6497 23.6318 10.6181 23.6002 10.6497 23.5378ZM23.6961 29.653C23.7278 29.5589 23.7902 29.5272 23.8219 29.5589C23.8536 29.5906 23.8219 29.653 23.7278 29.7154C23.6021 29.7787 23.6337 29.7787 23.6961 29.653ZM24.3864 28.837C24.4488 28.8994 24.4805 28.9627 24.4488 28.9934C24.4171 29.0251 24.3547 28.9618 24.323 28.8677C24.2913 28.7419 24.2913 28.7419 24.3854 28.836L24.3864 28.837ZM24.0101 29.1816C24.0417 29.0875 24.1041 29.0558 24.1358 29.0875C24.1675 29.1192 24.1358 29.1816 24.0734 29.244C23.9477 29.3698 23.9477 29.3381 24.011 29.1816H24.0101ZM3.97006 25.9512L4.03246 25.8888L4.00077 26.077C3.96909 26.1086 3.93838 26.0453 3.9691 25.9512H3.97006ZM4.06414 25.4808H4.09581L4.15822 25.4184L4.12654 25.6065C4.09486 25.6382 4.06414 25.5749 4.06414 25.4808ZM18.6158 43.9838V44.172L18.5534 44.0472L18.6158 43.9838ZM15.1349 24.4459C15.1349 24.4142 15.1665 24.3826 15.1973 24.3518C15.1349 24.4142 15.1349 24.4459 15.1349 24.4459ZM27.2405 39.7502C27.3969 41.1931 27.7733 42.0398 28.8715 43.2005C30.251 44.6433 31.0977 45.0504 33.1368 45.396C33.8894 45.5218 34.3598 45.5842 34.7361 45.5842C36.5553 45.5842 39.4718 43.7342 40.8206 42.6677C42.1694 41.5704 44.5214 39.3125 44.5214 39.0926C44.5214 38.9986 44.6779 38.7787 44.8977 38.5905C45.1176 38.4024 45.2117 38.2776 45.1176 38.3083C45.0235 38.34 45.2117 37.9637 45.5563 37.3992C46.1515 36.396 46.5595 35.2661 46.3713 35.0789C46.3397 35.0472 46.0574 35.2354 45.8069 35.5493L45.3365 36.1138L45.6504 35.5493C45.7761 35.3294 45.8385 35.2046 45.8069 35.2046C45.7445 35.2046 45.5563 35.3928 45.18 35.8315C42.6081 38.8113 40.2561 40.6613 38.3121 41.6962C37.4971 42.1349 34.3598 43.1074 33.8587 43.1074C33.0427 43.1074 32.9803 42.323 33.5765 39.6581C34.0785 37.4626 34.7371 35.4869 35.0193 35.4869C35.2699 35.4869 36.7445 34.7966 37.3713 34.3579C38.4062 33.637 42.9845 28.5874 42.9845 28.1477C42.9845 28.0853 43.0785 27.9288 43.1726 27.8347C43.6113 27.396 44.6779 25.6085 45.3365 24.228C45.9326 23.005 46.2149 22.189 46.1208 22.2206C46.1208 22.2206 46.0891 22.2523 46.0267 22.3147C45.9643 22.4088 45.9326 22.4405 45.9326 22.4405C45.9009 22.4405 45.9326 22.4088 45.9643 22.284C45.996 22.1275 46.0267 21.9394 46.0267 21.8453C46.0267 21.7512 46.0891 21.7512 46.1525 21.877C46.1841 21.9086 46.1841 21.9086 46.2149 21.9086C46.403 21.9086 46.6229 20.8738 46.5288 20.341C46.4971 20.1211 46.4971 20.027 46.4971 20.027C46.5288 20.027 46.5595 20.0904 46.5912 20.1528C46.6536 20.2786 46.6853 20.3726 46.6853 20.3726C46.7169 20.3726 46.7169 20.2786 46.7169 20.1528C46.7169 19.9963 46.6853 19.8398 46.6229 19.7765C46.5605 19.7141 46.5605 19.4318 46.5605 19.1496C46.5605 18.3969 45.9326 17.0482 45.2117 16.5154C44.3957 15.9202 43.1726 15.4805 42.3576 15.4805C41.1662 15.4805 39.0014 16.7352 37.3713 18.397C34.9877 20.8114 31.6949 26.1115 29.8757 30.565C29.5934 31.2552 29.3112 31.9137 29.2478 32.0385C29.0913 32.3832 28.2446 34.547 27.8366 35.7394C27.3979 37.0565 27.1157 38.6875 27.2414 39.7531L27.2405 39.7502ZM40.9137 22.6901C42.011 20.8709 43.6421 18.613 43.8619 18.5813C44.0501 18.5506 43.7678 19.9301 43.2974 21.1214C42.827 22.2821 41.3217 25.2302 40.5067 26.5474C40.2245 27.0178 37.8725 30.3106 36.5553 32.1298L35.9601 32.7566C35.5521 32.9448 39.1905 25.5432 40.9147 22.6901H40.9137ZM35.0491 23.5992C36.3662 21.4354 38.0597 19.2082 38.9073 18.5189C39.252 18.2366 39.5342 18.0168 39.5342 18.0802C39.5342 18.1118 38.8757 18.9269 38.0913 19.837C36.3345 21.875 35.1749 23.82 33.4181 26.9554L32.0693 29.3707C32.0376 29.4024 32.0376 29.4024 32.0069 29.4331C31.8811 29.4331 33.7944 25.6699 35.0491 23.6002V23.5992ZM35.2373 32.4744C36.5544 29.3064 39.1262 24.2885 40.6632 21.9682C41.4158 20.8392 43.3291 18.4248 43.4856 18.4248C43.5173 18.4248 43.0469 19.0517 42.4507 19.836C41.8545 20.5886 41.1336 21.5928 40.8513 22.0622C40.5691 22.5643 40.0046 23.4418 39.6283 24.0379C38.4993 25.8254 35.3006 32.1298 35.2689 32.8824C35.2689 33.0389 34.9243 33.8232 34.7669 33.7925C34.7045 33.7925 34.8609 33.3845 35.2373 32.4754V32.4744ZM38.7182 23.8498C39.5025 22.5326 40.7256 20.651 40.8513 20.651C40.883 20.651 40.6008 21.0898 40.2245 21.6542C39.1579 23.2853 37.8091 25.7937 36.3355 28.7736C35.5829 30.2789 34.8926 31.7534 34.7678 32.0357C34.6421 32.2862 34.5489 32.4437 34.5489 32.412C34.5173 31.9733 37.2456 26.3909 38.7192 23.8507L38.7182 23.8498ZM37.6833 22.7208C37.715 22.7208 37.6517 22.8782 37.5576 23.0347C37.4318 23.2229 36.9614 24.0379 36.491 24.8856C36.0206 25.7323 35.3304 27.0494 34.8917 27.8654C34.4529 28.6497 34.1073 29.2766 34.1073 29.1825C34.1073 28.8686 37.4942 22.7218 37.6824 22.7218L37.6833 22.7208ZM41.196 26.7345C42.0744 25.4174 43.7361 22.0929 43.956 21.2155C44.0501 20.8392 44.2382 20.5253 44.3006 20.5253C44.3323 20.5253 44.364 20.557 44.364 20.651C44.364 21.2155 41.7297 26.5781 41.1336 26.9861C41.0395 27.0494 41.0712 26.9237 41.196 26.7355V26.7345ZM33.6379 37.021C33.6696 36.7387 33.7944 36.4565 33.8577 36.3941L33.8894 36.6763C33.7953 37.0526 33.6696 37.3042 33.6072 37.3349C33.6072 37.3349 33.6072 37.2408 33.6389 37.021H33.6379ZM33.5755 30.4354C33.5755 30.3413 33.7013 30.059 33.8261 29.8075C33.9825 29.5253 34.1083 29.3688 34.1083 29.4629C34.1083 29.5253 33.9825 29.8075 33.8261 30.0898C33.7003 30.3403 33.5755 30.4978 33.5755 30.4344V30.4354ZM31.6939 30.0907L31.9128 29.7461L31.8187 30.0907L31.5989 30.5611C31.5672 30.6235 31.5355 30.6235 31.5048 30.6235C31.4424 30.6235 31.5048 30.373 31.6929 30.0898L31.6939 30.0907ZM45.6811 22.8782C45.8068 22.6901 45.9009 22.596 45.9009 22.6584C45.9009 22.7525 45.8068 22.9406 45.6811 23.1595C45.587 23.3477 45.4929 23.4418 45.4929 23.3477C45.4929 23.2853 45.587 23.0654 45.6811 22.8773V22.8782ZM33.9211 33.8232L34.5173 32.6318L34.1726 33.4785C34.0469 33.7608 33.9528 33.8866 33.9221 33.9173C33.9221 33.9173 33.9221 33.8856 33.9221 33.8232H33.9211ZM30.2203 33.133C30.2203 33.0389 30.2837 32.9765 30.3768 32.9765C30.4392 32.9765 30.5025 33.0389 30.5025 33.133C30.5025 33.1954 30.4401 33.2587 30.3768 33.2587C30.2827 33.2587 30.2203 33.1963 30.2203 33.133ZM39.3153 29.4014C39.3777 29.3074 39.4411 29.245 39.4718 29.245C39.5035 29.245 39.5342 29.3074 39.5342 29.4014C39.5342 29.4638 39.4401 29.5272 39.3777 29.5272C39.2837 29.5272 39.2837 29.4648 39.3153 29.4014ZM45.0542 36.4574C45.0859 36.4574 45.0542 36.5198 44.9601 36.6456C44.772 36.8961 44.6462 36.9278 44.6462 36.8338C44.6462 36.8021 45.0225 36.4574 45.0542 36.4574ZM45.1483 24.0696C45.2107 23.9438 45.2741 23.8498 45.3048 23.9131L45.2107 24.1637C45.1483 24.227 45.1166 24.2578 45.1166 24.2578C45.0849 24.2578 45.0849 24.1953 45.1483 24.0696ZM32.0385 33.8856L32.1326 33.7915L32.1009 34.0738C32.0693 34.1054 32.0385 34.0421 32.0385 33.8856ZM46.4021 21.0274C46.3396 21.0898 46.308 20.9957 46.3397 20.8392L46.4021 20.7768V21.0274ZM46.2456 21.5918C46.2139 21.6226 46.1832 21.5602 46.1832 21.4037L46.2773 21.3096L46.2456 21.5918Z" fill="#4A3726"/>
<path d="M44.6163 41.7608C44.9302 42.3886 46.2473 43.8929 46.8118 44.2385C47.6902 44.7723 48.9756 45.2734 49.4777 45.2734C49.6034 45.2734 49.6658 45.2427 49.6658 45.1793C49.6658 45.1486 49.6658 45.1169 49.6975 45.1169C49.7599 45.1169 49.8233 45.1793 49.8857 45.2427C50.1679 45.5249 50.5759 45.5873 50.9206 45.5873C51.4534 45.5873 52.0178 45.4616 52.1119 45.2734C52.1743 45.1793 52.2377 45.1169 52.2684 45.1486C52.3308 45.1486 52.3625 45.1486 52.4249 45.211C52.4566 45.2427 52.519 45.2427 52.5506 45.2734C52.6447 45.2734 52.7388 45.211 52.8953 45.0536C53.1459 44.803 53.2092 44.6465 53.1151 44.6465C53.0844 44.6465 53.021 44.6782 52.9586 44.7089C52.927 44.7406 52.8953 44.7406 52.8646 44.7406C52.8022 44.7406 52.7705 44.7089 52.7705 44.6782C52.7705 44.5841 53.0844 44.4584 53.3043 44.4901C53.3983 44.4901 53.4924 44.4901 53.5231 44.5525C53.5548 44.5841 53.5855 44.5841 53.6172 44.5841C53.8371 44.5841 54.2758 44.3336 54.2134 44.1761C54.151 44.0197 55.2483 42.859 55.374 42.9848C55.5305 43.1412 56.503 41.8241 56.4406 41.6053C56.4089 41.5112 56.4089 41.4488 56.4406 41.4488C56.4406 41.4488 56.4722 41.4488 56.503 41.4805C56.5654 41.5429 56.6287 41.4488 56.6287 41.324C56.6287 41.1982 56.6911 41.1358 56.8169 41.1358C56.911 41.1358 56.9426 41.1051 56.911 41.0417C56.8802 40.9476 56.9427 40.6347 57.0991 40.2891C57.2556 39.9445 57.2873 39.6622 57.2249 39.6622C57.1615 39.6622 57.0684 39.7563 57.0367 39.8504C57.006 39.9761 56.9743 39.9761 56.9743 39.8196C56.9743 39.5998 57.1308 39.5374 58.5737 39.475C60.174 39.4126 60.6127 39.2868 60.6127 39.0046C60.6127 38.9105 60.6127 38.8788 60.6444 38.8788C60.6761 38.8788 60.7068 38.9105 60.7702 38.9729C60.8643 39.067 60.9267 39.0987 60.99 39.1294C61.1158 39.1294 61.2098 39.0353 61.4287 38.8472C61.5862 38.7214 61.7734 38.6273 61.8367 38.659C61.9308 38.6907 61.9625 38.659 61.9625 38.5966C61.9625 38.5342 62.0566 38.4401 62.1506 38.4401C62.4012 38.4401 63.3113 38.0331 63.3113 37.9073C63.3113 37.8449 63.4995 37.7192 63.75 37.6251C64.3145 37.4053 65.5068 36.5585 65.4118 36.4645C65.3177 36.3704 65.2236 36.3387 65.0354 36.3387C64.879 36.3387 64.6591 36.3704 64.4393 36.4952C64.1887 36.6209 64.0006 36.6517 64.0006 36.6209C64.0006 36.5893 63.7183 36.715 63.4054 36.9032C63.0915 37.0913 62.7151 37.2478 62.5586 37.2478C62.4022 37.2478 62.0566 37.3419 61.7743 37.4984C61.4921 37.6549 61.3356 37.6865 61.0534 37.7182C60.9593 37.7182 60.8028 37.7499 60.6454 37.7806C59.8927 37.9688 59.046 38.0936 58.2617 38.0936C57.9794 38.0936 57.8854 38.0629 57.823 37.9371C57.7606 37.8113 57.6972 37.8113 57.6348 37.8113C57.5724 37.8113 57.4783 37.8737 57.3526 37.9995C57.2278 38.1253 57.1644 38.1876 57.1327 38.1876C57.102 38.1876 57.1327 38.0936 57.2268 37.9054C57.3516 37.6549 57.4774 37.5608 57.7913 37.5608C58.0111 37.5608 58.1359 37.5924 58.0418 37.6548C57.9478 37.7172 57.9161 37.7489 58.0102 37.8113C58.0726 37.8737 58.23 37.6548 58.3548 37.3726C58.5113 36.9963 58.5113 36.8398 58.4172 36.8398C58.3231 36.8398 58.3548 36.7457 58.4796 36.6516C58.7926 36.4011 59.2322 34.5819 59.0748 34.1115C58.9183 33.6728 59.0431 33.2965 59.2313 33.3905C59.3878 33.4529 59.5759 32.4497 59.5135 31.9476C59.4818 31.7912 59.357 31.5406 59.263 31.4456C59.1689 31.3515 59.1065 31.2891 59.2006 31.3208C59.3263 31.3515 59.3887 31.2574 59.3887 30.9445C59.3887 30.4741 57.0991 28.6548 56.4723 28.6548C56.4099 28.6548 56.2524 28.5291 56.0959 28.3726C55.6572 27.9339 54.4025 27.5566 53.3359 27.5566C52.9913 27.5566 52.6457 27.5883 52.3951 27.6824C51.894 27.8705 49.9807 28.9054 49.7926 29.1253C49.7609 29.1569 49.4479 29.4392 49.1023 29.7205C48.4438 30.2542 47.0009 32.0417 46.0284 33.547C44.2726 36.2437 43.6764 39.8504 44.6172 41.7636L44.6163 41.7608ZM49.854 40.6001C49.9798 40.6001 50.0422 40.5061 50.0422 40.3803C50.0422 40.2545 50.0738 39.9723 50.1055 39.7841C50.5442 37.1182 51.0463 35.7704 52.4575 33.355C52.7705 32.8222 52.9903 32.3518 52.9279 32.3518C52.7705 32.3518 52.3634 32.8222 52.3634 32.9787C52.3634 33.0411 52.1129 33.4808 51.799 33.9512C51.078 35.0177 50.4502 36.4289 50.5443 36.5854C50.5759 36.6478 50.5442 36.6795 50.4818 36.6795C50.4502 36.6795 50.4185 36.6795 50.3878 36.6795C50.2937 36.6795 50.357 36.5854 50.6076 35.8328C51.2662 33.9195 53.8063 30.1246 54.4025 30.1563C54.4342 30.1563 54.4658 30.1563 54.4966 30.188C54.559 30.2504 54.5907 30.2821 54.6223 30.2821C54.6531 30.2821 54.7164 30.2504 54.7788 30.1563C54.9353 29.9681 54.9353 29.9057 54.7788 29.9057C54.6847 29.9057 54.8412 29.8433 55.1234 29.7809C55.3433 29.7176 55.7186 29.7176 56.0335 29.7493C56.19 29.7493 56.3158 29.7493 56.4406 29.7493C57.7894 29.7493 57.8201 30.7217 57.8201 31.819C57.8201 33.2619 57.1932 35.7704 56.5971 36.9934C56.4089 37.4014 56.189 37.6213 56.095 37.652C56.0326 37.652 56.0009 37.5579 56.0009 37.4321C56.0009 37.3381 55.9385 37.244 55.8444 37.244C55.782 37.244 55.7503 37.1499 55.782 37.0241C55.8137 36.9301 55.8137 36.8043 55.7186 36.7419C55.6562 36.7102 55.6246 36.6161 55.6563 36.5537C55.782 36.3972 54.966 35.5505 54.3391 35.2366C53.9945 35.0484 53.8054 34.9861 53.6172 34.9861C53.5231 34.9861 53.3974 35.0177 53.2726 35.0485C52.1753 35.3307 51.9871 36.0833 52.5516 37.2123C52.9596 37.9966 53.1161 38.0907 54.3708 38.7176L55.374 39.2196L54.7154 40.0664C54.0569 40.8824 51.9871 42.8264 50.8265 42.8571C50.5759 42.8571 50.3561 42.763 50.1986 42.6065C50.0729 42.4501 50.0105 42.2302 50.0422 42.1361C50.0739 42.0104 50.0738 41.9797 49.9798 42.0104C49.8857 42.0421 49.854 41.8539 49.8857 41.3825C49.9174 40.9755 49.9174 40.8181 49.854 40.8181C49.854 40.8181 49.8223 40.8497 49.7916 40.8814C49.7292 40.9438 49.7292 41.0072 49.6975 41.0072C49.6658 41.0072 49.6658 40.9438 49.6658 40.8507C49.6658 40.7249 49.7599 40.6001 49.854 40.6001ZM47.9724 32.8539C48.8191 31.5368 49.5094 30.7217 50.4818 29.8433C51.0146 29.3422 51.4534 29.0907 51.5791 29.0907C51.6732 29.0907 51.5484 29.2789 51.078 29.6552C50.7641 29.9057 50.1055 30.6584 49.5411 31.2862C48.3804 32.5717 48.5062 32.3835 47.6902 33.6699C47.3455 34.2344 47.0316 34.6731 46.9999 34.6731C46.9058 34.6731 47.502 33.6065 47.9724 32.8539ZM50.7631 34.0145C51.6099 32.4776 52.8953 30.6584 53.1468 30.6584C53.1785 30.6584 53.1785 30.69 53.1785 30.7208C53.1785 30.7832 53.0844 30.9406 52.9586 31.0347C52.8329 31.1288 52.5506 31.4734 52.3308 31.7873C52.111 32.132 51.5465 33.0421 51.0761 33.8254C50.574 34.6721 50.2601 35.0801 50.2294 35.0801C50.1977 35.0801 50.3551 34.7355 50.7622 34.0136L50.7631 34.0145ZM54.558 40.9765C54.8086 40.6625 55.1225 40.2238 55.2483 40.004C55.5305 39.5019 55.782 39.2513 55.8751 39.2513C55.9692 39.2513 55.8435 39.596 55.4681 40.2238C55.2799 40.506 54.558 41.6033 54.151 41.635C54.0569 41.635 54.2134 41.4152 54.558 40.9765ZM49.3836 33.5432C49.6034 33.1985 49.7599 32.8222 49.7283 32.7588C49.6966 32.6648 49.6966 32.6331 49.7599 32.6648C49.8223 32.6964 50.0105 32.539 50.1986 32.3518C50.3244 32.226 50.3561 32.1953 50.3868 32.1636C50.4185 32.1636 50.2611 32.4459 49.9164 32.9787C49.7283 33.2609 49.4143 33.7313 49.2578 33.9828C49.1014 34.2334 48.9756 34.4216 48.9756 34.3275C48.9756 34.2651 49.1638 33.9205 49.3836 33.5432ZM57.2863 36.0516C57.4121 35.8011 57.4745 35.5179 57.4438 35.4872C57.3804 35.4248 57.4745 35.299 57.6003 35.1742C57.6627 35.1118 57.726 35.1118 57.726 35.1118C57.7577 35.1118 57.7577 35.1118 57.726 35.1742C57.6943 35.2366 57.6943 35.3624 57.7884 35.4248C57.8825 35.4872 57.8508 35.5505 57.6943 35.6753C57.5686 35.7694 57.4438 36.02 57.4438 36.2081C57.4438 36.3963 57.3804 36.6785 57.1298 36.6785C57.0358 36.6785 57.0675 36.522 57.2863 36.0516ZM56.6278 37.8085C56.6594 37.6827 56.7842 37.4005 56.8476 37.2123C56.9417 36.9617 57.0358 36.836 57.0675 36.836C57.1299 36.836 57.1299 37.0549 57.0051 37.4312C56.8793 37.7758 56.7228 38.0273 56.6604 38.0273C56.598 38.0273 56.5663 37.9333 56.6287 37.8075L56.6278 37.8085ZM55.0908 42.4184C55.1532 42.3867 55.279 42.4184 55.3414 42.5125C55.3731 42.5749 55.4355 42.6065 55.4671 42.6065C55.6236 42.6065 55.7494 42.4184 55.687 42.2302C55.6236 42.0737 55.687 41.948 55.8434 41.8232C55.9375 41.7291 55.9999 41.6974 55.9999 41.6974C56.0316 41.6974 55.9999 41.7291 55.9058 41.8232C55.686 42.043 55.686 42.1995 55.8425 42.1995C55.8742 42.1995 55.9059 42.1995 55.9683 42.1678C55.9999 42.1678 56.0316 42.1361 56.0316 42.1361C56.094 42.1361 56.0316 42.2619 55.8118 42.4808C55.5295 42.763 55.4355 42.8888 55.3731 42.8888C55.3414 42.8888 55.3414 42.8571 55.3414 42.764C55.3414 42.7323 55.3097 42.7006 55.2473 42.7006C55.2156 42.7006 55.1849 42.7006 55.1215 42.7323C55.0898 42.7323 55.0591 42.764 55.0274 42.764C54.9017 42.764 54.871 42.5441 55.0898 42.4193L55.0908 42.4184ZM48.4418 35.1108C48.4418 34.9851 48.7865 34.5147 48.8806 34.5147C48.9122 34.5147 48.8806 34.6712 48.7865 34.8593C48.6924 35.0792 48.5667 35.204 48.5043 35.204C48.4726 35.204 48.4418 35.1723 48.4418 35.1099V35.1108ZM57.7558 36.7726L57.8182 36.3656C57.8806 36.0209 58.038 35.7377 58.1321 35.7377C58.1321 35.7377 58.1638 35.7694 58.1638 35.8318C58.1638 35.9259 58.038 36.1457 57.9439 36.3656L57.7558 36.7726ZM57.8498 33.7304C57.9122 33.6046 57.9756 33.4798 57.9756 33.4165C57.9756 33.2907 58.038 33.2283 58.1014 33.2283C58.1331 33.2283 58.1638 33.26 58.1638 33.3541C58.1638 33.4798 57.9132 33.8561 57.7875 33.8561C57.7558 33.8561 57.7874 33.8245 57.8498 33.7304ZM50.1977 37.243C50.2601 37.243 50.3234 37.3054 50.3234 37.4312C50.3234 37.5569 50.261 37.651 50.1977 37.651C50.1353 37.651 50.0719 37.5569 50.0719 37.4312C50.0719 37.3371 50.1353 37.243 50.1977 37.243ZM58.6966 32.9777C58.6966 32.8836 58.7282 32.8213 58.7906 32.8213C58.7906 32.8213 58.8223 32.8213 58.854 32.852L58.9788 33.0401L58.854 33.1659C58.7599 33.1659 58.6966 33.0718 58.6966 32.9777ZM53.0518 42.4174C53.1775 42.2917 53.334 42.2293 53.3964 42.2609L53.1458 42.5115C53.0201 42.5739 52.927 42.6373 52.8953 42.6056C52.8646 42.6056 52.927 42.5432 53.0527 42.4174H53.0518ZM53.7727 41.8213C53.8351 41.7589 53.8985 41.6955 53.9292 41.6955C53.9609 41.6955 53.9916 41.7579 53.9916 41.8213C53.9916 41.8837 53.9292 41.947 53.8351 41.947C53.7727 41.947 53.741 41.8846 53.7727 41.8213ZM53.4588 35.7368C53.5212 35.7368 53.5529 35.7992 53.5212 35.8625C53.4588 35.9566 53.3954 36.019 53.3647 36.019C53.333 36.019 53.3023 35.9566 53.3023 35.8625C53.3023 35.8001 53.3647 35.7368 53.4588 35.7368ZM49.9155 37.7758C50.0095 37.7758 50.0719 37.8382 50.0719 37.9016C50.0719 37.9957 50.0402 38.0273 50.0095 38.0273C49.9778 38.0273 49.9155 37.9957 49.8531 37.9016C49.8214 37.8392 49.853 37.7758 49.9155 37.7758ZM58.1638 35.3297C58.1638 35.2664 58.1955 35.2356 58.2262 35.2356C58.3203 35.2356 58.4451 35.3614 58.4451 35.4238C58.4451 35.4555 58.3827 35.4862 58.3193 35.4862C58.2252 35.4862 58.1628 35.4238 58.1628 35.3297H58.1638ZM46.6226 34.9217C46.6543 34.8593 46.7167 34.796 46.7484 34.796C46.7801 34.796 46.8108 34.8584 46.8108 34.9217C46.8108 35.0158 46.7484 35.0782 46.6851 35.0782C46.591 35.0782 46.5593 35.0158 46.6226 34.9217ZM63.3698 41.7588C63.6838 42.3867 65.0009 43.891 65.5654 44.2366C66.4438 44.7704 67.7292 45.2715 68.2313 45.2715C68.3561 45.2715 68.4195 45.2408 68.4195 45.1774C68.4195 45.1467 68.4195 45.115 68.4511 45.115C68.5135 45.115 68.5759 45.1774 68.6393 45.2408C68.9215 45.523 69.3295 45.5854 69.6742 45.5854C70.2079 45.5854 70.7724 45.4597 70.8655 45.2715C70.9289 45.1774 70.9913 45.115 71.022 45.1467C71.0844 45.1467 71.1161 45.1467 71.1795 45.2091C71.2102 45.2408 71.2735 45.2408 71.3043 45.2715C71.3983 45.2715 71.4924 45.2091 71.6489 45.0516C71.8994 44.8011 71.9628 44.6446 71.8687 44.6446C71.837 44.6446 71.7747 44.6763 71.7123 44.707C71.6806 44.7387 71.6499 44.7387 71.6182 44.7387C71.5558 44.7387 71.5241 44.707 71.5241 44.6763C71.5241 44.5822 71.838 44.4565 72.0578 44.4881C72.1519 44.4881 72.246 44.4881 72.2767 44.5505C72.3084 44.5822 72.3401 44.5822 72.3708 44.5822C72.5906 44.5822 73.0294 44.3317 72.966 44.1742C72.9036 44.0177 74.0009 42.8571 74.1266 42.9828C74.2831 43.1393 75.2556 41.8222 75.1932 41.6033C75.1615 41.5093 75.1615 41.4468 75.1932 41.4468C75.1932 41.4468 75.2239 41.4469 75.2556 41.4785C75.319 41.5409 75.3814 41.4469 75.3814 41.3221C75.3814 41.1963 75.4438 41.1339 75.5695 41.1339C75.6636 41.1339 75.6953 41.1032 75.6636 41.0398C75.6319 40.9457 75.6953 40.6328 75.8518 40.2872C76.0082 39.9425 76.0399 39.6603 75.9775 39.6603C75.9151 39.6603 75.8211 39.7544 75.7894 39.8485C75.7577 39.9742 75.727 39.9742 75.727 39.8177C75.727 39.5979 75.8835 39.5355 77.3263 39.4731C78.9257 39.4107 79.3644 39.2849 79.3644 39.0027C79.3644 38.9086 79.3644 38.8769 79.3961 38.8769C79.4278 38.8769 79.4594 38.9086 79.5218 38.971C79.6159 39.0651 79.6793 39.0968 79.7417 39.1275C79.8674 39.1275 79.9615 39.0334 80.1804 38.8453C80.3369 38.7195 80.5251 38.6254 80.5884 38.6571C80.6825 38.6888 80.7142 38.6571 80.7142 38.5947C80.7142 38.5323 80.8083 38.4382 80.9023 38.4382C81.1529 38.4382 82.063 38.0312 82.063 37.9054C82.063 37.843 82.2511 37.7173 82.5017 37.6232C83.0662 37.4033 84.2585 36.5566 84.1635 36.4625C84.0694 36.3685 83.9753 36.3368 83.7871 36.3368C83.6307 36.3368 83.4108 36.3685 83.1919 36.4933C82.9414 36.619 82.7532 36.6497 82.7532 36.619C82.7532 36.5873 82.471 36.7131 82.158 36.9013C81.8441 37.0894 81.4678 37.2459 81.3113 37.2459C81.1548 37.2459 80.8092 37.34 80.527 37.4965C80.2447 37.6529 80.0883 37.6846 79.8051 37.7163C79.711 37.7163 79.5545 37.748 79.3971 37.7787C78.6444 37.9668 77.7977 38.0916 77.0134 38.0916C76.7311 38.0916 76.637 38.0609 76.5746 37.9352C76.5122 37.8094 76.4489 37.8094 76.3865 37.8094C76.3241 37.8094 76.23 37.8718 76.1043 37.9976C75.9785 38.1233 75.9161 38.1857 75.8844 38.1857C75.8527 38.1857 75.8844 38.0917 75.9785 37.9035C76.1042 37.6529 76.229 37.5588 76.543 37.5588C76.7628 37.5588 76.8876 37.5905 76.7935 37.6529C76.6994 37.7153 76.6678 37.747 76.7618 37.8094C76.8242 37.8718 76.9817 37.6529 77.1065 37.3707C77.263 36.9944 77.263 36.8379 77.1689 36.8379C77.0748 36.8379 77.1065 36.7438 77.2313 36.6497C77.5452 36.3992 77.9839 34.58 77.8265 34.1096C77.67 33.6709 77.7958 33.2945 77.983 33.3886C78.1404 33.451 78.3276 32.4478 78.2652 31.9457C78.2335 31.7892 78.1087 31.5387 78.0146 31.4436C77.9206 31.3496 77.8572 31.2872 77.9513 31.3188C78.0771 31.3496 78.1395 31.2555 78.1395 30.9425C78.1395 30.4721 75.8499 28.6529 75.222 28.6529C75.1596 28.6529 75.0022 28.5272 74.8457 28.3707C74.407 27.932 73.1522 27.5547 72.0857 27.5547C71.741 27.5547 71.3954 27.5864 71.1449 27.6805C70.6438 27.8686 68.7305 28.9035 68.5423 29.1233C68.5107 29.155 68.1977 29.4373 67.8521 29.7185C67.1935 30.2523 65.7507 32.0398 64.7782 33.5451C63.0214 36.2417 62.4262 39.8484 63.367 41.7617L63.3698 41.7588ZM68.6076 40.5982C68.7334 40.5982 68.7958 40.5041 68.7958 40.3784C68.7958 40.2526 68.8275 39.9704 68.8582 39.7822C69.2969 37.1163 69.799 35.7685 71.2102 33.3531C71.5241 32.8203 71.7439 32.3499 71.6806 32.3499C71.5241 32.3499 71.1161 32.8203 71.1161 32.9768C71.1161 33.0392 70.8655 33.4789 70.5516 33.9493C69.8297 35.0158 69.2028 36.427 69.2969 36.5835C69.3276 36.6459 69.2969 36.6776 69.2345 36.6776C69.2028 36.6776 69.1721 36.6776 69.1404 36.6776C69.0463 36.6776 69.1087 36.5835 69.3603 35.8308C70.0188 33.9176 72.559 30.1227 73.1551 30.1544C73.1868 30.1544 73.2175 30.1544 73.2492 30.1861C73.3116 30.2485 73.3433 30.2801 73.375 30.2801C73.4066 30.2801 73.4691 30.2485 73.5315 30.1544C73.6879 29.9662 73.6879 29.9038 73.5315 29.9038C73.4374 29.9038 73.5939 29.8414 73.8761 29.779C74.095 29.7157 74.4713 29.7157 74.7852 29.7473C74.9417 29.7473 75.0675 29.7473 75.1932 29.7473C76.5411 29.7473 76.5727 30.7198 76.5727 31.8171C76.5727 33.26 75.9449 35.7685 75.3497 36.9915C75.1615 37.3995 74.9426 37.6193 74.8486 37.6501C74.7862 37.6501 74.7545 37.556 74.7545 37.4302C74.7545 37.3361 74.6921 37.2421 74.598 37.2421C74.5356 37.2421 74.5039 37.148 74.5356 37.0222C74.5673 36.9281 74.5673 36.8024 74.4732 36.74C74.4108 36.7083 74.3791 36.6142 74.4108 36.5518C74.5366 36.3953 73.7206 35.5486 73.0937 35.2347C72.749 35.0465 72.5599 34.9841 72.3727 34.9841C72.2786 34.9841 72.1529 35.0158 72.0281 35.0465C70.9308 35.3288 70.7417 36.0814 71.3062 37.2104C71.7142 37.9947 71.8707 38.0888 73.1254 38.7156L74.1286 39.2177L73.47 40.0645C72.8115 40.8805 70.7417 42.8245 69.5811 42.8552C69.3305 42.8552 69.1107 42.7611 68.9542 42.6046C68.8284 42.4481 68.766 42.2283 68.7977 42.1342C68.8294 42.0085 68.8294 41.9777 68.7353 42.0085C68.6412 42.0401 68.6095 41.852 68.6412 41.3806C68.6729 40.9736 68.6729 40.8161 68.6095 40.8161C68.6095 40.8161 68.5779 40.8478 68.5471 40.8795C68.4847 40.9419 68.4847 41.0053 68.4531 41.0053C68.4214 41.0053 68.4214 40.9419 68.4214 40.8488C68.4214 40.723 68.5154 40.5982 68.6095 40.5982H68.6076ZM66.726 32.852C67.5727 31.5349 68.263 30.7198 69.2355 29.8414C69.7682 29.3403 70.2079 29.0888 70.3327 29.0888C70.4268 29.0888 70.301 29.2769 69.8306 29.6533C69.5177 29.9038 68.8582 30.6565 68.2937 31.2843C67.133 32.5697 67.2588 32.3816 66.4438 33.668C66.0991 34.2325 65.7852 34.6712 65.7535 34.6712C65.6594 34.6712 66.2556 33.6046 66.726 32.852ZM69.5177 34.0126C70.3644 32.4756 71.6499 30.6565 71.9014 30.6565C71.9331 30.6565 71.9331 30.6881 71.9331 30.7188C71.9331 30.7812 71.839 30.9387 71.7132 31.0328C71.5875 31.1268 71.3052 31.4715 71.0854 31.7854C70.8655 32.1301 70.301 33.0401 69.8306 33.8235C69.3286 34.6702 69.0156 35.0782 68.9839 35.0782C68.9522 35.0782 69.1097 34.7336 69.5177 34.0116V34.0126ZM73.3126 40.9745C73.5631 40.6606 73.877 40.2219 74.0028 40.0021C74.285 39.5 74.5356 39.2494 74.6297 39.2494C74.7238 39.2494 74.598 39.5941 74.2217 40.2219C74.0335 40.5041 73.3126 41.6014 72.9046 41.6331C72.8105 41.6331 72.967 41.4133 73.3126 40.9745ZM68.1372 33.5413C68.3571 33.1966 68.5135 32.8203 68.4818 32.7569C68.4511 32.6629 68.4511 32.6312 68.5135 32.6628C68.5759 32.6945 68.7641 32.5371 68.9523 32.3499C69.078 32.2241 69.1087 32.1934 69.1404 32.1617C69.1721 32.1617 69.0147 32.444 68.67 32.9768C68.4819 33.259 68.1679 33.7294 68.0114 33.9809C67.855 34.2315 67.7292 34.4197 67.7292 34.3256C67.7292 34.2632 67.9174 33.9185 68.1363 33.5413H68.1372ZM76.0409 36.0497C76.1666 35.7992 76.2291 35.516 76.1974 35.4853C76.135 35.4229 76.229 35.2971 76.3538 35.1723C76.4162 35.1099 76.4796 35.1099 76.4796 35.1099C76.5113 35.1099 76.5113 35.1099 76.4796 35.1723C76.4479 35.2347 76.4479 35.3604 76.542 35.4228C76.6361 35.4852 76.6054 35.5486 76.4479 35.6734C76.3222 35.7675 76.1974 36.0181 76.1974 36.2062C76.1974 36.3944 76.135 36.6766 75.8834 36.6766C75.7894 36.6766 75.821 36.5201 76.0399 36.0497H76.0409ZM75.3823 37.8065C75.414 37.6808 75.5388 37.3985 75.6022 37.2104C75.6963 36.9598 75.7903 36.8341 75.822 36.8341C75.8844 36.8341 75.8844 37.0529 75.7596 37.4293C75.6338 37.7739 75.4774 38.0254 75.415 38.0254C75.3516 38.0254 75.3209 37.9313 75.3833 37.8056L75.3823 37.8065ZM73.8454 42.4165C73.9078 42.3848 74.0335 42.4165 74.0959 42.5105C74.1276 42.5729 74.19 42.6046 74.2217 42.6046C74.3782 42.6046 74.5039 42.4165 74.4415 42.2283C74.3791 42.0718 74.4415 41.9461 74.598 41.8213C74.6921 41.7272 74.7545 41.6955 74.7545 41.6955C74.7862 41.6955 74.7545 41.7272 74.6604 41.8213C74.4406 42.0411 74.4406 42.1976 74.598 42.1976C74.6297 42.1976 74.6604 42.1976 74.7238 42.1659C74.7554 42.1659 74.7862 42.1342 74.7862 42.1342C74.8486 42.1342 74.7862 42.26 74.5663 42.4788C74.2841 42.7611 74.19 42.8868 74.1276 42.8868C74.0959 42.8868 74.0959 42.8552 74.0959 42.7621C74.0959 42.7304 74.0642 42.6987 74.0018 42.6987C73.9702 42.6987 73.9385 42.6987 73.8761 42.7304C73.8444 42.7304 73.8127 42.7621 73.782 42.7621C73.6563 42.7621 73.6255 42.5422 73.8444 42.4174L73.8454 42.4165ZM67.1964 35.1089C67.1964 34.9832 67.5411 34.5128 67.6351 34.5128C67.6668 34.5128 67.6351 34.6693 67.5411 34.8574C67.447 35.0773 67.3212 35.2021 67.2588 35.2021C67.2271 35.2021 67.1964 35.1704 67.1964 35.108V35.1089ZM76.5113 36.7707L76.5737 36.3636C76.6361 36.019 76.7926 35.7358 76.8866 35.7358C76.8866 35.7358 76.9183 35.7675 76.9183 35.8299C76.9183 35.924 76.7926 36.1438 76.6985 36.3636L76.5103 36.7707H76.5113ZM76.6054 33.7285C76.6678 33.6027 76.7311 33.4779 76.7311 33.4145C76.7311 33.2888 76.7935 33.2264 76.8559 33.2264C76.8876 33.2264 76.9183 33.2581 76.9183 33.3521C76.9183 33.4779 76.6678 33.8542 76.542 33.8542C76.5113 33.8542 76.542 33.8225 76.6054 33.7285ZM68.9532 37.2411C69.0156 37.2411 69.079 37.3035 69.079 37.4293C69.079 37.555 69.0166 37.6491 68.9532 37.6491C68.8908 37.6491 68.8274 37.555 68.8274 37.4293C68.8274 37.3352 68.8899 37.2411 68.9532 37.2411ZM77.4521 32.9758C77.4521 32.8817 77.4838 32.8193 77.5462 32.8193C77.5462 32.8193 77.5778 32.8193 77.6086 32.8501L77.7334 33.0382L77.6086 33.164C77.5145 33.164 77.4521 33.0699 77.4521 32.9758ZM71.8073 42.4155C71.9331 42.2897 72.0895 42.2273 72.1519 42.259L71.9014 42.5096C71.7756 42.572 71.6815 42.6353 71.6508 42.6036C71.6191 42.6036 71.6825 42.5413 71.8073 42.4155ZM72.5283 41.8193C72.5916 41.7569 72.654 41.6936 72.6847 41.6936C72.7164 41.6936 72.7471 41.756 72.7471 41.8193C72.7471 41.8817 72.6847 41.9451 72.5906 41.9451C72.5273 41.9451 72.4966 41.8827 72.5273 41.8193H72.5283ZM72.2153 35.7348C72.2777 35.7348 72.3094 35.7972 72.2777 35.8606C72.2153 35.9547 72.1519 36.0171 72.1212 36.0171C72.0895 36.0171 72.0588 35.9547 72.0588 35.8606C72.0588 35.7982 72.1212 35.7348 72.2153 35.7348ZM68.671 37.7739C68.765 37.7739 68.8274 37.8363 68.8274 37.8996C68.8274 37.9937 68.7958 38.0254 68.7651 38.0254C68.7334 38.0254 68.671 37.9937 68.6086 37.8996C68.5769 37.8372 68.6086 37.7739 68.671 37.7739ZM76.9193 35.3278C76.9193 35.2644 76.951 35.2337 76.9817 35.2337C77.0758 35.2337 77.2015 35.3595 77.2015 35.4219C77.2015 35.4536 77.1391 35.4843 77.0758 35.4843C76.9817 35.4843 76.9193 35.4219 76.9193 35.3278ZM65.3782 34.9198C65.4089 34.8574 65.4722 34.7941 65.5039 34.7941C65.5346 34.7941 65.5663 34.8564 65.5663 34.9198C65.5663 35.0139 65.5039 35.0763 65.4406 35.0763C65.3465 35.0763 65.3148 35.0139 65.3782 34.9198Z" fill="#4A3726"/>
<path d="M80.7127 42.7936C80.8068 43.7344 80.9632 44.2048 81.2148 44.2365C81.2464 44.2365 81.2772 44.2048 81.3088 44.2048C81.3712 44.2048 81.4029 44.1732 81.4346 44.1732C81.4663 44.1732 81.4663 44.2356 81.4346 44.3296C81.4029 44.4554 81.4663 44.6119 81.5911 44.7376C81.6535 44.8 81.7168 44.8317 81.7792 44.8317C81.8416 44.8317 81.905 44.7693 82.0298 44.6436C82.1239 44.5178 82.1863 44.4554 82.2496 44.4871C82.2813 44.4871 82.312 44.4871 82.3437 44.5495C82.4061 44.6752 82.6576 44.706 82.9082 44.7376C83.7232 44.7376 85.1344 43.6394 85.1344 43.17C85.1344 43.1076 85.2909 42.8877 85.4791 42.6996C85.6989 42.4797 85.8554 42.2609 85.8861 42.1351C85.9178 41.9469 85.9802 41.8528 86.3882 41.3508C86.4823 41.226 86.5763 41.0685 86.5763 41.0061C86.5447 40.9428 86.7021 40.6922 86.8586 40.5041C87.0468 40.2842 87.1092 40.0336 87.0468 39.9396C86.9844 39.8455 87.0151 39.8148 87.1091 39.8772C87.1408 39.9089 87.1715 39.9088 87.2032 39.9088C87.2656 39.9088 87.2973 39.8772 87.2973 39.8464C87.2973 39.7524 87.3914 39.69 87.4855 39.69C87.6112 39.69 87.6736 39.5959 87.642 39.5018C87.6112 39.4077 87.7044 39.1572 87.8618 38.969C88.0183 38.8125 88.0816 38.561 88.05 38.4352C88.0183 38.3412 88.0183 38.2788 88.05 38.2788C88.05 38.2788 88.0816 38.2788 88.1123 38.3095C88.144 38.3412 88.1747 38.3412 88.2064 38.3412C88.2381 38.3412 88.2381 38.2788 88.2064 38.1847C88.144 38.0282 88.2064 37.9024 88.3946 37.8717C88.7709 37.8093 89.5236 36.7111 89.3978 36.4288C89.3354 36.304 89.3661 36.2407 89.4295 36.3041C89.5552 36.4289 90.1504 35.7079 90.1821 35.4573C90.1821 35.3632 90.4327 35.0186 90.7466 34.7047C91.0605 34.3908 91.3427 34.0145 91.4051 33.858C91.4675 33.7015 91.5933 33.45 91.6874 33.3559C91.8131 33.2301 92.1578 32.7914 92.5034 32.3527C93.1936 31.4426 94.4791 30.1888 94.4791 30.4077C94.4791 30.4394 94.1968 31.098 93.8205 31.8813C92.3776 34.8919 91.4685 38.4362 91.4685 40.9447C91.4685 42.8263 92.7539 44.3949 94.6672 44.3949C95.3258 44.3949 96.0468 44.2068 96.5488 43.8612C97.3015 43.3284 98.4304 42.137 98.3056 41.9796C98.2432 41.9172 98.3056 41.8538 98.368 41.8538C98.4621 41.8538 98.5245 41.7597 98.5245 41.6656C98.5245 41.5399 98.6503 41.321 98.8068 41.1319C98.9632 40.9754 99.0266 40.7249 98.9949 40.5991C98.9632 40.4733 99.0266 40.3792 99.2148 40.3168C99.4029 40.2544 99.5287 40.1287 99.5287 40.0346C99.5287 39.9088 99.6228 39.8157 99.7485 39.8157C99.7802 39.8157 99.7802 39.8157 99.8109 39.8157C99.905 39.8157 99.9674 39.784 99.9357 39.7216C99.905 39.6592 100.218 39.0631 100.594 38.4045C101.002 37.7143 101.316 37.0557 101.316 36.9309C101.316 36.7745 101.348 36.7121 101.442 36.7121C101.536 36.7121 101.63 36.6496 101.598 36.5546C101.568 36.4605 101.598 36.3664 101.662 36.3664C101.818 36.3664 102.853 34.8612 102.853 34.673C102.853 34.6106 102.947 34.4532 103.073 34.3591C103.198 34.265 103.292 34.1085 103.292 33.9828C103.292 33.7629 104.296 32.1952 104.453 32.1952C104.516 32.1952 104.609 32.0695 104.641 31.913C104.703 31.5367 105.393 30.8781 105.519 31.0029C105.582 31.0663 105.613 31.0346 105.551 30.9405C105.488 30.8464 105.582 30.6583 105.77 30.5325C105.927 30.4068 106.02 30.3127 105.958 30.3127C105.864 30.3127 105.958 30.2186 106.178 30.1245C106.366 30.0304 106.492 29.874 106.492 29.7799C106.492 29.5917 106.836 29.5293 106.994 29.5293C107.276 29.5293 107.213 29.8116 106.805 31.0029C106.367 32.3201 106.021 33.0727 104.798 35.5188C103.607 37.8708 102.76 40.0039 102.634 40.9447C102.54 41.729 102.885 43.1402 103.135 43.1402C103.229 43.1402 103.449 43.3908 103.637 43.7047C104.014 44.2999 105.363 45.0842 106.24 45.2416C106.522 45.304 106.93 45.3981 107.087 45.4605C107.306 45.5546 107.651 45.5863 108.059 45.5863C108.498 45.5863 108.938 45.5546 109.314 45.4605C110.067 45.2724 111.07 44.8337 111.07 44.7079C111.07 44.6455 111.133 44.5821 111.227 44.5821C111.415 44.5821 112.607 43.8295 112.951 43.3908C113.077 43.2343 113.171 43.0461 113.14 42.9828C113.108 42.9204 113.14 42.857 113.265 42.9204C113.359 42.9828 113.861 42.6381 114.332 42.1994C114.834 41.729 115.242 41.4468 115.242 41.4775C115.242 41.5399 115.368 41.5092 115.524 41.4151C115.681 41.321 115.806 41.1952 115.806 41.1328C115.806 41.0388 115.995 40.8189 116.245 40.6001C117.218 39.7533 118.848 37.5895 119.256 36.8052C119.726 35.9268 119.82 35.5197 119.538 35.5514C119.506 35.5514 119.444 35.5514 119.412 35.5514C119.381 35.5514 119.318 35.5821 119.286 35.5514C119.224 35.5514 119.192 35.5197 119.224 35.4881C119.318 35.394 119.286 35.3316 119.256 35.3316C119.162 35.3316 118.754 35.6762 118.189 36.2724C115.68 38.9383 112.889 41.2903 111.666 42.0429C109.628 43.2977 109.282 43.5165 108.467 43.5799C108.279 43.5799 108.123 43.5799 107.966 43.6116C107.716 43.6116 107.527 43.5799 107.465 43.5175C107.277 43.3293 107.716 42.2944 108.562 40.8208C109.535 39.1274 110.789 36.5249 110.789 36.2109C110.789 36.0852 110.821 35.9287 110.915 35.897C111.135 35.8346 111.386 34.266 111.386 33.2628C111.386 32.2279 111.197 31.0989 110.853 30.4404C110.414 29.5936 109.473 28.3082 109.065 28.026C108.658 27.7437 107.811 27.4922 107.246 27.4922C105.897 27.4922 103.891 29.656 103.295 30.7543C103.013 31.2554 102.197 32.5418 101.476 33.6084C100.755 34.7056 99.7821 36.2109 99.3117 36.9645C98.2452 38.6887 97.2103 40.289 97.1162 40.1949C97.0855 40.1633 97.4608 39.3482 97.9629 38.3767C99.6564 35.0839 100.535 32.3863 100.535 30.9751C100.535 30.7553 100.503 30.6304 100.472 30.6304C100.472 30.6304 100.441 30.6621 100.441 30.6928C100.441 30.9751 100.253 31.0999 100.19 31.1316C100.159 31.1316 100.128 31.0058 100.19 30.7869C100.472 29.8145 99.5632 28.6231 98.1828 27.9962C97.7748 27.8081 97.3044 27.7457 96.8656 27.714C95.9248 27.714 95.0147 28.0903 94.3571 28.6548C94.1373 28.8429 93.9184 29.0311 93.8234 29.0311C93.5728 29.0311 91.722 31.0701 90.5306 32.6685C90.1236 33.2023 89.778 33.641 89.7156 33.641C89.6532 33.641 89.7155 33.3588 89.8413 33.0132C89.9671 32.7002 90.0612 31.8525 90.0919 31.1949C90.1236 30.5671 90.1236 30.2848 90.1236 30.2848C90.0919 30.2848 90.0612 30.4413 90.0295 30.7236C89.9671 31.2564 89.873 31.5079 89.8413 31.5396C89.8096 31.5396 89.7789 31.1316 89.8413 30.4106C89.9354 29.2192 89.9037 29.1559 89.4967 28.5597C88.9946 27.8071 87.6775 27.2109 86.8624 27.2109C86.5802 27.2109 86.3287 27.2743 86.2039 27.4308C86.0157 27.6506 86.0157 27.7754 86.1098 27.9645C86.2356 28.1844 86.2039 28.4033 86.0157 28.8429C85.89 29.1569 85.6087 29.8154 85.4205 30.3482C85.1066 31.1949 84.7303 32.105 82.3783 37.53C80.7482 41.2932 80.6224 41.7952 80.7165 42.7984L80.7127 42.7936ZM81.5594 42.1984C81.5594 41.9479 81.6851 41.6964 81.7792 41.5706C81.8733 41.4765 81.905 41.2567 81.8733 41.1002C81.8426 40.9428 81.8733 40.8496 81.9367 40.8496C82.0932 40.8496 82.5636 39.9089 83.1597 38.466C83.2855 38.153 83.3479 37.8708 83.2855 37.7757C83.2231 37.6816 83.3172 37.5559 83.442 37.4618C83.85 37.1479 86.0138 32.1933 85.9197 31.817C85.888 31.6913 85.9197 31.6605 85.9821 31.6912C86.0445 31.7229 86.1703 31.5972 86.2643 31.3773C86.3267 31.1892 86.3901 31.0951 86.3901 31.0951C86.3901 31.0951 86.3901 31.2208 86.3277 31.4714C86.1712 32.0992 85.4493 34.074 83.537 38.4026C82.722 40.2535 81.9693 41.9469 81.8128 42.1975L81.5623 42.6045V42.1975L81.5594 42.1984ZM97.3975 38.0589C97.8986 37.0241 98.5888 35.4247 98.9968 34.4839C99.3732 33.5748 99.6554 33.041 99.6247 33.2608C99.5623 33.7629 99.4682 33.9828 99.0285 35.0176C98.8404 35.4564 98.6839 35.8327 98.6839 35.9268C98.6839 36.0208 98.5264 36.3972 98.3392 36.7735C97.649 38.154 96.9597 39.5652 96.3002 40.9764C96.0179 41.5716 95.7981 42.0112 95.7981 41.9488C95.7674 41.729 96.52 39.9098 97.3984 38.0599L97.3975 38.0589ZM94.0413 34.8909C94.1037 34.8909 94.5117 34.0442 94.9197 33.0401C95.7357 31.0644 96.8013 28.9946 96.8954 29.2768C96.9578 29.465 96.7389 29.9671 95.6723 31.9428C95.3277 32.5706 94.8563 33.5738 94.5751 34.2324C94.2611 34.9543 94.0413 35.2989 94.0106 35.1732C93.9789 35.0474 93.9789 34.9226 94.0423 34.8909H94.0413ZM95.3584 41.3824C95.3267 40.9437 97.4282 36.1764 97.8669 35.1732C98.1808 34.4829 98.4631 33.9501 98.4948 33.9818C98.5255 34.0135 98.1501 34.985 97.648 36.114C97.1469 37.2429 96.5815 38.7165 96.2685 39.4068L95.3594 41.3824H95.3584ZM108.248 40.2535C108.656 39.5008 109.221 38.466 109.503 37.9332C109.785 37.3994 110.004 36.9924 110.036 37.0231L109.127 38.9047L107.402 41.9786C107.465 41.7904 107.84 41.0061 108.248 40.2535ZM88.6471 34.6711C88.7095 34.5453 88.96 33.8561 89.2423 33.1341C89.5245 32.4439 89.7127 31.9428 89.7443 32.0992C89.7443 32.4439 88.96 34.7018 88.6154 34.7652C88.6154 34.7652 88.6154 34.7335 88.6471 34.6711ZM102.885 32.1933C102.917 32.0676 102.948 31.9428 103.011 31.9111C103.042 31.8487 103.261 31.5664 103.481 31.2208C103.701 30.8762 103.92 30.594 103.951 30.594C104.014 30.594 103.92 30.7821 103.795 30.9703C103.669 31.1584 103.607 31.3149 103.638 31.3149C103.67 31.3149 103.638 31.4714 103.482 31.5972C103.325 31.7229 103.137 31.9735 103.043 32.1309C102.981 32.225 102.917 32.2874 102.887 32.2874C102.887 32.2874 102.887 32.2567 102.887 32.1933H102.885ZM95.5773 36.4269C95.6407 36.2705 95.7348 36.0199 95.7655 35.8624C95.7962 35.706 96.0784 35.2039 96.2042 35.0781C96.2042 35.0781 96.2042 35.1722 96.1418 35.3604C96.1111 35.4861 95.7031 36.521 95.5773 36.521C95.5466 36.521 95.5466 36.4893 95.5773 36.4269ZM102.07 33.4164C102.258 33.1965 102.414 33.0717 102.414 33.1341C102.414 33.3223 101.693 34.169 101.693 33.9808C101.693 33.9184 101.849 33.6669 102.069 33.4164H102.07ZM87.6429 35.5178C87.8311 35.1415 87.9876 34.9226 87.9876 35.0167C87.9876 35.0791 87.8311 35.4247 87.6429 35.801C87.4548 36.1457 87.2983 36.3655 87.2983 36.3031C87.2983 36.209 87.4557 35.8644 87.6429 35.5188V35.5178ZM100 31.5357L100.032 31.818L99.8119 32.633C99.6554 32.8836 99.7802 31.9744 100 31.5357ZM95.0762 37.6826C95.0762 37.5568 95.1703 37.2746 95.296 37.0874L95.5159 36.7428L95.4218 37.0874C95.3594 37.2756 95.2653 37.5578 95.202 37.6826C95.1703 37.7767 95.1079 37.8391 95.1079 37.8084C95.0762 37.8084 95.0762 37.7767 95.0762 37.6826ZM95.1386 41.9796C95.2644 41.729 95.3268 41.6032 95.3268 41.6032C95.3584 41.6032 95.3267 41.6973 95.2951 41.9172C95.2634 42.0113 95.0752 42.5757 94.9504 42.5757C94.9187 42.5757 94.9504 42.3559 95.1386 41.9805V41.9796ZM105.425 37.0874C105.457 37.0874 105.425 37.1815 105.331 37.338C105.205 37.5578 105.111 37.6826 105.049 37.6826C105.049 37.6826 105.017 37.6509 105.017 37.5568C105.017 37.4628 105.331 37.1181 105.425 37.0864V37.0874ZM98.5255 38.969C98.5255 38.9066 98.8701 38.5303 98.9335 38.5303C98.9652 38.5303 98.9335 38.6244 98.8394 38.7808C98.7136 39.0007 98.6196 39.0948 98.5888 39.0948C98.5572 39.0948 98.5255 39.0631 98.5255 38.969ZM88.1133 34.4839L88.7085 33.1984L88.3639 34.1392C88.2381 34.4215 88.144 34.578 88.1133 34.578C88.0816 34.578 88.0816 34.5463 88.1133 34.4839ZM99.8109 36.9616C99.905 36.8042 99.9991 36.6477 100.061 36.6477C100.093 36.6477 100.061 36.8042 99.9674 36.9616C99.8733 37.1181 99.7792 37.2439 99.7485 37.2439C99.7168 37.2439 99.7485 37.1181 99.8109 36.9616ZM101.128 34.9226C101.222 34.7661 101.316 34.6404 101.348 34.6404C101.379 34.6404 101.348 34.7661 101.254 34.9226C101.16 35.0791 101.097 35.2048 101.035 35.2048C101.003 35.2048 101.035 35.0791 101.129 34.9226H101.128ZM99.2464 37.9648C99.3405 37.8084 99.4346 37.6826 99.4663 37.6826C99.5287 37.6826 99.498 37.8084 99.4039 37.9648C99.3098 38.1223 99.2157 38.2471 99.1533 38.2471C99.1216 38.2471 99.1533 38.1213 99.2474 37.9648H99.2464ZM96.8003 33.4173C96.8003 33.3232 96.8628 33.1668 96.9568 33.041C97.0192 32.9469 97.0826 32.9152 97.0826 32.9786C97.0826 33.0727 97.0509 33.2292 96.9568 33.3549C96.8628 33.4807 96.8003 33.5114 96.8003 33.4173ZM97.0826 32.6964C97.0826 32.6023 97.1767 32.4765 97.2391 32.3517C97.3024 32.226 97.3648 32.1952 97.3648 32.2576C97.3648 32.3517 97.3331 32.5082 97.2391 32.634C97.145 32.7281 97.0826 32.7904 97.0826 32.6973V32.6964ZM96.5181 34.1392C96.5181 34.0452 96.5498 33.8887 96.6439 33.7629C96.738 33.6689 96.8003 33.6372 96.8003 33.7005C96.8003 33.7946 96.738 33.9511 96.6439 34.0768C96.5815 34.1709 96.5181 34.2026 96.5181 34.1402V34.1392ZM82.9696 42.4183C83.032 42.2925 83.0954 42.2618 83.0954 42.3549C83.0954 42.4183 83.033 42.6055 82.9696 42.6996C82.8756 42.8253 82.8131 42.856 82.8131 42.7936C82.8131 42.6996 82.8756 42.5431 82.9696 42.4173V42.4183ZM96.3607 34.4839C96.4231 34.3898 96.5171 34.3581 96.5171 34.4215C96.5171 34.5156 96.4548 34.672 96.3607 34.7978C96.2983 34.8919 96.2359 34.9236 96.2359 34.8602C96.2359 34.7978 96.2666 34.6097 96.3607 34.4839ZM97.3956 31.9754C97.3956 31.913 97.4579 31.7248 97.5213 31.6308C97.5837 31.505 97.6461 31.4743 97.6461 31.5367C97.6461 31.6308 97.5837 31.7873 97.5213 31.913C97.4579 32.0388 97.3956 32.0695 97.3956 31.9754ZM100.657 35.6445C100.751 35.5821 100.813 35.5188 100.845 35.5188C100.845 35.5188 100.813 35.5812 100.688 35.7386C100.563 35.8951 100.469 36.0525 100.438 36.0832C100.406 36.1149 100.406 36.0516 100.406 35.9892C100.406 35.8951 100.5 35.7386 100.657 35.6445ZM86.8576 29.3728C86.92 29.3412 86.9517 29.4045 86.92 29.5293C86.8884 29.6551 86.7943 29.7175 86.7636 29.7492C86.7319 29.7492 86.7011 29.6858 86.7011 29.5927C86.7011 29.5303 86.7636 29.4362 86.8576 29.3728ZM102.852 32.4775C102.883 32.4775 102.82 32.5399 102.726 32.6656C102.601 32.8231 102.507 32.9162 102.444 32.9162C102.413 32.9162 102.413 32.8845 102.413 32.8538C102.413 32.7914 102.789 32.4775 102.851 32.4775H102.852ZM93.569 36.3664C93.6007 36.304 93.6631 36.2407 93.6948 36.2407C93.7572 36.2407 93.7571 36.3031 93.7571 36.3664C93.7571 36.4605 93.6947 36.5229 93.6314 36.5229C93.5373 36.5229 93.5056 36.4605 93.569 36.3664Z" fill="#4A3726"/>
<path fill-rule="evenodd" clip-rule="evenodd" d="M124.194 27.4706C123.252 26.4165 122.219 24.5148 121.563 23.4319C120.503 21.6828 114.272 11.9349 113.339 11.0508C112.916 11.8303 113.452 12.3324 114.059 13.4969C114.512 14.3666 114.789 15.053 115.194 15.9324L119.673 25.685C120.255 26.9724 121.049 26.8629 122.961 27.4725C123.732 27.7183 123.579 27.8489 124.194 27.4706ZM145.445 35.0652C146.127 34.9298 146.812 34.806 147.406 34.7839C148.152 34.7561 148.648 35.0873 149.387 34.9509C150.401 35.7449 152.798 36.3842 153.312 38.2447C153.844 39.0069 154.18 40.1503 153.943 40.9826C154.081 41.4386 154.022 41.093 154.06 41.5913C154.068 41.7065 154.049 42.0233 154.029 42.1423C153.965 42.5119 153.845 42.7999 153.674 43.1695C153.634 43.6956 153.68 43.6706 153.128 44.1065C153.028 45.1826 151.056 46.2453 150.256 46.4229L150.047 46.3625C147.414 48.101 141.933 44.7929 142.442 40.5401C142.592 39.2863 143.32 38.1641 144.038 36.9353C143.248 36.1865 142.695 36.0002 141.293 37.0706C137.599 39.8911 139.85 48.8431 147.803 49.5381C149.309 49.6697 150.69 49.613 152.127 48.8661C155.274 46.9711 157.111 44.1929 157.075 41.238C157.045 38.7189 155.706 35.5365 152.814 33.5186C151.096 32.3637 149.438 31.9913 147.872 31.7925C146.914 31.6706 146.349 31.7196 145.544 31.8012C144.592 31.8981 143.945 32.3465 143.11 32.2831C142.392 32.55 141.445 32.6978 140.641 32.8409C136.936 33.4985 134.264 32.7881 130.742 31.542C126.72 30.1193 122.279 28.7589 118.294 27.1356C113.844 25.3221 108.88 23.6057 104.584 21.6444C103.865 21.3161 103.948 21.2249 103.35 21.5925C104.379 22.5679 107.287 24.0741 108.644 24.893C112.67 27.3218 114.902 28.7004 119.213 30.7193C121.836 31.9481 124.457 32.8332 127.106 33.8498L132.354 35.4146C134.74 35.9292 137.464 36.5676 140.181 36.1058C141.554 35.8725 143.861 35.0086 145.445 35.0623V35.0652ZM128.36 59.9628C130.701 62.1813 130.122 61.974 132.686 62.9205C135.176 63.8393 138.769 63.6194 140.865 61.4066C142.839 59.3225 144.33 57.5148 144.027 54.198C143.341 46.6985 134.741 43.9365 131.446 47.4137C130.797 48.0991 130.048 49.5045 130.523 50.1948C131.145 51.1001 131.661 50.0556 133.278 49.2905C138.871 46.6409 145.004 55.9836 138.084 59.8831C136.653 60.6895 135.626 60.5071 134.4 60.4207C132.152 60.2623 129.912 57.8498 129.309 55.6898C128.858 54.0751 128.973 52.2482 129.258 50.6229L129.86 46.9077C129.942 44.6508 129.745 42.8709 129.152 40.4882C127.231 32.7593 126.391 35.6901 122.716 33.5388C122.622 34.2799 122.499 33.4697 123.35 35.166L125.575 40.037C125.944 41.1881 126.307 42.1548 126.506 43.3001C126.557 43.5938 126.603 43.7983 126.646 44.118L126.713 46.7186C126.528 50.2428 125.286 53.0479 126.444 56.5894C126.766 57.5724 127.397 59.0479 128.361 59.9618L128.36 59.9628Z" fill="#E49540"/>
<path fill-rule="evenodd" clip-rule="evenodd" d="M121.144 15.8285L121.477 16.1443C122.088 16.7242 122.822 17.4192 123.57 18.121C124.319 18.8227 125.083 19.5322 125.599 20.0285C126.058 20.4691 126.32 20.7418 126.424 20.9424C126.551 21.1325 126.68 21.3216 126.768 21.5261C126.857 21.7306 126.908 21.9485 127.033 22.0608C127.159 22.1731 127.36 22.1779 127.66 22.1088C127.961 22.0397 128.362 21.8957 128.86 21.5664C129.357 21.2371 129.952 20.7245 130.598 20.1139C131.245 19.5034 131.944 18.7968 132.603 18.0855C133.262 17.3741 133.881 16.6598 134.433 15.9936C134.985 15.3283 135.471 14.712 135.889 14.1053C136.307 13.4995 136.657 12.9015 136.851 12.5472C137.045 12.193 137.082 12.0816 137.083 11.9558C137.085 11.8301 137.051 11.689 137.01 11.5824C136.97 11.4759 136.923 11.4019 136.837 11.3693C136.751 11.3367 136.625 11.3453 136.48 11.3395C136.334 11.3338 136.168 11.3127 136.001 11.2925C136.295 11.0736 136.581 10.8355 136.877 10.6234C136.589 10.7914 136.295 11.0419 136.001 11.2915C135.342 10.7386 134.682 10.1866 133.394 9.00192C132.107 7.81824 130.191 6.0029 128.764 4.62914C127.338 3.25634 126.402 2.32513 125.541 1.66465C124.681 1.00513 123.897 0.616328 123.047 0.343688C122.595 0.197767 122.125 0.08544 121.674 0C122.364 0.9024 122.998 2.29633 123.46 4.13377C124.796 9.44737 124.01 15.2563 121.714 15.8093C121.522 15.8554 121.332 15.8602 121.143 15.8275L121.144 15.8285ZM126.466 21.2198C126.435 21.3293 126.35 21.433 126.253 21.575C126.218 21.625 126.183 21.6797 126.147 21.7373L126.185 21.6855C126.293 21.5434 126.411 21.3955 126.453 21.2707C126.459 21.2534 126.464 21.2371 126.467 21.2198H126.466ZM125.813 22.4717C125.805 22.5072 125.799 22.5427 125.794 22.5763L125.804 22.5149L125.812 22.4707L125.813 22.4717ZM126.019 23.2771C126.117 23.3357 126.265 23.3606 126.507 23.3338C126.946 23.2838 127.691 23.0592 128.497 22.559C129.304 22.0589 130.17 21.2842 131.27 20.2186C132.368 19.153 133.697 17.7965 134.692 16.6992C135.688 15.6019 136.348 14.7648 136.94 13.9286C137.533 13.0925 138.057 12.2592 138.28 11.7178C138.505 11.1763 138.43 10.9287 138.3 10.7386C138.17 10.5485 137.984 10.417 137.744 10.3891C137.707 10.3853 137.669 10.3834 137.631 10.3834L137.704 10.3949C137.84 10.4198 137.935 10.4506 138.006 10.488C138.077 10.5264 138.123 10.5696 138.169 10.6224C138.214 10.6752 138.258 10.7357 138.289 10.7952C138.321 10.8547 138.339 10.9143 138.352 10.9853C138.366 11.0563 138.375 11.1389 138.375 11.2042C138.375 11.2685 138.366 11.3155 138.349 11.3808C138.33 11.4461 138.305 11.5296 138.262 11.6266C138.22 11.7226 138.161 11.831 138.066 12.0067C137.972 12.1814 137.844 12.4224 137.693 12.6797C137.542 12.937 137.369 13.2106 137.213 13.4438C137.057 13.6771 136.92 13.8691 136.772 14.0659C136.625 14.2637 136.466 14.4663 136.293 14.6803C136.121 14.8944 135.934 15.119 135.767 15.3187C135.599 15.5184 135.449 15.6922 135.273 15.8947C135.096 16.0973 134.892 16.3296 134.536 16.7242C134.178 17.1187 133.67 17.6774 133.324 18.0538C132.978 18.431 132.794 18.6259 132.667 18.7613C132.54 18.8967 132.47 18.9715 132.392 19.0522C132.315 19.1328 132.232 19.2192 132.154 19.3008C132.076 19.3824 132.003 19.4573 131.941 19.5216C131.879 19.5859 131.828 19.6378 131.769 19.6983C131.709 19.7587 131.641 19.8278 131.567 19.9027C131.493 19.9776 131.413 20.0573 131.315 20.1552C131.217 20.2531 131.1 20.3664 130.989 20.4749C130.879 20.5824 130.774 20.6832 130.628 20.8195C130.482 20.9559 130.293 21.1286 130.087 21.313C129.88 21.4963 129.657 21.6912 129.444 21.8621C129.23 22.033 129.026 22.1808 128.821 22.3229C128.615 22.464 128.408 22.5984 128.202 22.7155C127.996 22.8317 127.792 22.9306 127.597 23.0122C127.403 23.0938 127.219 23.1581 127.04 23.2099C126.86 23.2608 126.685 23.2973 126.519 23.3126C126.353 23.328 126.201 23.3213 126.092 23.2983C126.065 23.2925 126.041 23.2858 126.019 23.2771Z" fill="#E49540"/>
<path fill-rule="evenodd" clip-rule="evenodd" d="M126.132 23.3224C128.765 25.8222 131.397 28.3211 132.887 29.7352C134.376 31.1483 134.722 31.4757 135.784 31.5774C136.845 31.6782 138.623 31.5525 139.867 31.4017C141.11 31.2501 141.818 31.0725 142.786 30.8853C143.754 30.699 144.981 30.5032 145.988 30.3966C146.996 30.2901 147.784 30.2728 148.637 30.3707C149.49 30.4686 150.406 30.6817 151.197 30.9669C151.988 31.2529 152.652 31.611 153.328 32.0785C154.004 32.5461 154.693 33.1221 155.364 33.7566C156.035 34.3921 156.688 35.0881 157.159 35.6891C157.631 36.2901 157.922 36.7979 158.158 37.4651C158.395 38.1323 158.575 38.9598 158.668 39.7777C158.761 40.5957 158.768 41.404 158.708 42.1384C158.649 42.8728 158.524 43.5342 158.303 44.2158C158.082 44.8974 157.764 45.5992 157.338 46.3144C156.911 47.0286 156.376 47.7573 155.836 48.3265C155.298 48.8958 154.753 49.3067 154.384 49.5746C154.014 49.8424 153.82 49.9662 154.009 50.0104C154.198 50.0546 154.772 50.019 155.343 49.8453C155.913 49.6715 156.48 49.3576 157.176 48.724C157.872 48.0913 158.698 47.139 159.679 46.1022C160.661 45.0654 161.8 43.9451 162.764 42.8997C163.729 41.8542 164.52 40.8837 165.08 40.132C165.64 39.3793 165.969 38.8456 166.178 38.3656C166.388 37.8856 166.477 37.4584 166.447 37.0763C166.416 36.6933 166.266 36.3544 165.642 35.6843C165.018 35.0152 163.92 34.0149 161.875 32.0958C159.829 30.1768 156.834 27.34 154.622 25.2443C152.41 23.1486 150.98 21.7941 150.26 21.1518C149.541 20.5096 149.534 20.5806 149.503 20.7582C149.472 20.9358 149.42 21.22 149.223 21.6558C149.026 22.0917 148.686 22.6792 148.217 23.3301C147.747 23.9809 147.15 24.6952 146.42 25.4958C145.692 26.2965 144.831 27.1845 144.038 27.8958C143.245 28.6091 142.519 29.1467 142.156 29.4155C141.793 29.6843 141.793 29.6843 142.181 29.2331C142.569 28.7819 143.346 27.8785 144.263 26.8379C145.181 25.7973 146.239 24.6174 146.923 23.7505C147.606 22.8837 147.914 22.3298 148.184 21.8584C148.454 21.387 148.685 20.9963 148.917 20.6065C146.897 18.6923 144.877 16.7781 143.161 15.1317C141.446 13.4853 140.035 12.1067 139.231 11.3761C138.427 10.6456 138.229 10.563 138.031 10.4805C138.223 10.6533 138.416 10.8261 138.355 11.2216C138.293 11.6171 137.977 12.2353 137.591 12.8689C137.205 13.5035 136.748 14.1534 135.885 15.1816C135.021 16.2088 133.751 17.6142 132.658 18.771C131.564 19.9278 130.65 20.8369 129.861 21.5137C129.073 22.1896 128.413 22.6321 127.907 22.8952C127.401 23.1582 127.051 23.2427 126.781 23.284C126.511 23.3253 126.321 23.3234 126.131 23.3214L126.132 23.3224Z" fill="#E49540"/>
<path fill-rule="evenodd" clip-rule="evenodd" d="M150.708 46.2728C148.926 44.6062 147.143 42.9396 146.208 41.9796C145.273 41.0196 145.184 40.7672 145.151 40.4436C145.12 40.1192 145.144 39.7237 145.266 39.2792C145.387 38.8347 145.605 38.3403 145.817 37.964C146.027 37.5867 146.229 37.3256 146.525 36.9896C146.821 36.6536 147.211 36.2417 147.405 36.0363C147.6 35.8309 147.6 35.8309 147.489 35.7464C147.378 35.6619 147.155 35.4929 146.952 35.3816C146.75 35.2712 146.566 35.2174 146.385 35.1704C146.203 35.1233 146.021 35.0821 145.865 35.0312C145.708 34.9803 145.579 34.9189 145.447 34.8574C145.901 34.7969 146.355 34.7365 146.791 34.6904C147.227 34.6433 147.643 34.6107 148.039 34.6241C148.435 34.6385 148.811 34.699 149.152 34.7777C149.492 34.8564 149.798 34.9525 150.111 35.0753C150.424 35.1982 150.744 35.348 151.043 35.5006C151.341 35.6542 151.62 35.8117 151.925 36.0161C152.229 36.2206 152.562 36.4712 152.887 36.7899C153.211 37.1086 153.529 37.4945 153.757 37.9093C153.984 38.324 154.123 38.7675 154.216 39.1611C154.31 39.5547 154.359 39.8993 154.389 40.3064C154.42 40.7134 154.432 41.1848 154.411 41.5534C154.388 41.9221 154.333 42.1889 154.256 42.4971C154.179 42.8062 154.082 43.1566 153.926 43.4801C153.77 43.8046 153.556 44.1022 153.38 44.347C153.204 44.5918 153.065 44.7829 152.849 44.996C152.633 45.2091 152.34 45.4453 152.012 45.6555C151.683 45.8657 151.319 46.0501 151.097 46.1489C150.873 46.2469 150.79 46.2593 150.708 46.2708V46.2728Z" fill="#E49540"/>
<path fill-rule="evenodd" clip-rule="evenodd" d="M118.293 7.2818C118.163 4.13492 118.756 1.38356 119.68 0.495563C120.712 -0.496117 122.134 0.858436 122.911 4.40084C123.967 9.22388 123.281 14.8543 121.354 15.0837C119.749 15.2757 118.459 11.2773 118.293 7.28084V7.2818Z" fill="#E49540"/>
<path fill-rule="evenodd" clip-rule="evenodd" d="M118.587 7.67031C118.482 5.16183 118.955 2.96726 119.693 2.25974C120.515 1.4687 121.65 2.54967 122.268 5.37399C123.111 9.21879 122.564 13.7087 121.027 13.8921C119.747 14.0447 118.719 10.8575 118.587 7.67031Z" fill="#E49540"/>
</svg>
