<svg width="40" height="40" viewBox="0 0 40 40" fill="none" xmlns="http://www.w3.org/2000/svg">
<circle cx="20" cy="20" r="20" fill="#836243"/>
<path d="M17.5 28.3327H22.5C26.6667 28.3327 28.3333 26.666 28.3333 22.4993V17.4993C28.3333 13.3327 26.6667 11.666 22.5 11.666H17.5C13.3333 11.666 11.6667 13.3327 11.6667 17.4993V22.4993C11.6667 26.666 13.3333 28.3327 17.5 28.3327Z" stroke="white" stroke-width="1.5" stroke-linecap="round" stroke-linejoin="round"/>
<path d="M24.1667 12.0332V20.3499C24.1667 21.9915 22.9917 22.6332 21.55 21.7665L20.45 21.1082C20.2 20.9582 19.8 20.9582 19.55 21.1082L18.45 21.7665C17.0083 22.6249 15.8333 21.9915 15.8333 20.3499V12.0332" stroke="white" stroke-width="1.5" stroke-linecap="round" stroke-linejoin="round"/>
<path d="M17.5 28.3327H22.5C26.6667 28.3327 28.3333 26.666 28.3333 22.4993V17.4993C28.3333 13.3327 26.6667 11.666 22.5 11.666H17.5C13.3333 11.666 11.6667 13.3327 11.6667 17.4993V22.4993C11.6667 26.666 13.3333 28.3327 17.5 28.3327Z" stroke="white" stroke-width="1.5" stroke-linecap="round" stroke-linejoin="round"/>
<path d="M24.1667 12.0332V20.3499C24.1667 21.9915 22.9917 22.6332 21.55 21.7665L20.45 21.1082C20.2 20.9582 19.8 20.9582 19.55 21.1082L18.45 21.7665C17.0083 22.6249 15.8333 21.9915 15.8333 20.3499V12.0332" stroke="white" stroke-width="1.5" stroke-linecap="round" stroke-linejoin="round"/>
</svg>
