<svg width="82" height="82" viewBox="0 0 82 82" fill="none" xmlns="http://www.w3.org/2000/svg">
<rect x="0.5" y="0.5" width="81" height="81" rx="40.5" stroke="url(#paint0_linear_1512_7040)"/>
<rect x="0.5" y="0.5" width="81" height="81" rx="40.5" stroke="url(#paint1_linear_1512_7040)"/>
<rect x="10.5" y="10.5" width="61" height="61" rx="30.5" stroke="url(#paint2_linear_1512_7040)"/>
<rect x="10.5" y="10.5" width="61" height="61" rx="30.5" stroke="url(#paint3_linear_1512_7040)"/>
<path fill-rule="evenodd" clip-rule="evenodd" d="M25.6992 28.6749C25.6992 27.9707 26.2701 27.3999 26.9742 27.3999H44.8242C45.5284 27.3999 46.0992 27.9707 46.0992 28.6749C46.0992 29.3791 45.5284 29.9499 44.8242 29.9499H44.3992V53.3249C44.3992 54.0291 43.8284 54.5999 43.1242 54.5999H40.5742C39.8701 54.5999 39.2992 54.0291 39.2992 53.3249V49.0749C39.2992 48.3707 38.7284 47.7999 38.0242 47.7999H33.7742C33.0701 47.7999 32.4992 48.3707 32.4992 49.0749V53.3249C32.4992 54.0291 31.9284 54.5999 31.2242 54.5999H26.9742C26.2701 54.5999 25.6992 54.0291 25.6992 53.3249C25.6992 52.6207 26.2701 52.0499 26.9742 52.0499H27.3992V29.9499H26.9742C26.2701 29.9499 25.6992 29.3791 25.6992 28.6749ZM30.7992 33.3499C30.7992 32.8805 31.1798 32.4999 31.6492 32.4999H33.3492C33.8187 32.4999 34.1992 32.8805 34.1992 33.3499V35.0499C34.1992 35.5193 33.8187 35.8999 33.3492 35.8999H31.6492C31.1798 35.8999 30.7992 35.5193 30.7992 35.0499V33.3499ZM31.6492 39.2999C31.1798 39.2999 30.7992 39.6805 30.7992 40.1499V41.8499C30.7992 42.3193 31.1798 42.6999 31.6492 42.6999H33.3492C33.8187 42.6999 34.1992 42.3193 34.1992 41.8499V40.1499C34.1992 39.6805 33.8187 39.2999 33.3492 39.2999H31.6492ZM37.5992 33.3499C37.5992 32.8805 37.9798 32.4999 38.4492 32.4999H40.1492C40.6187 32.4999 40.9992 32.8805 40.9992 33.3499V35.0499C40.9992 35.5193 40.6187 35.8999 40.1492 35.8999H38.4492C37.9798 35.8999 37.5992 35.5193 37.5992 35.0499V33.3499ZM38.4492 39.2999C37.9798 39.2999 37.5992 39.6805 37.5992 40.1499V41.8499C37.5992 42.3193 37.9798 42.6999 38.4492 42.6999H40.1492C40.6187 42.6999 40.9992 42.3193 40.9992 41.8499V40.1499C40.9992 39.6805 40.6187 39.2999 40.1492 39.2999H38.4492Z" fill="#946E4C"/>
<path fill-rule="evenodd" clip-rule="evenodd" d="M48.2242 34.1999C47.5201 34.1999 46.9492 34.7707 46.9492 35.4749V52.8999C46.9492 53.8388 47.7103 54.5999 48.6492 54.5999H55.0242C55.7284 54.5999 56.2992 54.0291 56.2992 53.3249C56.2992 52.6207 55.7284 52.0499 55.0242 52.0499H54.5992V36.7499H55.0242C55.7284 36.7499 56.2992 36.1791 56.2992 35.4749C56.2992 34.7707 55.7284 34.1999 55.0242 34.1999H48.2242ZM49.0742 40.1499C49.0742 39.6805 49.4548 39.2999 49.9242 39.2999H51.6242C52.0937 39.2999 52.4742 39.6805 52.4742 40.1499V41.8499C52.4742 42.3193 52.0937 42.6999 51.6242 42.6999H49.9242C49.4548 42.6999 49.0742 42.3193 49.0742 41.8499V40.1499ZM49.9242 46.0999C49.4548 46.0999 49.0742 46.4805 49.0742 46.9499V48.6499C49.0742 49.1193 49.4548 49.4999 49.9242 49.4999H51.6242C52.0937 49.4999 52.4742 49.1193 52.4742 48.6499V46.9499C52.4742 46.4805 52.0937 46.0999 51.6242 46.0999H49.9242Z" fill="#946E4C"/>
<defs>
<linearGradient id="paint0_linear_1512_7040" x1="6.75" y1="86.5" x2="85.75" y2="-5.5" gradientUnits="userSpaceOnUse">
<stop stop-color="#A685FA"/>
<stop offset="0.323723" stop-color="#A685FA" stop-opacity="0"/>
</linearGradient>
<linearGradient id="paint1_linear_1512_7040" x1="81.75" y1="-10.5" x2="6.75" y2="82" gradientUnits="userSpaceOnUse">
<stop stop-color="#A47A54"/>
<stop offset="0.576615" stop-color="#A47A54"/>
</linearGradient>
<linearGradient id="paint2_linear_1512_7040" x1="3.25" y1="13.5" x2="71.75" y2="72" gradientUnits="userSpaceOnUse">
<stop stop-color="#A685FA"/>
<stop offset="0.323723" stop-color="#A685FA" stop-opacity="0"/>
</linearGradient>
<linearGradient id="paint3_linear_1512_7040" x1="84.25" y1="86" x2="12.25" y2="35" gradientUnits="userSpaceOnUse">
<stop stop-color="#BE7D35"/>
<stop offset="0.474" stop-color="#C7A987"/>
</linearGradient>
</defs>
</svg>
