<svg width="544" height="610" viewBox="0 0 544 610" fill="none" xmlns="http://www.w3.org/2000/svg">
<g filter="url(#filter0_d_2249_49940)">
<rect x="7" y="3" width="530" height="596.25" rx="12.3634" fill="#F1EBE5" shape-rendering="crispEdges"/>
<rect x="5.96971" y="1.96971" width="532.061" height="598.311" rx="13.3937" stroke="#E3D6CA" stroke-width="2.06057" shape-rendering="crispEdges"/>
<path d="M42.8535 67.6055V37.9333H47.325L57.5866 58.9511L67.8483 37.9333H72.3197V67.6055H67.6834V48.5864L58.5757 67.6055H56.5976L47.5104 48.5864V67.6055H42.8535ZM84.3315 68.2236C82.7243 68.2236 81.3643 67.9214 80.2516 67.317C79.1389 66.6988 78.2941 65.8815 77.7171 64.8649C77.1539 63.8484 76.8723 62.7288 76.8723 61.5062C76.8723 60.4347 77.0509 59.4731 77.408 58.6214C77.7652 57.7559 78.3147 57.0141 79.0565 56.396C79.7983 55.7641 80.7599 55.2489 81.9413 54.8505C82.8342 54.5621 83.8782 54.3011 85.0733 54.0675C86.2822 53.834 87.5872 53.6211 88.9884 53.4287C90.4033 53.2227 91.8801 53.0029 93.4186 52.7694L91.6466 53.779C91.6603 52.2405 91.3169 51.1072 90.6163 50.3791C89.9157 49.651 88.7343 49.287 87.0721 49.287C86.0693 49.287 85.1008 49.5205 84.1667 49.9876C83.2326 50.4547 82.5801 51.2583 82.2091 52.3985L77.6759 50.9767C78.2254 49.0947 79.2694 47.5836 80.808 46.4434C82.3603 45.3032 84.4483 44.7331 87.0721 44.7331C89.0502 44.7331 90.788 45.056 92.2853 45.7016C93.7964 46.3473 94.916 47.405 95.6441 48.8749C96.0424 49.6579 96.2828 50.4615 96.3653 51.2858C96.4477 52.0962 96.4889 52.9823 96.4889 53.9439V67.6055H92.1411V62.7837L92.8623 63.5668C91.8595 65.174 90.685 66.3554 89.3387 67.1109C88.0062 67.8527 86.3372 68.2236 84.3315 68.2236ZM85.3206 64.2673C86.4471 64.2673 87.4087 64.0682 88.2054 63.6698C89.0022 63.2714 89.6341 62.7837 90.1011 62.2068C90.5819 61.6298 90.9048 61.0872 91.0696 60.5789C91.3306 59.947 91.4748 59.2258 91.5023 58.4153C91.5435 57.5911 91.5641 56.9248 91.5641 56.4166L93.089 56.8699C91.5916 57.1034 90.3072 57.3095 89.2357 57.4881C88.1642 57.6667 87.2438 57.8384 86.4745 58.0032C85.7052 58.1543 85.0253 58.326 84.4346 58.5184C83.8576 58.7244 83.3699 58.9648 82.9716 59.2396C82.5732 59.5143 82.2641 59.8303 82.0443 60.1874C81.8382 60.5446 81.7352 60.9636 81.7352 61.4444C81.7352 61.9938 81.8726 62.4815 82.1473 62.9074C82.4221 63.3195 82.8205 63.6492 83.3425 63.8964C83.8782 64.1437 84.5376 64.2673 85.3206 64.2673ZM103.532 77.4962L107.818 65.7303L107.9 69.1921L98.195 45.3513H103.367L110.249 62.9898H108.931L115.627 45.3513H120.593L108.189 77.4962H103.532Z" fill="#333333"/>
<g opacity="0.7">
<path d="M66.9242 150.822C67.8171 150.822 68.6139 151.008 69.3145 151.378C70.0288 151.749 70.5851 152.299 70.9835 153.027C71.3956 153.755 71.6017 154.634 71.6017 155.664V162.361H69.2732V156.015C69.2732 154.998 69.0191 154.222 68.5108 153.686C68.0026 153.137 67.3088 152.862 66.4297 152.862C65.5505 152.862 64.8499 153.137 64.3279 153.686C63.8196 154.222 63.5655 154.998 63.5655 156.015V162.361H61.237V156.015C61.237 154.998 60.9829 154.222 60.4746 153.686C59.9663 153.137 59.2726 152.862 58.3934 152.862C57.5143 152.862 56.8137 153.137 56.2917 153.686C55.7834 154.222 55.5292 154.998 55.5292 156.015V162.361H53.1802V151.008H55.5292V152.306C55.9139 151.839 56.4016 151.475 56.9922 151.214C57.5829 150.953 58.2149 150.822 58.888 150.822C59.7946 150.822 60.6051 151.014 61.3194 151.399C62.0338 151.784 62.5833 152.34 62.9679 153.068C63.3113 152.381 63.8471 151.839 64.5751 151.44C65.3032 151.028 66.0862 150.822 66.9242 150.822Z" fill="#333333"/>
<path d="M132.71 152.924V159.209C132.71 159.635 132.806 159.944 132.998 160.136C133.204 160.314 133.548 160.404 134.029 160.404H135.471V162.361H133.616C132.559 162.361 131.748 162.114 131.185 161.62C130.622 161.125 130.34 160.321 130.34 159.209V152.924H129.001V151.008H130.34V148.185H132.71V151.008H135.471V152.924H132.71Z" fill="#333333"/>
<path d="M210.005 151.008L206.481 162.361H204.008L201.721 153.975L199.434 162.361H196.961L193.417 151.008H195.807L198.177 160.136L200.588 151.008H203.04L205.348 160.095L207.697 151.008H210.005Z" fill="#333333"/>
<path d="M272.286 152.924V159.209C272.286 159.635 272.382 159.944 272.574 160.136C272.781 160.314 273.124 160.404 273.605 160.404H275.047V162.361H273.193C272.135 162.361 271.324 162.114 270.761 161.62C270.198 161.125 269.916 160.321 269.916 159.209V152.924H268.577V151.008H269.916V148.185H272.286V151.008H275.047V152.924H272.286Z" fill="#333333"/>
<path d="M344.592 152.924H342.491V162.361H340.121V152.924H338.782V151.008H340.121V150.204C340.121 148.899 340.464 147.951 341.151 147.36C341.852 146.756 342.944 146.454 344.428 146.454V148.411C343.713 148.411 343.212 148.549 342.923 148.823C342.635 149.084 342.491 149.545 342.491 150.204V151.008H344.592V152.924Z" fill="#333333"/>
<path d="M411.243 162.547C410.35 162.547 409.546 162.389 408.832 162.073C408.131 161.743 407.575 161.304 407.163 160.754C406.751 160.191 406.531 159.566 406.503 158.879H408.935C408.976 159.36 409.203 159.765 409.615 160.095C410.041 160.411 410.57 160.569 411.202 160.569C411.861 160.569 412.369 160.445 412.726 160.198C413.097 159.937 413.283 159.607 413.283 159.209C413.283 158.783 413.077 158.467 412.665 158.261C412.266 158.055 411.627 157.828 410.748 157.581C409.897 157.347 409.203 157.121 408.667 156.901C408.131 156.681 407.664 156.344 407.266 155.891C406.881 155.438 406.689 154.84 406.689 154.098C406.689 153.494 406.867 152.945 407.225 152.45C407.582 151.942 408.09 151.543 408.749 151.255C409.423 150.966 410.192 150.822 411.057 150.822C412.349 150.822 413.386 151.152 414.169 151.811C414.966 152.457 415.391 153.343 415.446 154.469H413.097C413.056 153.961 412.85 153.556 412.479 153.254C412.108 152.951 411.607 152.8 410.975 152.8C410.357 152.8 409.883 152.917 409.553 153.151C409.223 153.384 409.059 153.693 409.059 154.078C409.059 154.38 409.168 154.634 409.388 154.84C409.608 155.046 409.876 155.211 410.192 155.335C410.508 155.445 410.975 155.589 411.593 155.768C412.417 155.987 413.09 156.214 413.612 156.447C414.148 156.667 414.608 156.997 414.993 157.437C415.378 157.876 415.577 158.46 415.591 159.188C415.591 159.834 415.412 160.411 415.055 160.919C414.698 161.427 414.189 161.826 413.53 162.114C412.884 162.403 412.122 162.547 411.243 162.547Z" fill="#333333"/>
<path d="M481.03 162.547C480.137 162.547 479.333 162.389 478.619 162.073C477.918 161.743 477.362 161.304 476.95 160.754C476.538 160.191 476.318 159.566 476.291 158.879H478.722C478.763 159.36 478.99 159.765 479.402 160.095C479.828 160.411 480.357 160.569 480.989 160.569C481.648 160.569 482.156 160.445 482.513 160.198C482.884 159.937 483.07 159.607 483.07 159.209C483.07 158.783 482.864 158.467 482.452 158.261C482.053 158.055 481.414 157.828 480.535 157.581C479.684 157.347 478.99 157.121 478.454 156.901C477.918 156.681 477.451 156.344 477.053 155.891C476.668 155.438 476.476 154.84 476.476 154.098C476.476 153.494 476.655 152.945 477.012 152.45C477.369 151.942 477.877 151.543 478.537 151.255C479.21 150.966 479.979 150.822 480.844 150.822C482.136 150.822 483.173 151.152 483.956 151.811C484.753 152.457 485.178 153.343 485.233 154.469H482.884C482.843 153.961 482.637 153.556 482.266 153.254C481.895 152.951 481.394 152.8 480.762 152.8C480.144 152.8 479.67 152.917 479.34 153.151C479.01 153.384 478.846 153.693 478.846 154.078C478.846 154.38 478.956 154.634 479.175 154.84C479.395 155.046 479.663 155.211 479.979 155.335C480.295 155.445 480.762 155.589 481.38 155.768C482.204 155.987 482.877 156.214 483.4 156.447C483.935 156.667 484.395 156.997 484.78 157.437C485.165 157.876 485.364 158.46 485.378 159.188C485.378 159.834 485.199 160.411 484.842 160.919C484.485 161.427 483.976 161.826 483.317 162.114C482.671 162.403 481.909 162.547 481.03 162.547Z" fill="#333333"/>
</g>
<path d="M47.3867 222.745C47.3867 220.368 47.7851 218.514 48.5819 217.181C49.3924 215.835 50.7798 215.162 52.7442 215.162C54.7086 215.162 56.0892 215.835 56.886 217.181C57.6965 218.514 58.1017 220.368 58.1017 222.745C58.1017 225.149 57.6965 227.031 56.886 228.391C56.0892 229.737 54.7086 230.41 52.7442 230.41C50.7798 230.41 49.3924 229.737 48.5819 228.391C47.7851 227.031 47.3867 225.149 47.3867 222.745ZM55.7939 222.745C55.7939 221.632 55.7183 220.691 55.5672 219.922C55.4298 219.152 55.1413 218.527 54.7018 218.047C54.2622 217.552 53.6097 217.305 52.7442 217.305C51.8788 217.305 51.2263 217.552 50.7867 218.047C50.3471 218.527 50.0517 219.152 49.9006 219.922C49.7633 220.691 49.6946 221.632 49.6946 222.745C49.6946 223.899 49.7633 224.867 49.9006 225.65C50.038 226.433 50.3265 227.065 50.7661 227.546C51.2194 228.027 51.8788 228.267 52.7442 228.267C53.6097 228.267 54.2622 228.027 54.7018 227.546C55.1551 227.065 55.4504 226.433 55.5878 225.65C55.7252 224.867 55.7939 223.899 55.7939 222.745ZM60.2782 217.573V215.43H64.5642V230.451H62.1945V217.573H60.2782Z" fill="#333333"/>
<rect x="107.01" y="197.148" width="45.3325" height="51.6057" rx="22.6663" fill="#624932"/>
<path d="M117.912 222.745C117.912 220.368 118.311 218.514 119.107 217.181C119.918 215.835 121.305 215.162 123.27 215.162C125.234 215.162 126.615 215.835 127.411 217.181C128.222 218.514 128.627 220.368 128.627 222.745C128.627 225.149 128.222 227.031 127.411 228.391C126.615 229.737 125.234 230.41 123.27 230.41C121.305 230.41 119.918 229.737 119.107 228.391C118.311 227.031 117.912 225.149 117.912 222.745ZM126.319 222.745C126.319 221.632 126.244 220.691 126.093 219.922C125.955 219.152 125.667 218.527 125.227 218.047C124.788 217.552 124.135 217.305 123.27 217.305C122.404 217.305 121.752 217.552 121.312 218.047C120.872 218.527 120.577 219.152 120.426 219.922C120.289 220.691 120.22 221.632 120.22 222.745C120.22 223.899 120.289 224.867 120.426 225.65C120.563 226.433 120.852 227.065 121.291 227.546C121.745 228.027 122.404 228.267 123.27 228.267C124.135 228.267 124.788 228.027 125.227 227.546C125.68 227.065 125.976 226.433 126.113 225.65C126.251 224.867 126.319 223.899 126.319 222.745ZM132.411 227.257C133.73 226.117 134.767 225.183 135.522 224.455C136.292 223.713 136.93 222.944 137.439 222.147C137.947 221.35 138.201 220.554 138.201 219.757C138.201 218.933 138.002 218.287 137.603 217.82C137.219 217.353 136.608 217.119 135.77 217.119C134.959 217.119 134.327 217.38 133.874 217.902C133.434 218.411 133.201 219.097 133.173 219.963H130.907C130.948 218.397 131.415 217.202 132.308 216.377C133.214 215.54 134.361 215.121 135.749 215.121C137.246 215.121 138.414 215.533 139.252 216.357C140.104 217.181 140.529 218.28 140.529 219.654C140.529 220.643 140.275 221.598 139.767 222.518C139.273 223.425 138.675 224.242 137.974 224.97C137.287 225.684 136.408 226.515 135.337 227.463L134.41 228.288H140.942V230.245H130.927V228.535L132.411 227.257Z" fill="white"/>
<path d="M189.711 222.745C189.711 220.368 190.109 218.514 190.906 217.181C191.717 215.835 193.104 215.162 195.068 215.162C197.033 215.162 198.413 215.835 199.21 217.181C200.021 218.514 200.426 220.368 200.426 222.745C200.426 225.149 200.021 227.031 199.21 228.391C198.413 229.737 197.033 230.41 195.068 230.41C193.104 230.41 191.717 229.737 190.906 228.391C190.109 227.031 189.711 225.149 189.711 222.745ZM198.118 222.745C198.118 221.632 198.043 220.691 197.891 219.922C197.754 219.152 197.466 218.527 197.026 218.047C196.586 217.552 195.934 217.305 195.068 217.305C194.203 217.305 193.55 217.552 193.111 218.047C192.671 218.527 192.376 219.152 192.225 219.922C192.087 220.691 192.019 221.632 192.019 222.745C192.019 223.899 192.087 224.867 192.225 225.65C192.362 226.433 192.651 227.065 193.09 227.546C193.544 228.027 194.203 228.267 195.068 228.267C195.934 228.267 196.586 228.027 197.026 227.546C197.479 227.065 197.775 226.433 197.912 225.65C198.049 224.867 198.118 223.899 198.118 222.745ZM202.87 219.139C202.953 217.861 203.44 216.865 204.333 216.151C205.24 215.436 206.394 215.079 207.795 215.079C208.757 215.079 209.588 215.251 210.288 215.594C210.989 215.938 211.518 216.405 211.875 216.996C212.232 217.586 212.411 218.253 212.411 218.994C212.411 219.846 212.184 220.574 211.731 221.179C211.277 221.783 210.735 222.188 210.103 222.394V222.477C210.913 222.724 211.545 223.177 211.999 223.837C212.452 224.482 212.679 225.313 212.679 226.33C212.679 227.141 212.493 227.862 212.122 228.494C211.751 229.126 211.202 229.627 210.474 229.998C209.746 230.355 208.873 230.534 207.857 230.534C206.373 230.534 205.151 230.156 204.189 229.4C203.241 228.631 202.733 227.532 202.664 226.103H204.931C204.986 226.831 205.267 227.429 205.776 227.896C206.284 228.349 206.971 228.576 207.836 228.576C208.674 228.576 209.32 228.349 209.773 227.896C210.227 227.429 210.453 226.831 210.453 226.103C210.453 225.142 210.144 224.462 209.526 224.063C208.921 223.651 207.987 223.445 206.724 223.445H206.188V221.508H206.744C207.857 221.495 208.702 221.309 209.279 220.952C209.869 220.595 210.165 220.032 210.165 219.262C210.165 218.603 209.952 218.081 209.526 217.696C209.1 217.298 208.496 217.099 207.713 217.099C206.943 217.099 206.346 217.298 205.92 217.696C205.494 218.081 205.24 218.562 205.157 219.139H202.87Z" fill="#333333"/>
<path d="M260.873 222.745C260.873 220.368 261.271 218.514 262.068 217.181C262.879 215.835 264.266 215.162 266.231 215.162C268.195 215.162 269.576 215.835 270.372 217.181C271.183 218.514 271.588 220.368 271.588 222.745C271.588 225.149 271.183 227.031 270.372 228.391C269.576 229.737 268.195 230.41 266.231 230.41C264.266 230.41 262.879 229.737 262.068 228.391C261.271 227.031 260.873 225.149 260.873 222.745ZM269.28 222.745C269.28 221.632 269.205 220.691 269.054 219.922C268.916 219.152 268.628 218.527 268.188 218.047C267.748 217.552 267.096 217.305 266.231 217.305C265.365 217.305 264.713 217.552 264.273 218.047C263.833 218.527 263.538 219.152 263.387 219.922C263.25 220.691 263.181 221.632 263.181 222.745C263.181 223.899 263.25 224.867 263.387 225.65C263.524 226.433 263.813 227.065 264.252 227.546C264.706 228.027 265.365 228.267 266.231 228.267C267.096 228.267 267.748 228.027 268.188 227.546C268.641 227.065 268.937 226.433 269.074 225.65C269.212 224.867 269.28 223.899 269.28 222.745ZM273.785 227.319V225.547L280.709 215.615H283.552V225.279H285.469V227.319H283.552V230.451H281.244V227.319H273.785ZM281.347 218.005L276.484 225.279H281.347V218.005Z" fill="#333333"/>
<rect x="320.496" y="197.148" width="45.3325" height="51.6057" rx="22.6663" fill="#624932"/>
<path d="M330.898 222.745C330.898 220.368 331.297 218.514 332.094 217.181C332.904 215.835 334.292 215.162 336.256 215.162C338.22 215.162 339.601 215.835 340.398 217.181C341.208 218.514 341.613 220.368 341.613 222.745C341.613 225.149 341.208 227.031 340.398 228.391C339.601 229.737 338.22 230.41 336.256 230.41C334.292 230.41 332.904 229.737 332.094 228.391C331.297 227.031 330.898 225.149 330.898 222.745ZM339.306 222.745C339.306 221.632 339.23 220.691 339.079 219.922C338.942 219.152 338.653 218.527 338.213 218.047C337.774 217.552 337.121 217.305 336.256 217.305C335.39 217.305 334.738 217.552 334.298 218.047C333.859 218.527 333.563 219.152 333.412 219.922C333.275 220.691 333.206 221.632 333.206 222.745C333.206 223.899 333.275 224.867 333.412 225.65C333.55 226.433 333.838 227.065 334.278 227.546C334.731 228.027 335.39 228.267 336.256 228.267C337.121 228.267 337.774 228.027 338.213 227.546C338.667 227.065 338.962 226.433 339.1 225.65C339.237 224.867 339.306 223.899 339.306 222.745ZM353.784 217.449H346.881V221.55C347.169 221.165 347.595 220.842 348.158 220.581C348.735 220.32 349.347 220.19 349.992 220.19C351.146 220.19 352.08 220.437 352.795 220.931C353.523 221.426 354.038 222.051 354.34 222.806C354.656 223.562 354.814 224.359 354.814 225.197C354.814 226.213 354.615 227.12 354.216 227.917C353.832 228.7 353.248 229.318 352.465 229.771C351.696 230.225 350.748 230.451 349.621 230.451C348.124 230.451 346.922 230.08 346.015 229.338C345.109 228.597 344.566 227.614 344.387 226.392H346.675C346.826 227.037 347.162 227.553 347.684 227.937C348.206 228.308 348.859 228.494 349.642 228.494C350.617 228.494 351.345 228.198 351.826 227.608C352.321 227.017 352.568 226.234 352.568 225.259C352.568 224.269 352.321 223.514 351.826 222.992C351.332 222.456 350.604 222.188 349.642 222.188C348.969 222.188 348.399 222.36 347.932 222.703C347.478 223.033 347.149 223.486 346.943 224.063H344.717V215.388H353.784V217.449Z" fill="white"/>
<rect x="391.658" y="197.148" width="45.3325" height="51.6057" rx="22.6663" fill="#624932"/>
<path d="M402.061 222.745C402.061 220.368 402.459 218.514 403.256 217.181C404.066 215.835 405.454 215.162 407.418 215.162C409.382 215.162 410.763 215.835 411.56 217.181C412.37 218.514 412.776 220.368 412.776 222.745C412.776 225.149 412.37 227.031 411.56 228.391C410.763 229.737 409.382 230.41 407.418 230.41C405.454 230.41 404.066 229.737 403.256 228.391C402.459 227.031 402.061 225.149 402.061 222.745ZM410.468 222.745C410.468 221.632 410.392 220.691 410.241 219.922C410.104 219.152 409.815 218.527 409.376 218.047C408.936 217.552 408.283 217.305 407.418 217.305C406.553 217.305 405.9 217.552 405.461 218.047C405.021 218.527 404.726 219.152 404.574 219.922C404.437 220.691 404.368 221.632 404.368 222.745C404.368 223.899 404.437 224.867 404.574 225.65C404.712 226.433 405 227.065 405.44 227.546C405.893 228.027 406.553 228.267 407.418 228.267C408.283 228.267 408.936 228.027 409.376 227.546C409.829 227.065 410.124 226.433 410.262 225.65C410.399 224.867 410.468 223.899 410.468 222.745ZM423.339 218.912C423.187 218.28 422.913 217.806 422.514 217.49C422.116 217.174 421.56 217.016 420.845 217.016C419.76 217.016 418.95 217.435 418.414 218.273C417.878 219.097 417.596 220.471 417.569 222.394C417.926 221.79 418.448 221.323 419.135 220.993C419.822 220.663 420.564 220.499 421.36 220.499C422.267 220.499 423.064 220.698 423.751 221.096C424.451 221.481 424.994 222.044 425.378 222.786C425.777 223.528 425.976 224.414 425.976 225.444C425.976 226.406 425.784 227.264 425.399 228.02C425.028 228.775 424.472 229.373 423.73 229.812C422.988 230.238 422.095 230.451 421.051 230.451C419.636 230.451 418.524 230.142 417.713 229.524C416.916 228.892 416.353 228.006 416.023 226.866C415.708 225.726 415.55 224.304 415.55 222.6C415.55 217.573 417.322 215.059 420.866 215.059C422.24 215.059 423.318 215.43 424.101 216.171C424.898 216.913 425.365 217.827 425.502 218.912H423.339ZM420.845 222.477C420.007 222.477 419.293 222.731 418.702 223.239C418.125 223.734 417.837 224.455 417.837 225.403C417.837 226.351 418.105 227.106 418.64 227.669C419.19 228.219 419.952 228.494 420.928 228.494C421.793 228.494 422.473 228.226 422.968 227.69C423.476 227.154 423.73 226.44 423.73 225.547C423.73 224.613 423.483 223.871 422.988 223.322C422.507 222.758 421.793 222.477 420.845 222.477Z" fill="white"/>
<rect x="462.818" y="197.148" width="45.3325" height="51.6057" rx="22.6663" fill="#624932"/>
<path d="M474.221 222.745C474.221 220.368 474.619 218.514 475.416 217.181C476.226 215.835 477.614 215.162 479.578 215.162C481.543 215.162 482.923 215.835 483.72 217.181C484.53 218.514 484.936 220.368 484.936 222.745C484.936 225.149 484.53 227.031 483.72 228.391C482.923 229.737 481.543 230.41 479.578 230.41C477.614 230.41 476.226 229.737 475.416 228.391C474.619 227.031 474.221 225.149 474.221 222.745ZM482.628 222.745C482.628 221.632 482.552 220.691 482.401 219.922C482.264 219.152 481.975 218.527 481.536 218.047C481.096 217.552 480.444 217.305 479.578 217.305C478.713 217.305 478.06 217.552 477.621 218.047C477.181 218.527 476.886 219.152 476.735 219.922C476.597 220.691 476.529 221.632 476.529 222.745C476.529 223.899 476.597 224.867 476.735 225.65C476.872 226.433 477.16 227.065 477.6 227.546C478.053 228.027 478.713 228.267 479.578 228.267C480.444 228.267 481.096 228.027 481.536 227.546C481.989 227.065 482.284 226.433 482.422 225.65C482.559 224.867 482.628 223.899 482.628 222.745ZM496.941 217.243L491.213 230.451H488.843L494.633 217.49H487.009V215.491H496.941V217.243Z" fill="white"/>
<path d="M47.3867 290.834C47.3867 288.458 47.7851 286.603 48.5819 285.271C49.3924 283.925 50.7798 283.252 52.7442 283.252C54.7086 283.252 56.0892 283.925 56.886 285.271C57.6965 286.603 58.1017 288.458 58.1017 290.834C58.1017 293.238 57.6965 295.12 56.886 296.48C56.0892 297.827 54.7086 298.5 52.7442 298.5C50.7798 298.5 49.3924 297.827 48.5819 296.48C47.7851 295.12 47.3867 293.238 47.3867 290.834ZM55.7939 290.834C55.7939 289.722 55.7183 288.781 55.5672 288.012C55.4298 287.242 55.1413 286.617 54.7018 286.136C54.2622 285.642 53.6097 285.395 52.7442 285.395C51.8788 285.395 51.2263 285.642 50.7867 286.136C50.3471 286.617 50.0517 287.242 49.9006 288.012C49.7633 288.781 49.6946 289.722 49.6946 290.834C49.6946 291.988 49.7633 292.957 49.9006 293.74C50.038 294.523 50.3265 295.155 50.7661 295.636C51.2194 296.116 51.8788 296.357 52.7442 296.357C53.6097 296.357 54.2622 296.116 54.7018 295.636C55.1551 295.155 55.4504 294.523 55.5878 293.74C55.7252 292.957 55.7939 291.988 55.7939 290.834ZM63.1218 290.69C61.6931 289.976 60.9788 288.849 60.9788 287.311C60.9788 286.569 61.1642 285.889 61.5351 285.271C61.906 284.653 62.4624 284.165 63.2042 283.808C63.946 283.437 64.8526 283.252 65.9241 283.252C66.9819 283.252 67.8817 283.437 68.6235 283.808C69.379 284.165 69.9422 284.653 70.3131 285.271C70.6841 285.889 70.8695 286.569 70.8695 287.311C70.8695 288.08 70.6703 288.76 70.2719 289.351C69.8873 289.928 69.3722 290.374 68.7265 290.69C69.5095 290.979 70.1277 291.453 70.581 292.112C71.0343 292.758 71.261 293.52 71.261 294.399C71.261 295.292 71.0343 296.082 70.581 296.769C70.1277 297.456 69.4958 297.985 68.6853 298.356C67.8748 298.726 66.9544 298.912 65.9241 298.912C64.8939 298.912 63.9735 298.726 63.163 298.356C62.3662 297.985 61.7412 297.456 61.2879 296.769C60.8345 296.082 60.6079 295.292 60.6079 294.399C60.6079 293.506 60.8345 292.737 61.2879 292.091C61.7412 291.446 62.3525 290.979 63.1218 290.69ZM68.6235 287.599C68.6235 286.83 68.3831 286.239 67.9023 285.827C67.4215 285.415 66.7621 285.209 65.9241 285.209C65.0999 285.209 64.4474 285.415 63.9666 285.827C63.4858 286.239 63.2454 286.837 63.2454 287.62C63.2454 288.307 63.4927 288.87 63.9872 289.31C64.4955 289.736 65.1411 289.948 65.9241 289.948C66.7072 289.948 67.3528 289.729 67.8611 289.289C68.3693 288.849 68.6235 288.286 68.6235 287.599ZM65.9241 291.721C65.0175 291.721 64.2757 291.947 63.6987 292.401C63.1355 292.84 62.8539 293.479 62.8539 294.317C62.8539 295.1 63.1286 295.739 63.6781 296.233C64.2276 296.714 64.9763 296.954 65.9241 296.954C66.8583 296.954 67.5932 296.707 68.1289 296.213C68.6784 295.718 68.9532 295.086 68.9532 294.317C68.9532 293.493 68.6716 292.854 68.1083 292.401C67.5589 291.947 66.8308 291.721 65.9241 291.721Z" fill="#333333"/>
<path d="M118.549 290.834C118.549 288.458 118.947 286.603 119.744 285.271C120.554 283.925 121.942 283.252 123.906 283.252C125.871 283.252 127.251 283.925 128.048 285.271C128.859 286.603 129.264 288.458 129.264 290.834C129.264 293.238 128.859 295.12 128.048 296.48C127.251 297.827 125.871 298.5 123.906 298.5C121.942 298.5 120.554 297.827 119.744 296.48C118.947 295.12 118.549 293.238 118.549 290.834ZM126.956 290.834C126.956 289.722 126.88 288.781 126.729 288.012C126.592 287.242 126.303 286.617 125.864 286.136C125.424 285.642 124.772 285.395 123.906 285.395C123.041 285.395 122.388 285.642 121.949 286.136C121.509 286.617 121.214 287.242 121.063 288.012C120.925 288.781 120.857 289.722 120.857 290.834C120.857 291.988 120.925 292.957 121.063 293.74C121.2 294.523 121.489 295.155 121.928 295.636C122.382 296.116 123.041 296.357 123.906 296.357C124.772 296.357 125.424 296.116 125.864 295.636C126.317 295.155 126.613 294.523 126.75 293.74C126.887 292.957 126.956 291.988 126.956 290.834ZM134.675 294.461C134.813 295.148 135.108 295.67 135.561 296.027C136.015 296.384 136.626 296.563 137.395 296.563C138.371 296.563 139.085 296.178 139.538 295.409C139.992 294.64 140.218 293.328 140.218 291.473C139.889 291.94 139.422 292.304 138.817 292.565C138.226 292.813 137.581 292.936 136.88 292.936C135.987 292.936 135.177 292.758 134.449 292.401C133.721 292.03 133.144 291.487 132.718 290.773C132.306 290.045 132.1 289.165 132.1 288.135C132.1 286.624 132.539 285.422 133.418 284.529C134.311 283.622 135.534 283.169 137.086 283.169C138.954 283.169 140.28 283.794 141.063 285.044C141.86 286.281 142.258 288.183 142.258 290.752C142.258 292.524 142.107 293.973 141.805 295.1C141.516 296.226 141.008 297.078 140.28 297.655C139.552 298.232 138.542 298.52 137.251 298.52C135.781 298.52 134.648 298.136 133.851 297.366C133.054 296.597 132.608 295.629 132.512 294.461H134.675ZM137.292 290.958C138.117 290.958 138.762 290.704 139.229 290.196C139.71 289.674 139.95 288.987 139.95 288.135C139.95 287.187 139.696 286.452 139.188 285.93C138.693 285.395 138.014 285.127 137.148 285.127C136.283 285.127 135.596 285.401 135.087 285.951C134.593 286.487 134.346 287.194 134.346 288.073C134.346 288.911 134.586 289.605 135.067 290.154C135.561 290.69 136.303 290.958 137.292 290.958Z" fill="#333333"/>
<path d="M189.402 285.662V283.519H193.688V298.541H191.318V285.662H189.402ZM196.915 290.834C196.915 288.458 197.313 286.603 198.11 285.271C198.921 283.925 200.308 283.252 202.272 283.252C204.237 283.252 205.617 283.925 206.414 285.271C207.225 286.603 207.63 288.458 207.63 290.834C207.63 293.238 207.225 295.12 206.414 296.48C205.617 297.827 204.237 298.5 202.272 298.5C200.308 298.5 198.921 297.827 198.11 296.48C197.313 295.12 196.915 293.238 196.915 290.834ZM205.322 290.834C205.322 289.722 205.246 288.781 205.095 288.012C204.958 287.242 204.67 286.617 204.23 286.136C203.79 285.642 203.138 285.395 202.272 285.395C201.407 285.395 200.754 285.642 200.315 286.136C199.875 286.617 199.58 287.242 199.429 288.012C199.291 288.781 199.223 289.722 199.223 290.834C199.223 291.988 199.291 292.957 199.429 293.74C199.566 294.523 199.855 295.155 200.294 295.636C200.748 296.116 201.407 296.357 202.272 296.357C203.138 296.357 203.79 296.116 204.23 295.636C204.683 295.155 204.979 294.523 205.116 293.74C205.253 292.957 205.322 291.988 205.322 290.834Z" fill="#333333"/>
<rect x="249.334" y="265.238" width="45.3325" height="51.6057" rx="22.6663" fill="#624932"/>
<path d="M265.427 285.662V283.519H269.713V298.541H267.344V285.662H265.427ZM272.631 285.662V283.519H276.917V298.541H274.548V285.662H272.631Z" fill="white"/>
<path d="M331.726 285.662V283.519H336.012V298.541H333.642V285.662H331.726ZM340.537 295.347C341.856 294.207 342.893 293.273 343.649 292.545C344.418 291.803 345.057 291.034 345.565 290.237C346.073 289.44 346.327 288.643 346.327 287.847C346.327 287.022 346.128 286.377 345.73 285.91C345.345 285.443 344.734 285.209 343.896 285.209C343.086 285.209 342.454 285.47 342 285.992C341.561 286.5 341.327 287.187 341.3 288.053H339.033C339.074 286.487 339.541 285.292 340.434 284.467C341.341 283.629 342.488 283.21 343.875 283.21C345.373 283.21 346.54 283.622 347.378 284.447C348.23 285.271 348.656 286.37 348.656 287.744C348.656 288.733 348.402 289.687 347.894 290.608C347.399 291.514 346.801 292.332 346.101 293.06C345.414 293.774 344.535 294.605 343.463 295.553L342.536 296.377H349.068V298.335H339.054V296.625L340.537 295.347Z" fill="#333333"/>
<rect x="391.658" y="265.238" width="45.3325" height="51.6057" rx="22.6663" fill="#624932"/>
<path d="M405.251 285.662V283.519H409.537V298.541H407.168V285.662H405.251ZM412.723 287.228C412.806 285.951 413.293 284.955 414.186 284.241C415.093 283.526 416.247 283.169 417.648 283.169C418.61 283.169 419.441 283.341 420.141 283.684C420.842 284.028 421.371 284.495 421.728 285.085C422.085 285.676 422.264 286.342 422.264 287.084C422.264 287.936 422.037 288.664 421.584 289.268C421.13 289.873 420.588 290.278 419.956 290.484V290.567C420.766 290.814 421.398 291.267 421.852 291.927C422.305 292.572 422.532 293.403 422.532 294.42C422.532 295.23 422.346 295.952 421.975 296.583C421.604 297.215 421.055 297.717 420.327 298.088C419.599 298.445 418.726 298.623 417.71 298.623C416.226 298.623 415.004 298.246 414.042 297.49C413.094 296.721 412.586 295.622 412.517 294.193H414.784C414.839 294.921 415.12 295.519 415.629 295.986C416.137 296.439 416.824 296.666 417.689 296.666C418.527 296.666 419.173 296.439 419.626 295.986C420.08 295.519 420.306 294.921 420.306 294.193C420.306 293.232 419.997 292.552 419.379 292.153C418.775 291.741 417.84 291.535 416.577 291.535H416.041V289.598H416.597C417.71 289.584 418.555 289.399 419.132 289.042C419.722 288.685 420.018 288.121 420.018 287.352C420.018 286.693 419.805 286.171 419.379 285.786C418.953 285.388 418.349 285.189 417.566 285.189C416.796 285.189 416.199 285.388 415.773 285.786C415.347 286.171 415.093 286.652 415.011 287.228H412.723Z" fill="white"/>
<path d="M474.048 285.662V283.519H478.334V298.541H475.965V285.662H474.048ZM481.273 295.409V293.637L488.196 283.705H491.04V293.369H492.956V295.409H491.04V298.541H488.732V295.409H481.273ZM488.835 286.095L483.972 293.369H488.835V286.095Z" fill="#333333"/>
<path d="M47.0776 353.754V351.611H51.3636V366.633H48.994V353.754H47.0776ZM64.2754 353.631H57.3724V357.731C57.6609 357.347 58.0868 357.024 58.65 356.763C59.227 356.502 59.8383 356.371 60.4839 356.371C61.6378 356.371 62.572 356.618 63.2863 357.113C64.0144 357.608 64.5295 358.233 64.8317 358.988C65.1477 359.744 65.3056 360.54 65.3056 361.378C65.3056 362.395 65.1065 363.302 64.7081 364.098C64.3234 364.881 63.7396 365.499 62.9566 365.953C62.1873 366.406 61.2395 366.633 60.113 366.633C58.6157 366.633 57.4137 366.262 56.507 365.52C55.6004 364.778 55.0577 363.796 54.8792 362.573H57.1664C57.3175 363.219 57.6541 363.734 58.1761 364.119C58.6981 364.49 59.3506 364.675 60.1336 364.675C61.1089 364.675 61.837 364.38 62.3178 363.789C62.8124 363.199 63.0596 362.416 63.0596 361.44C63.0596 360.451 62.8124 359.696 62.3178 359.174C61.8233 358.638 61.0952 358.37 60.1336 358.37C59.4605 358.37 58.8904 358.542 58.4233 358.885C57.97 359.215 57.6403 359.668 57.4343 360.245H55.2088V351.57H64.2754V353.631Z" fill="#333333"/>
<path d="M118.24 353.754V351.611H122.526V366.633H120.156V353.754H118.24ZM133.83 355.094C133.679 354.462 133.404 353.988 133.006 353.672C132.608 353.356 132.051 353.198 131.337 353.198C130.252 353.198 129.441 353.617 128.905 354.455C128.37 355.279 128.088 356.653 128.061 358.576C128.418 357.972 128.94 357.504 129.627 357.175C130.314 356.845 131.055 356.68 131.852 356.68C132.759 356.68 133.555 356.879 134.242 357.278C134.943 357.662 135.486 358.226 135.87 358.967C136.269 359.709 136.468 360.595 136.468 361.626C136.468 362.587 136.275 363.446 135.891 364.201C135.52 364.957 134.964 365.554 134.222 365.994C133.48 366.42 132.587 366.633 131.543 366.633C130.128 366.633 129.015 366.324 128.205 365.706C127.408 365.074 126.845 364.188 126.515 363.047C126.199 361.907 126.041 360.485 126.041 358.782C126.041 353.754 127.813 351.24 131.358 351.24C132.731 351.24 133.81 351.611 134.593 352.353C135.389 353.095 135.856 354.008 135.994 355.094H133.83ZM131.337 358.658C130.499 358.658 129.785 358.913 129.194 359.421C128.617 359.915 128.329 360.637 128.329 361.584C128.329 362.532 128.596 363.288 129.132 363.851C129.682 364.401 130.444 364.675 131.419 364.675C132.285 364.675 132.965 364.407 133.459 363.872C133.968 363.336 134.222 362.622 134.222 361.729C134.222 360.795 133.974 360.053 133.48 359.503C132.999 358.94 132.285 358.658 131.337 358.658Z" fill="#333333"/>
<path d="M189.402 353.754V351.611H193.688V366.633H191.318V353.754H189.402ZM206.435 353.425L200.706 366.633H198.337L204.127 353.672H196.503V351.673H206.435V353.425Z" fill="#333333"/>
<path d="M260.564 353.754V351.611H264.85V366.633H262.48V353.754H260.564ZM270.612 358.782C269.183 358.068 268.469 356.941 268.469 355.403C268.469 354.661 268.654 353.981 269.025 353.363C269.396 352.745 269.952 352.257 270.694 351.9C271.436 351.529 272.342 351.343 273.414 351.343C274.472 351.343 275.371 351.529 276.113 351.9C276.869 352.257 277.432 352.745 277.803 353.363C278.174 353.981 278.359 354.661 278.359 355.403C278.359 356.172 278.16 356.852 277.762 357.443C277.377 358.02 276.862 358.466 276.216 358.782C276.999 359.071 277.617 359.544 278.071 360.204C278.524 360.849 278.751 361.612 278.751 362.491C278.751 363.384 278.524 364.174 278.071 364.861C277.617 365.548 276.986 366.076 276.175 366.447C275.365 366.818 274.444 367.004 273.414 367.004C272.384 367.004 271.463 366.818 270.653 366.447C269.856 366.076 269.231 365.548 268.778 364.861C268.324 364.174 268.098 363.384 268.098 362.491C268.098 361.598 268.324 360.829 268.778 360.183C269.231 359.538 269.842 359.071 270.612 358.782ZM276.113 355.691C276.113 354.922 275.873 354.331 275.392 353.919C274.911 353.507 274.252 353.301 273.414 353.301C272.59 353.301 271.937 353.507 271.456 353.919C270.976 354.331 270.735 354.929 270.735 355.712C270.735 356.399 270.982 356.962 271.477 357.401C271.985 357.827 272.631 358.04 273.414 358.04C274.197 358.04 274.843 357.82 275.351 357.381C275.859 356.941 276.113 356.378 276.113 355.691ZM273.414 359.812C272.507 359.812 271.765 360.039 271.188 360.492C270.625 360.932 270.344 361.571 270.344 362.409C270.344 363.192 270.618 363.83 271.168 364.325C271.717 364.806 272.466 365.046 273.414 365.046C274.348 365.046 275.083 364.799 275.619 364.304C276.168 363.81 276.443 363.178 276.443 362.409C276.443 361.584 276.161 360.946 275.598 360.492C275.049 360.039 274.321 359.812 273.414 359.812Z" fill="#333333"/>
<rect x="320.496" y="333.33" width="45.3325" height="51.6057" rx="22.6663" fill="#624932"/>
<path d="M333.589 353.754V351.611H337.875V366.633H335.506V353.754H333.589ZM344.028 362.553C344.166 363.24 344.461 363.762 344.914 364.119C345.368 364.476 345.979 364.655 346.748 364.655C347.724 364.655 348.438 364.27 348.891 363.501C349.345 362.731 349.571 361.42 349.571 359.565C349.242 360.032 348.775 360.396 348.17 360.657C347.579 360.904 346.934 361.028 346.233 361.028C345.34 361.028 344.53 360.849 343.802 360.492C343.074 360.121 342.497 359.579 342.071 358.864C341.659 358.136 341.453 357.257 341.453 356.227C341.453 354.716 341.892 353.514 342.771 352.621C343.664 351.714 344.887 351.261 346.439 351.261C348.308 351.261 349.633 351.886 350.416 353.136C351.213 354.372 351.611 356.275 351.611 358.844C351.611 360.616 351.46 362.065 351.158 363.192C350.869 364.318 350.361 365.17 349.633 365.747C348.905 366.324 347.895 366.612 346.604 366.612C345.134 366.612 344.001 366.228 343.204 365.458C342.407 364.689 341.961 363.721 341.865 362.553H344.028ZM346.645 359.05C347.47 359.05 348.115 358.796 348.582 358.288C349.063 357.765 349.303 357.079 349.303 356.227C349.303 355.279 349.049 354.544 348.541 354.022C348.047 353.486 347.367 353.219 346.501 353.219C345.636 353.219 344.949 353.493 344.441 354.043C343.946 354.578 343.699 355.286 343.699 356.165C343.699 357.003 343.939 357.697 344.42 358.246C344.914 358.782 345.656 359.05 346.645 359.05Z" fill="white"/>
<path d="M404.495 363.439C405.814 362.299 406.851 361.365 407.607 360.637C408.376 359.895 409.015 359.125 409.523 358.329C410.032 357.532 410.286 356.735 410.286 355.938C410.286 355.114 410.086 354.469 409.688 354.002C409.303 353.534 408.692 353.301 407.854 353.301C407.044 353.301 406.412 353.562 405.958 354.084C405.519 354.592 405.285 355.279 405.258 356.145H402.991C403.032 354.578 403.499 353.383 404.392 352.559C405.299 351.721 406.446 351.302 407.834 351.302C409.331 351.302 410.499 351.714 411.337 352.539C412.188 353.363 412.614 354.462 412.614 355.835C412.614 356.824 412.36 357.779 411.852 358.7C411.357 359.606 410.76 360.424 410.059 361.152C409.372 361.866 408.493 362.697 407.421 363.645L406.494 364.469H413.026V366.427H403.012V364.716L404.495 363.439ZM415.09 358.926C415.09 356.55 415.488 354.695 416.285 353.363C417.095 352.017 418.483 351.343 420.447 351.343C422.412 351.343 423.792 352.017 424.589 353.363C425.4 354.695 425.805 356.55 425.805 358.926C425.805 361.33 425.4 363.212 424.589 364.572C423.792 365.918 422.412 366.592 420.447 366.592C418.483 366.592 417.095 365.918 416.285 364.572C415.488 363.212 415.09 361.33 415.09 358.926ZM423.497 358.926C423.497 357.814 423.421 356.873 423.27 356.103C423.133 355.334 422.844 354.709 422.405 354.228C421.965 353.734 421.313 353.486 420.447 353.486C419.582 353.486 418.929 353.734 418.49 354.228C418.05 354.709 417.755 355.334 417.604 356.103C417.466 356.873 417.398 357.814 417.398 358.926C417.398 360.08 417.466 361.049 417.604 361.832C417.741 362.615 418.03 363.247 418.469 363.727C418.922 364.208 419.582 364.449 420.447 364.449C421.313 364.449 421.965 364.208 422.405 363.727C422.858 363.247 423.154 362.615 423.291 361.832C423.428 361.049 423.497 360.08 423.497 358.926Z" fill="#333333"/>
<rect x="462.818" y="333.33" width="45.3325" height="51.6057" rx="22.6663" fill="#624932"/>
<path d="M478.019 363.439C479.338 362.299 480.375 361.365 481.13 360.637C481.9 359.895 482.538 359.125 483.047 358.329C483.555 357.532 483.809 356.735 483.809 355.938C483.809 355.114 483.61 354.469 483.212 354.002C482.827 353.534 482.216 353.301 481.378 353.301C480.567 353.301 479.935 353.562 479.482 354.084C479.042 354.592 478.809 355.279 478.781 356.145H476.515C476.556 354.578 477.023 353.383 477.916 352.559C478.822 351.721 479.97 351.302 481.357 351.302C482.854 351.302 484.022 351.714 484.86 352.539C485.712 353.363 486.138 354.462 486.138 355.835C486.138 356.824 485.883 357.779 485.375 358.7C484.881 359.606 484.283 360.424 483.582 361.152C482.896 361.866 482.016 362.697 480.945 363.645L480.018 364.469H486.55V366.427H476.535V364.716L478.019 363.439ZM488.304 353.754V351.611H492.59V366.633H490.221V353.754H488.304Z" fill="white"/>
<path d="M48.6849 431.529C50.0037 430.389 51.0408 429.454 51.7964 428.726C52.5656 427.985 53.2044 427.215 53.7127 426.419C54.221 425.622 54.4751 424.825 54.4751 424.028C54.4751 423.204 54.2759 422.558 53.8775 422.091C53.4929 421.624 52.8816 421.391 52.0436 421.391C51.2331 421.391 50.6012 421.652 50.1479 422.174C49.7083 422.682 49.4748 423.369 49.4473 424.234H47.1807C47.2219 422.668 47.6889 421.473 48.5819 420.649C49.4885 419.811 50.6356 419.392 52.023 419.392C53.5204 419.392 54.688 419.804 55.526 420.628C56.3777 421.453 56.8035 422.552 56.8035 423.925C56.8035 424.914 56.5494 425.869 56.0411 426.789C55.5466 427.696 54.949 428.513 54.2484 429.242C53.5616 429.956 52.6824 430.787 51.6109 431.735L50.6836 432.559H57.2157V434.517H47.2013V432.806L48.6849 431.529ZM60.5774 431.529C61.8962 430.389 62.9334 429.454 63.6889 428.726C64.4582 427.985 65.097 427.215 65.6052 426.419C66.1135 425.622 66.3676 424.825 66.3676 424.028C66.3676 423.204 66.1685 422.558 65.7701 422.091C65.3854 421.624 64.7741 421.391 63.9362 421.391C63.1257 421.391 62.4938 421.652 62.0404 422.174C61.6009 422.682 61.3673 423.369 61.3399 424.234H59.0732C59.1144 422.668 59.5815 421.473 60.4744 420.649C61.3811 419.811 62.5281 419.392 63.9156 419.392C65.4129 419.392 66.5806 419.804 67.4185 420.628C68.2702 421.453 68.6961 422.552 68.6961 423.925C68.6961 424.914 68.4419 425.869 67.9337 426.789C67.4391 427.696 66.8416 428.513 66.141 429.242C65.4541 429.956 64.5749 430.787 63.5034 431.735L62.5762 432.559H69.1082V434.517H59.0938V432.806L60.5774 431.529Z" fill="#333333"/>
<path d="M119.847 431.529C121.166 430.389 122.203 429.454 122.958 428.726C123.728 427.985 124.367 427.215 124.875 426.419C125.383 425.622 125.637 424.825 125.637 424.028C125.637 423.204 125.438 422.558 125.04 422.091C124.655 421.624 124.044 421.391 123.206 421.391C122.395 421.391 121.763 421.652 121.31 422.174C120.87 422.682 120.637 423.369 120.609 424.234H118.343C118.384 422.668 118.851 421.473 119.744 420.649C120.651 419.811 121.798 419.392 123.185 419.392C124.682 419.392 125.85 419.804 126.688 420.628C127.54 421.453 127.966 422.552 127.966 423.925C127.966 424.914 127.712 425.869 127.203 426.789C126.709 427.696 126.111 428.513 125.411 429.242C124.724 429.956 123.845 430.787 122.773 431.735L121.846 432.559H128.378V434.517H118.363V432.806L119.847 431.529ZM130.4 423.41C130.483 422.133 130.97 421.137 131.863 420.422C132.77 419.708 133.924 419.351 135.325 419.351C136.287 419.351 137.118 419.523 137.818 419.866C138.519 420.209 139.048 420.676 139.405 421.267C139.762 421.858 139.941 422.524 139.941 423.266C139.941 424.118 139.714 424.846 139.261 425.45C138.807 426.055 138.265 426.46 137.633 426.666V426.748C138.443 426.996 139.075 427.449 139.529 428.108C139.982 428.754 140.208 429.585 140.208 430.602C140.208 431.412 140.023 432.133 139.652 432.765C139.281 433.397 138.732 433.898 138.004 434.269C137.276 434.626 136.403 434.805 135.387 434.805C133.903 434.805 132.681 434.427 131.719 433.672C130.771 432.902 130.263 431.804 130.194 430.375H132.461C132.516 431.103 132.797 431.7 133.306 432.168C133.814 432.621 134.501 432.848 135.366 432.848C136.204 432.848 136.85 432.621 137.303 432.168C137.756 431.7 137.983 431.103 137.983 430.375C137.983 429.413 137.674 428.733 137.056 428.335C136.451 427.923 135.517 427.717 134.253 427.717H133.718V425.78H134.274C135.387 425.766 136.232 425.581 136.809 425.223C137.399 424.866 137.695 424.303 137.695 423.534C137.695 422.874 137.482 422.352 137.056 421.968C136.63 421.569 136.026 421.37 135.243 421.37C134.473 421.37 133.876 421.569 133.45 421.968C133.024 422.352 132.77 422.833 132.687 423.41H130.4Z" fill="#333333"/>
<path d="M191.009 431.529C192.328 430.389 193.365 429.454 194.121 428.726C194.89 427.985 195.529 427.215 196.037 426.419C196.545 425.622 196.799 424.825 196.799 424.028C196.799 423.204 196.6 422.558 196.202 422.091C195.817 421.624 195.206 421.391 194.368 421.391C193.557 421.391 192.925 421.652 192.472 422.174C192.033 422.682 191.799 423.369 191.772 424.234H189.505C189.546 422.668 190.013 421.473 190.906 420.649C191.813 419.811 192.96 419.392 194.347 419.392C195.845 419.392 197.012 419.804 197.85 420.628C198.702 421.453 199.128 422.552 199.128 423.925C199.128 424.914 198.874 425.869 198.365 426.789C197.871 427.696 197.273 428.513 196.573 429.242C195.886 429.956 195.007 430.787 193.935 431.735L193.008 432.559H199.54V434.517H189.526V432.806L191.009 431.529ZM201.315 431.591V429.818L208.239 419.887H211.082V429.551H212.998V431.591H211.082V434.723H208.774V431.591H201.315ZM208.877 422.277L204.014 429.551H208.877V422.277Z" fill="#333333"/>
<path d="M262.171 431.529C263.49 430.389 264.527 429.454 265.283 428.726C266.052 427.985 266.691 427.215 267.199 426.419C267.707 425.622 267.961 424.825 267.961 424.028C267.961 423.204 267.762 422.558 267.364 422.091C266.979 421.624 266.368 421.391 265.53 421.391C264.719 421.391 264.088 421.652 263.634 422.174C263.195 422.682 262.961 423.369 262.934 424.234H260.667C260.708 422.668 261.175 421.473 262.068 420.649C262.975 419.811 264.122 419.392 265.509 419.392C267.007 419.392 268.174 419.804 269.012 420.628C269.864 421.453 270.29 422.552 270.29 423.925C270.29 424.914 270.036 425.869 269.527 426.789C269.033 427.696 268.435 428.513 267.735 429.242C267.048 429.956 266.169 430.787 265.097 431.735L264.17 432.559H270.702V434.517H260.688V432.806L262.171 431.529ZM282.45 421.72H275.547V425.821C275.836 425.436 276.262 425.114 276.825 424.853C277.402 424.592 278.013 424.461 278.659 424.461C279.813 424.461 280.747 424.708 281.461 425.203C282.189 425.697 282.704 426.322 283.007 427.078C283.323 427.833 283.481 428.63 283.481 429.468C283.481 430.485 283.281 431.391 282.883 432.188C282.498 432.971 281.915 433.589 281.132 434.043C280.362 434.496 279.414 434.723 278.288 434.723C276.791 434.723 275.589 434.352 274.682 433.61C273.775 432.868 273.233 431.886 273.054 430.663H275.341C275.492 431.309 275.829 431.824 276.351 432.209C276.873 432.58 277.526 432.765 278.309 432.765C279.284 432.765 280.012 432.47 280.493 431.879C280.987 431.288 281.235 430.505 281.235 429.53C281.235 428.541 280.987 427.785 280.493 427.263C279.998 426.728 279.27 426.46 278.309 426.46C277.635 426.46 277.065 426.631 276.598 426.975C276.145 427.305 275.815 427.758 275.609 428.335H273.384V419.66H282.45V421.72Z" fill="#333333"/>
<path d="M333.333 431.529C334.652 430.389 335.689 429.454 336.445 428.726C337.214 427.985 337.853 427.215 338.361 426.419C338.869 425.622 339.124 424.825 339.124 424.028C339.124 423.204 338.924 422.558 338.526 422.091C338.141 421.624 337.53 421.391 336.692 421.391C335.882 421.391 335.25 421.652 334.796 422.174C334.357 422.682 334.123 423.369 334.096 424.234H331.829C331.87 422.668 332.337 421.473 333.23 420.649C334.137 419.811 335.284 419.392 336.671 419.392C338.169 419.392 339.336 419.804 340.174 420.628C341.026 421.453 341.452 422.552 341.452 423.925C341.452 424.914 341.198 425.869 340.69 426.789C340.195 427.696 339.597 428.513 338.897 429.242C338.21 429.956 337.331 430.787 336.259 431.735L335.332 432.559H341.864V434.517H331.85V432.806L333.333 431.529ZM352.005 423.183C351.854 422.552 351.579 422.078 351.181 421.762C350.783 421.446 350.226 421.288 349.512 421.288C348.427 421.288 347.616 421.707 347.08 422.545C346.545 423.369 346.263 424.743 346.236 426.666C346.593 426.061 347.115 425.594 347.802 425.265C348.488 424.935 349.23 424.77 350.027 424.77C350.934 424.77 351.73 424.969 352.417 425.368C353.118 425.752 353.66 426.316 354.045 427.057C354.443 427.799 354.643 428.685 354.643 429.715C354.643 430.677 354.45 431.536 354.066 432.291C353.695 433.047 353.138 433.644 352.397 434.084C351.655 434.51 350.762 434.723 349.718 434.723C348.303 434.723 347.19 434.414 346.38 433.795C345.583 433.163 345.02 432.277 344.69 431.137C344.374 429.997 344.216 428.575 344.216 426.872C344.216 421.844 345.988 419.33 349.532 419.33C350.906 419.33 351.985 419.701 352.768 420.443C353.564 421.185 354.031 422.098 354.169 423.183H352.005ZM349.512 426.748C348.674 426.748 347.96 427.002 347.369 427.511C346.792 428.005 346.503 428.726 346.503 429.674C346.503 430.622 346.771 431.378 347.307 431.941C347.857 432.49 348.619 432.765 349.594 432.765C350.46 432.765 351.14 432.497 351.634 431.961C352.143 431.426 352.397 430.711 352.397 429.818C352.397 428.884 352.149 428.143 351.655 427.593C351.174 427.03 350.46 426.748 349.512 426.748Z" fill="#333333"/>
<path d="M404.495 431.529C405.814 430.389 406.851 429.454 407.607 428.726C408.376 427.985 409.015 427.215 409.523 426.419C410.032 425.622 410.286 424.825 410.286 424.028C410.286 423.204 410.086 422.558 409.688 422.091C409.303 421.624 408.692 421.391 407.854 421.391C407.044 421.391 406.412 421.652 405.958 422.174C405.519 422.682 405.285 423.369 405.258 424.234H402.991C403.032 422.668 403.499 421.473 404.392 420.649C405.299 419.811 406.446 419.392 407.834 419.392C409.331 419.392 410.499 419.804 411.337 420.628C412.188 421.453 412.614 422.552 412.614 423.925C412.614 424.914 412.36 425.869 411.852 426.789C411.357 427.696 410.76 428.513 410.059 429.242C409.372 429.956 408.493 430.787 407.421 431.735L406.494 432.559H413.026V434.517H403.012V432.806L404.495 431.529ZM424.61 421.514L418.881 434.723H416.512L422.302 421.762H414.678V419.763H424.61V421.514Z" fill="#333333"/>
<path d="M475.656 431.529C476.974 430.389 478.012 429.454 478.767 428.726C479.536 427.985 480.175 427.215 480.683 426.419C481.192 425.622 481.446 424.825 481.446 424.028C481.446 423.204 481.247 422.558 480.848 422.091C480.464 421.624 479.852 421.391 479.014 421.391C478.204 421.391 477.572 421.652 477.119 422.174C476.679 422.682 476.445 423.369 476.418 424.234H474.151C474.193 422.668 474.66 421.473 475.553 420.649C476.459 419.811 477.606 419.392 478.994 419.392C480.491 419.392 481.659 419.804 482.497 420.628C483.348 421.453 483.774 422.552 483.774 423.925C483.774 424.914 483.52 425.869 483.012 426.789C482.517 427.696 481.92 428.513 481.219 429.242C480.532 429.956 479.653 430.787 478.582 431.735L477.654 432.559H484.186V434.517H474.172V432.806L475.656 431.529ZM488.784 426.872C487.356 426.158 486.641 425.031 486.641 423.493C486.641 422.751 486.827 422.071 487.198 421.453C487.569 420.834 488.125 420.347 488.867 419.99C489.609 419.619 490.515 419.433 491.587 419.433C492.645 419.433 493.544 419.619 494.286 419.99C495.042 420.347 495.605 420.834 495.976 421.453C496.347 422.071 496.532 422.751 496.532 423.493C496.532 424.262 496.333 424.942 495.935 425.533C495.55 426.109 495.035 426.556 494.389 426.872C495.172 427.16 495.79 427.634 496.244 428.294C496.697 428.939 496.924 429.702 496.924 430.581C496.924 431.474 496.697 432.264 496.244 432.951C495.79 433.637 495.159 434.166 494.348 434.537C493.538 434.908 492.617 435.094 491.587 435.094C490.557 435.094 489.636 434.908 488.826 434.537C488.029 434.166 487.404 433.637 486.951 432.951C486.497 432.264 486.271 431.474 486.271 430.581C486.271 429.688 486.497 428.919 486.951 428.273C487.404 427.627 488.015 427.16 488.784 426.872ZM494.286 423.781C494.286 423.012 494.046 422.421 493.565 422.009C493.084 421.597 492.425 421.391 491.587 421.391C490.763 421.391 490.11 421.597 489.629 422.009C489.149 422.421 488.908 423.019 488.908 423.802C488.908 424.488 489.155 425.052 489.65 425.491C490.158 425.917 490.804 426.13 491.587 426.13C492.37 426.13 493.016 425.91 493.524 425.471C494.032 425.031 494.286 424.468 494.286 423.781ZM491.587 427.902C490.68 427.902 489.938 428.129 489.361 428.582C488.798 429.022 488.517 429.661 488.517 430.498C488.517 431.282 488.791 431.92 489.341 432.415C489.89 432.896 490.639 433.136 491.587 433.136C492.521 433.136 493.256 432.889 493.792 432.394C494.341 431.9 494.616 431.268 494.616 430.498C494.616 429.674 494.334 429.035 493.771 428.582C493.222 428.129 492.494 427.902 491.587 427.902Z" fill="#333333"/>
<path d="M48.6849 499.619C50.0037 498.478 51.0408 497.544 51.7964 496.816C52.5656 496.074 53.2044 495.305 53.7127 494.508C54.221 493.712 54.4751 492.915 54.4751 492.118C54.4751 491.294 54.2759 490.648 53.8775 490.181C53.4929 489.714 52.8816 489.481 52.0436 489.481C51.2331 489.481 50.6012 489.742 50.1479 490.264C49.7083 490.772 49.4748 491.459 49.4473 492.324H47.1807C47.2219 490.758 47.6889 489.563 48.5819 488.739C49.4885 487.901 50.6356 487.482 52.023 487.482C53.5204 487.482 54.688 487.894 55.526 488.718C56.3777 489.542 56.8035 490.641 56.8035 492.015C56.8035 493.004 56.5494 493.959 56.0411 494.879C55.5466 495.786 54.949 496.603 54.2484 497.331C53.5616 498.046 52.6824 498.877 51.6109 499.825L50.6836 500.649H57.2157V502.606H47.2013V500.896L48.6849 499.619ZM62.2053 498.733C62.3427 499.419 62.638 499.941 63.0913 500.299C63.5447 500.656 64.156 500.834 64.9252 500.834C65.9006 500.834 66.6149 500.45 67.0682 499.68C67.5216 498.911 67.7482 497.599 67.7482 495.745C67.4185 496.212 66.9515 496.576 66.347 496.837C65.7563 497.084 65.1107 497.208 64.4101 497.208C63.5172 497.208 62.7067 497.029 61.9786 496.672C61.2506 496.301 60.6736 495.758 60.2477 495.044C59.8356 494.316 59.6296 493.437 59.6296 492.407C59.6296 490.896 60.0692 489.694 60.9483 488.801C61.8413 487.894 63.0639 487.441 64.6162 487.441C66.4844 487.441 67.81 488.066 68.5931 489.316C69.3898 490.552 69.7882 492.455 69.7882 495.024C69.7882 496.796 69.6371 498.245 69.3349 499.371C69.0464 500.498 68.5381 501.349 67.81 501.926C67.082 502.503 66.0723 502.792 64.781 502.792C63.3111 502.792 62.1778 502.407 61.3811 501.638C60.5843 500.869 60.1379 499.9 60.0417 498.733H62.2053ZM64.8222 495.23C65.6464 495.23 66.2921 494.975 66.7591 494.467C67.2399 493.945 67.4803 493.258 67.4803 492.407C67.4803 491.459 67.2262 490.724 66.7179 490.202C66.2234 489.666 65.5434 489.398 64.678 489.398C63.8125 489.398 63.1257 489.673 62.6174 490.222C62.1229 490.758 61.8756 491.466 61.8756 492.345C61.8756 493.183 62.116 493.876 62.5968 494.426C63.0913 494.962 63.8331 495.23 64.8222 495.23Z" fill="#333333"/>
<path d="M118.508 491.5C118.59 490.222 119.078 489.226 119.971 488.512C120.877 487.798 122.031 487.441 123.432 487.441C124.394 487.441 125.225 487.612 125.926 487.956C126.626 488.299 127.155 488.766 127.512 489.357C127.869 489.948 128.048 490.614 128.048 491.356C128.048 492.207 127.821 492.936 127.368 493.54C126.915 494.144 126.372 494.55 125.74 494.756V494.838C126.551 495.085 127.183 495.539 127.636 496.198C128.089 496.844 128.316 497.675 128.316 498.691C128.316 499.502 128.13 500.223 127.76 500.855C127.389 501.487 126.839 501.988 126.111 502.359C125.383 502.716 124.511 502.895 123.494 502.895C122.011 502.895 120.788 502.517 119.826 501.762C118.879 500.992 118.37 499.893 118.302 498.465H120.568C120.623 499.193 120.905 499.79 121.413 500.257C121.921 500.711 122.608 500.937 123.474 500.937C124.312 500.937 124.957 500.711 125.411 500.257C125.864 499.79 126.091 499.193 126.091 498.465C126.091 497.503 125.781 496.823 125.163 496.425C124.559 496.013 123.625 495.807 122.361 495.807H121.825V493.87H122.382C123.494 493.856 124.339 493.67 124.916 493.313C125.507 492.956 125.802 492.393 125.802 491.624C125.802 490.964 125.589 490.442 125.163 490.058C124.737 489.659 124.133 489.46 123.35 489.46C122.581 489.46 121.983 489.659 121.557 490.058C121.131 490.442 120.877 490.923 120.795 491.5H118.508ZM130.783 495.106C130.783 492.729 131.182 490.875 131.979 489.542C132.789 488.196 134.177 487.523 136.141 487.523C138.105 487.523 139.486 488.196 140.283 489.542C141.093 490.875 141.498 492.729 141.498 495.106C141.498 497.51 141.093 499.392 140.283 500.752C139.486 502.098 138.105 502.771 136.141 502.771C134.177 502.771 132.789 502.098 131.979 500.752C131.182 499.392 130.783 497.51 130.783 495.106ZM139.191 495.106C139.191 493.993 139.115 493.052 138.964 492.283C138.827 491.514 138.538 490.889 138.099 490.408C137.659 489.913 137.006 489.666 136.141 489.666C135.276 489.666 134.623 489.913 134.183 490.408C133.744 490.889 133.448 491.514 133.297 492.283C133.16 493.052 133.091 493.993 133.091 495.106C133.091 496.26 133.16 497.228 133.297 498.011C133.435 498.794 133.723 499.426 134.163 499.907C134.616 500.388 135.276 500.628 136.141 500.628C137.006 500.628 137.659 500.388 138.099 499.907C138.552 499.426 138.847 498.794 138.985 498.011C139.122 497.228 139.191 496.26 139.191 495.106Z" fill="#333333"/>
<path d="M189.67 491.5C189.752 490.222 190.24 489.226 191.133 488.512C192.039 487.798 193.193 487.441 194.595 487.441C195.556 487.441 196.387 487.612 197.088 487.956C197.788 488.299 198.317 488.766 198.674 489.357C199.032 489.948 199.21 490.614 199.21 491.356C199.21 492.207 198.984 492.936 198.53 493.54C198.077 494.144 197.534 494.55 196.902 494.756V494.838C197.713 495.085 198.345 495.539 198.798 496.198C199.251 496.844 199.478 497.675 199.478 498.691C199.478 499.502 199.293 500.223 198.922 500.855C198.551 501.487 198.001 501.988 197.273 502.359C196.545 502.716 195.673 502.895 194.656 502.895C193.173 502.895 191.95 502.517 190.989 501.762C190.041 500.992 189.532 499.893 189.464 498.465H191.73C191.785 499.193 192.067 499.79 192.575 500.257C193.083 500.711 193.77 500.937 194.636 500.937C195.474 500.937 196.119 500.711 196.573 500.257C197.026 499.79 197.253 499.193 197.253 498.465C197.253 497.503 196.944 496.823 196.325 496.425C195.721 496.013 194.787 495.807 193.523 495.807H192.987V493.87H193.544C194.656 493.856 195.501 493.67 196.078 493.313C196.669 492.956 196.964 492.393 196.964 491.624C196.964 490.964 196.751 490.442 196.325 490.058C195.9 489.659 195.295 489.46 194.512 489.46C193.743 489.46 193.145 489.659 192.719 490.058C192.294 490.442 192.039 490.923 191.957 491.5H189.67ZM201.637 489.934V487.791H205.922V502.812H203.553V489.934H201.637Z" fill="#333333"/>
<g opacity="0.3">
<path d="M260.873 495.106C260.873 492.729 261.271 490.875 262.068 489.542C262.879 488.196 264.266 487.523 266.231 487.523C268.195 487.523 269.576 488.196 270.372 489.542C271.183 490.875 271.588 492.729 271.588 495.106C271.588 497.51 271.183 499.392 270.372 500.752C269.576 502.098 268.195 502.771 266.231 502.771C264.266 502.771 262.879 502.098 262.068 500.752C261.271 499.392 260.873 497.51 260.873 495.106ZM269.28 495.106C269.28 493.993 269.205 493.052 269.054 492.283C268.916 491.514 268.628 490.889 268.188 490.408C267.748 489.913 267.096 489.666 266.231 489.666C265.365 489.666 264.713 489.913 264.273 490.408C263.833 490.889 263.538 491.514 263.387 492.283C263.25 493.052 263.181 493.993 263.181 495.106C263.181 496.26 263.25 497.228 263.387 498.011C263.524 498.794 263.813 499.426 264.252 499.907C264.706 500.388 265.365 500.628 266.231 500.628C267.096 500.628 267.748 500.388 268.188 499.907C268.641 499.426 268.937 498.794 269.074 498.011C269.212 497.228 269.28 496.26 269.28 495.106ZM273.765 489.934V487.791H278.05V502.812H275.681V489.934H273.765Z" fill="#333333"/>
</g>
<g opacity="0.3">
<path d="M332.035 495.106C332.035 492.729 332.434 490.875 333.23 489.542C334.041 488.196 335.428 487.523 337.393 487.523C339.357 487.523 340.738 488.196 341.534 489.542C342.345 490.875 342.75 492.729 342.75 495.106C342.75 497.51 342.345 499.392 341.534 500.752C340.738 502.098 339.357 502.771 337.393 502.771C335.428 502.771 334.041 502.098 333.23 500.752C332.434 499.392 332.035 497.51 332.035 495.106ZM340.442 495.106C340.442 493.993 340.367 493.052 340.216 492.283C340.078 491.514 339.79 490.889 339.35 490.408C338.911 489.913 338.258 489.666 337.393 489.666C336.527 489.666 335.875 489.913 335.435 490.408C334.996 490.889 334.7 491.514 334.549 492.283C334.412 493.052 334.343 493.993 334.343 495.106C334.343 496.26 334.412 497.228 334.549 498.011C334.686 498.794 334.975 499.426 335.415 499.907C335.868 500.388 336.527 500.628 337.393 500.628C338.258 500.628 338.911 500.388 339.35 499.907C339.804 499.426 340.099 498.794 340.236 498.011C340.374 497.228 340.442 496.26 340.442 495.106ZM346.534 499.619C347.853 498.478 348.89 497.544 349.645 496.816C350.415 496.074 351.053 495.305 351.562 494.508C352.07 493.712 352.324 492.915 352.324 492.118C352.324 491.294 352.125 490.648 351.726 490.181C351.342 489.714 350.731 489.481 349.893 489.481C349.082 489.481 348.45 489.742 347.997 490.264C347.557 490.772 347.324 491.459 347.296 492.324H345.03C345.071 490.758 345.538 489.563 346.431 488.739C347.337 487.901 348.485 487.482 349.872 487.482C351.369 487.482 352.537 487.894 353.375 488.718C354.227 489.542 354.653 490.641 354.653 492.015C354.653 493.004 354.398 493.959 353.89 494.879C353.396 495.786 352.798 496.603 352.097 497.331C351.411 498.046 350.531 498.877 349.46 499.825L348.533 500.649H355.065V502.606H345.05V500.896L346.534 499.619Z" fill="#333333"/>
</g>
<g opacity="0.3">
<path d="M403.197 495.106C403.197 492.729 403.596 490.875 404.392 489.542C405.203 488.196 406.59 487.523 408.555 487.523C410.519 487.523 411.9 488.196 412.697 489.542C413.507 490.875 413.912 492.729 413.912 495.106C413.912 497.51 413.507 499.392 412.697 500.752C411.9 502.098 410.519 502.771 408.555 502.771C406.59 502.771 405.203 502.098 404.392 500.752C403.596 499.392 403.197 497.51 403.197 495.106ZM411.604 495.106C411.604 493.993 411.529 493.052 411.378 492.283C411.24 491.514 410.952 490.889 410.512 490.408C410.073 489.913 409.42 489.666 408.555 489.666C407.689 489.666 407.037 489.913 406.597 490.408C406.158 490.889 405.862 491.514 405.711 492.283C405.574 493.052 405.505 493.993 405.505 495.106C405.505 496.26 405.574 497.228 405.711 498.011C405.849 498.794 406.137 499.426 406.577 499.907C407.03 500.388 407.689 500.628 408.555 500.628C409.42 500.628 410.073 500.388 410.512 499.907C410.966 499.426 411.261 498.794 411.398 498.011C411.536 497.228 411.604 496.26 411.604 495.106ZM416.357 491.5C416.439 490.222 416.927 489.226 417.82 488.512C418.726 487.798 419.88 487.441 421.281 487.441C422.243 487.441 423.074 487.612 423.775 487.956C424.475 488.299 425.004 488.766 425.361 489.357C425.718 489.948 425.897 490.614 425.897 491.356C425.897 492.207 425.67 492.936 425.217 493.54C424.764 494.144 424.221 494.55 423.589 494.756V494.838C424.4 495.085 425.032 495.539 425.485 496.198C425.938 496.844 426.165 497.675 426.165 498.691C426.165 499.502 425.979 500.223 425.609 500.855C425.238 501.487 424.688 501.988 423.96 502.359C423.232 502.716 422.36 502.895 421.343 502.895C419.86 502.895 418.637 502.517 417.675 501.762C416.727 500.992 416.219 499.893 416.151 498.465H418.417C418.472 499.193 418.754 499.79 419.262 500.257C419.77 500.711 420.457 500.937 421.323 500.937C422.161 500.937 422.806 500.711 423.26 500.257C423.713 499.79 423.939 499.193 423.939 498.465C423.939 497.503 423.63 496.823 423.012 496.425C422.408 496.013 421.474 495.807 420.21 495.807H419.674V493.87H420.23C421.343 493.856 422.188 493.67 422.765 493.313C423.356 492.956 423.651 492.393 423.651 491.624C423.651 490.964 423.438 490.442 423.012 490.058C422.586 489.659 421.982 489.46 421.199 489.46C420.43 489.46 419.832 489.659 419.406 490.058C418.98 490.442 418.726 490.923 418.644 491.5H416.357Z" fill="#333333"/>
</g>
<g opacity="0.3">
<path d="M474.357 495.106C474.357 492.729 474.756 490.875 475.553 489.542C476.363 488.196 477.751 487.523 479.715 487.523C481.679 487.523 483.06 488.196 483.857 489.542C484.667 490.875 485.072 492.729 485.072 495.106C485.072 497.51 484.667 499.392 483.857 500.752C483.06 502.098 481.679 502.771 479.715 502.771C477.751 502.771 476.363 502.098 475.553 500.752C474.756 499.392 474.357 497.51 474.357 495.106ZM482.765 495.106C482.765 493.993 482.689 493.052 482.538 492.283C482.401 491.514 482.112 490.889 481.672 490.408C481.233 489.913 480.58 489.666 479.715 489.666C478.849 489.666 478.197 489.913 477.757 490.408C477.318 490.889 477.022 491.514 476.871 492.283C476.734 493.052 476.665 493.993 476.665 495.106C476.665 496.26 476.734 497.228 476.871 498.011C477.009 498.794 477.297 499.426 477.737 499.907C478.19 500.388 478.849 500.628 479.715 500.628C480.58 500.628 481.233 500.388 481.672 499.907C482.126 499.426 482.421 498.794 482.559 498.011C482.696 497.228 482.765 496.26 482.765 495.106ZM487.269 499.68V497.908L494.193 487.976H497.037V497.64H498.953V499.68H497.037V502.812H494.729V499.68H487.269ZM494.832 490.367L489.969 497.64H494.832V490.367Z" fill="#333333"/>
</g>
</g>
<defs>
<filter id="filter0_d_2249_49940" x="0.939453" y="0.939453" width="542.121" height="608.371" filterUnits="userSpaceOnUse" color-interpolation-filters="sRGB">
<feFlood flood-opacity="0" result="BackgroundImageFix"/>
<feColorMatrix in="SourceAlpha" type="matrix" values="0 0 0 0 0 0 0 0 0 0 0 0 0 0 0 0 0 0 127 0" result="hardAlpha"/>
<feOffset dy="4"/>
<feGaussianBlur stdDeviation="2"/>
<feComposite in2="hardAlpha" operator="out"/>
<feColorMatrix type="matrix" values="0 0 0 0 0 0 0 0 0 0 0 0 0 0 0 0 0 0 0.25 0"/>
<feBlend mode="normal" in2="BackgroundImageFix" result="effect1_dropShadow_2249_49940"/>
<feBlend mode="normal" in="SourceGraphic" in2="effect1_dropShadow_2249_49940" result="shape"/>
</filter>
</defs>
</svg>
