<svg width="40" height="40" viewBox="0 0 40 40" fill="none" xmlns="http://www.w3.org/2000/svg">
<circle cx="20" cy="20" r="20" fill="#836243"/>
<path d="M19.1667 11.666H17.5C13.3333 11.666 11.6667 13.3327 11.6667 17.4993V22.4993C11.6667 26.666 13.3333 28.3327 17.5 28.3327H22.5C26.6667 28.3327 28.3333 26.666 28.3333 22.4993V20.8327" stroke="white" stroke-width="1.5" stroke-linecap="round" stroke-linejoin="round"/>
<path d="M23.3667 12.5164L16.8 19.0831C16.55 19.3331 16.3 19.8247 16.25 20.1831L15.8917 22.6914C15.7583 23.5997 16.4 24.2331 17.3083 24.1081L19.8167 23.7497C20.1667 23.6997 20.6583 23.4497 20.9167 23.1997L27.4833 16.6331C28.6167 15.4997 29.15 14.1831 27.4833 12.5164C25.8167 10.8497 24.5 11.3831 23.3667 12.5164Z" stroke="white" stroke-width="1.5" stroke-miterlimit="10" stroke-linecap="round" stroke-linejoin="round"/>
<path d="M22.425 13.459C22.9833 15.4507 24.5417 17.009 26.5417 17.5757" stroke="white" stroke-width="1.5" stroke-miterlimit="10" stroke-linecap="round" stroke-linejoin="round"/>
</svg>
