<svg width="40" height="40" viewBox="0 0 40 40" fill="none" xmlns="http://www.w3.org/2000/svg">
<circle cx="20" cy="20" r="20" fill="#836243"/>
<path d="M25 25.7174H24.3667C23.7 25.7174 23.0667 25.9758 22.6 26.4424L21.175 27.8508C20.525 28.4925 19.4667 28.4925 18.8167 27.8508L17.3917 26.4424C16.925 25.9758 16.2833 25.7174 15.625 25.7174H15C13.6167 25.7174 12.5 24.6091 12.5 23.2425V14.1508C12.5 12.7841 13.6167 11.6758 15 11.6758H25C26.3833 11.6758 27.5 12.7841 27.5 14.1508V23.2425C27.5 24.6008 26.3833 25.7174 25 25.7174Z" stroke="white" stroke-width="1.5" stroke-miterlimit="10" stroke-linecap="round" stroke-linejoin="round"/>
<path d="M15.8333 17.633C15.8333 16.858 16.4667 16.2246 17.2417 16.2246C18.0167 16.2246 18.65 16.858 18.65 17.633C18.65 19.1997 16.425 19.3663 15.9333 20.858C15.8333 21.1663 16.0917 21.4747 16.4167 21.4747H18.65" stroke="white" stroke-width="1.5" stroke-linecap="round" stroke-linejoin="round"/>
<path d="M23.3666 21.4661V16.7078C23.3666 16.4911 23.225 16.2994 23.0167 16.2411C22.8083 16.1827 22.5833 16.2661 22.4667 16.4494C21.8667 17.4161 21.2167 18.5161 20.65 19.4827C20.5583 19.6411 20.5583 19.8494 20.65 20.0077C20.7417 20.1661 20.9167 20.266 21.1083 20.266H24.1667" stroke="white" stroke-width="1.5" stroke-linecap="round" stroke-linejoin="round"/>
</svg>

