<svg width="120" height="120" viewBox="0 0 120 120" fill="none" xmlns="http://www.w3.org/2000/svg">
<path d="M45.0635 36.6662C31.3242 23.2982 40.7883 0 59.9578 0C79.1273 0 88.5913 23.2982 74.852 36.6662L59.9578 51.1579L45.0635 36.6662Z" fill="#4A3726"/>
<path d="M45.1495 83.3338C31.4102 96.7018 40.8742 120 60.0437 120C79.2132 120 88.6773 96.7018 74.938 83.3338L60.0437 68.8421L45.1495 83.3338Z" fill="#4A3726"/>
<path d="M36.6662 74.9365C23.2982 88.6758 0 79.2117 0 60.0422C0 40.8727 23.2982 31.4087 36.6662 45.1479L51.1579 60.0422L36.6662 74.9365Z" fill="#4A3726"/>
<path d="M83.3338 74.8505C96.7018 88.5898 120 79.1258 120 59.9563C120 40.7868 96.7018 31.3227 83.3338 45.062L68.8421 59.9563L83.3338 74.8505Z" fill="#4A3726"/>
</svg>
