<svg width="75" height="74" viewBox="0 0 75 74" fill="none" xmlns="http://www.w3.org/2000/svg">
<rect x="1" y="0.5" width="73" height="73" rx="36.5" fill="#141414"/>
<rect x="1" y="0.5" width="73" height="73" rx="36.5" stroke="#7B5C3F"/>
<path d="M37.0741 23.9736C37.3453 23.8551 37.6537 23.8551 37.9249 23.9736C43.1932 26.2755 48.1863 29.0893 52.8412 32.3522C53.1781 32.5883 53.3484 32.9977 53.2784 33.4031C53.2084 33.8084 52.9106 34.137 52.5141 34.2464C51.5438 34.5143 50.5818 34.8027 49.6286 35.1101C45.7596 36.3579 42.0352 37.9279 38.487 39.7886L38.4824 39.791C38.3215 39.8754 38.161 39.9604 38.0009 40.0459C37.688 40.2131 37.3123 40.2131 36.9994 40.0459C36.8377 39.9595 36.6757 39.8738 36.5133 39.7886C34.7588 38.8685 32.9612 38.0196 31.1244 37.2455V36.9286C31.1244 36.7425 31.2199 36.5774 31.3677 36.4879C33.4999 35.1961 35.6993 34.0042 37.9594 32.9186C38.4884 32.6645 38.7112 32.0297 38.4571 31.5008C38.2031 30.9718 37.5683 30.749 37.0394 31.0031C34.7171 32.1185 32.4573 33.3432 30.2666 34.6704C29.6243 35.0595 29.1925 35.6963 29.0505 36.4098C27.8393 35.9439 26.6123 35.51 25.3703 35.1095C24.4171 34.8021 23.4552 34.5142 22.4849 34.2464C22.0884 34.137 21.7906 33.8084 21.7206 33.403C21.6506 32.9977 21.8209 32.5883 22.1578 32.3522C26.8127 29.0893 31.8058 26.2755 37.0741 23.9736Z" fill="#836243"/>
<path d="M39.0023 41.9202C42.4574 40.0741 46.0873 38.5134 49.861 37.2695C50.0511 39.2738 50.1726 41.298 50.2229 43.3398C50.2336 43.7778 49.9744 44.1776 49.57 44.3464C45.5309 46.0328 41.689 48.0977 38.0886 50.497C37.7318 50.7348 37.267 50.7348 36.9102 50.497C33.3098 48.0977 29.4679 46.0328 25.4288 44.3464C25.0244 44.1776 24.7652 43.7778 24.776 43.3398C24.8263 41.2979 24.9477 39.2735 25.1379 37.269C26.4427 37.6991 27.7303 38.167 28.9994 38.6715V40.4713C28.3642 40.8387 27.9369 41.5254 27.9369 42.312C27.9369 43.0137 28.277 43.6359 28.8014 44.0229C28.6746 44.5621 28.4869 45.0898 28.2383 45.5951C28.8796 45.8978 29.5155 46.2102 30.1456 46.5322C30.5045 45.8022 30.7647 45.0361 30.9263 44.2538C31.6691 43.9227 32.1869 43.1778 32.1869 42.312C32.1869 41.5254 31.7596 40.8387 31.1244 40.4713V39.5578C32.7839 40.2829 34.4094 41.0714 35.998 41.9202C36.9366 42.4217 38.0636 42.4217 39.0023 41.9202Z" fill="#836243"/>
<path d="M26.8209 47.5711C27.4146 46.9773 27.8873 46.3085 28.2383 45.5951C28.8796 45.8978 29.5155 46.2102 30.1456 46.5322C29.6943 47.4499 29.0867 48.3104 28.3235 49.0737C27.9085 49.4886 27.2358 49.4886 26.8209 49.0737C26.4059 48.6587 26.4059 47.986 26.8209 47.5711Z" fill="#836243"/>
</svg>
