<svg width="44" height="44" viewBox="0 0 44 44" fill="none" xmlns="http://www.w3.org/2000/svg">
<path d="M36.2863 11.241C35.8212 11.2549 35.3798 11.4492 35.0556 11.7829L16.6299 30.2086L10.7351 24.3138C10.5701 24.142 10.3725 24.0048 10.1539 23.9103C9.93528 23.8159 9.7 23.7659 9.46184 23.7635C9.22368 23.7611 8.98743 23.8062 8.76693 23.8962C8.54642 23.9863 8.3461 24.1194 8.17769 24.2878C8.00928 24.4562 7.87616 24.6565 7.78614 24.877C7.69611 25.0975 7.65099 25.3338 7.65341 25.5719C7.65584 25.8101 7.70575 26.0454 7.80025 26.264C7.89474 26.4826 8.0319 26.6802 8.20371 26.8452L15.3642 34.0056C15.6999 34.3412 16.1552 34.5298 16.6299 34.5298C17.1046 34.5298 17.5598 34.3412 17.8955 34.0056L37.5869 14.3143C37.8456 14.0628 38.0223 13.7391 38.0938 13.3855C38.1653 13.0319 38.1284 12.665 37.9878 12.3328C37.8472 12.0006 37.6095 11.7186 37.3059 11.5237C37.0023 11.3289 36.6469 11.2304 36.2863 11.241Z" fill="white"/>
</svg>
