<svg width="82" height="82" viewBox="0 0 82 82" fill="none" xmlns="http://www.w3.org/2000/svg">
<rect x="0.5" y="0.5" width="81" height="81" rx="40.5" stroke="#926202"/>
<rect x="10.5" y="10.5" width="61" height="61" rx="30.5" stroke="#B67B03"/>
<rect width="34" height="34" transform="translate(24 24)" fill="#FFF6ED"/>
<path d="M28.8941 36.1057C30.8858 38.0974 34.115 38.0974 36.1066 36.1057C36.3514 35.861 36.566 35.5975 36.7506 35.32C37.6644 36.694 39.2266 37.5995 41.0004 37.5995C42.7744 37.5995 44.3368 36.6938 45.2505 35.3195C45.4352 35.5972 45.65 35.8608 45.8949 36.1058C47.8866 38.0974 51.1157 38.0974 53.1074 36.1058C55.0991 34.1141 55.0991 30.8849 53.1074 28.8933L52.6099 28.3957C51.9722 27.7581 51.1074 27.3999 50.2057 27.3999H31.7958C30.894 27.3999 30.0292 27.7581 29.3916 28.3957L28.8941 28.8932C26.9025 30.8849 26.9025 34.114 28.8941 36.1057Z" fill="#BE7D35"/>
<path d="M29.1004 39.3547C31.528 40.559 34.4621 40.3946 36.7514 38.8614C37.9659 39.674 39.4274 40.1495 41.0004 40.1495C42.5735 40.1495 44.0352 39.6739 45.2498 38.8612C47.5389 40.3945 50.4728 40.5591 52.9004 39.3551V52.0499H53.3254C54.0296 52.0499 54.6004 52.6207 54.6004 53.3249C54.6004 54.0291 54.0296 54.5999 53.3254 54.5999H45.6754C44.9712 54.5999 44.4004 54.0291 44.4004 53.3249V47.3749C44.4004 46.6707 43.8296 46.0999 43.1254 46.0999H38.8754C38.1712 46.0999 37.6004 46.6707 37.6004 47.3749V53.3249C37.6004 54.0291 37.0296 54.5999 36.3254 54.5999H28.6754C27.9712 54.5999 27.4004 54.0291 27.4004 53.3249C27.4004 52.6207 27.9712 52.0499 28.6754 52.0499H29.1004V39.3547Z" fill="#BE7D35"/>
</svg>
