<svg width="32" height="32" viewBox="0 0 32 32" fill="none" xmlns="http://www.w3.org/2000/svg">
<g clip-path="url(#clip0_2170_33110)">
<path d="M27.493 11.6013C26.1063 5.42797 20.7197 2.66797 15.9997 2.66797C15.9997 2.66797 15.9997 2.66797 15.9863 2.66797C11.2797 2.66797 5.90633 5.42797 4.50633 11.588C2.933 18.468 7.14633 24.2946 10.9597 27.9746C12.373 29.3346 14.1863 30.0146 15.9997 30.0146C17.813 30.0146 19.6263 29.3346 21.0263 27.9746C24.8397 24.2946 29.053 18.4813 27.493 11.6013ZM19.6663 15.668H12.333C11.7863 15.668 11.333 15.2146 11.333 14.668C11.333 14.1213 11.7863 13.668 12.333 13.668H19.6663C20.213 13.668 20.6663 14.1213 20.6663 14.668C20.6663 15.2146 20.213 15.668 19.6663 15.668Z" fill="#392B1D"/>
</g>
<defs>
<clipPath id="clip0_2170_33110">
<rect width="32" height="32" fill="white"/>
</clipPath>
</defs>
</svg>
