<svg width="32" height="32" viewBox="0 0 32 32" fill="none" xmlns="http://www.w3.org/2000/svg">
<path d="M22.666 4.66406H9.33268C5.33268 4.66406 2.66602 6.66406 2.66602 11.3307V20.6641C2.66602 25.3307 5.33268 27.3307 9.33268 27.3307H22.666C26.666 27.3307 29.3327 25.3307 29.3327 20.6641V11.3307C29.3327 6.66406 26.666 4.66406 22.666 4.66406ZM23.2927 12.7841L19.1193 16.1174C18.2393 16.8241 17.1193 17.1707 15.9993 17.1707C14.8793 17.1707 13.746 16.8241 12.8793 16.1174L8.70602 12.7841C8.27935 12.4374 8.21268 11.7974 8.54602 11.3707C8.89268 10.9441 9.51935 10.8641 9.94602 11.2107L14.1193 14.5441C15.1327 15.3574 16.8527 15.3574 17.866 14.5441L22.0393 11.2107C22.466 10.8641 23.106 10.9307 23.4393 11.3707C23.786 11.7974 23.7193 12.4374 23.2927 12.7841Z" fill="#392B1D"/>
</svg>
