<svg width="40" height="40" viewBox="0 0 40 40" fill="none" xmlns="http://www.w3.org/2000/svg">
<circle cx="20" cy="20" r="20" fill="#836243"/>
<path d="M24.1667 17.4993C24.1667 20.7243 21.3667 23.3327 17.9167 23.3327L17.1417 24.266L16.6833 24.816C16.2917 25.2827 15.5417 25.1827 15.2833 24.6243L14.1667 22.166C12.65 21.0993 11.6667 19.4077 11.6667 17.4993C11.6667 14.2743 14.4667 11.666 17.9167 11.666C20.4333 11.666 22.6083 13.0577 23.5833 15.0577C23.9583 15.7994 24.1667 16.6243 24.1667 17.4993Z" stroke="white" stroke-width="1.5" stroke-linecap="round" stroke-linejoin="round"/>
<path d="M28.3333 20.7169C28.3333 22.6252 27.35 24.3169 25.8333 25.3836L24.7167 27.8419C24.4583 28.4002 23.7083 28.5086 23.3167 28.0336L22.0833 26.5502C20.0667 26.5502 18.2667 25.6586 17.1417 24.2669L17.9167 23.3336C21.3667 23.3336 24.1667 20.7253 24.1667 17.5003C24.1667 16.6253 23.9583 15.8003 23.5833 15.0586C26.3083 15.6836 28.3333 17.9836 28.3333 20.7169Z" stroke="white" stroke-width="1.5" stroke-linecap="round" stroke-linejoin="round"/>
<path d="M15.8333 17.5H20" stroke="white" stroke-width="1.5" stroke-linecap="round" stroke-linejoin="round"/>
</svg>
