<svg width="40" height="40" viewBox="0 0 40 40" fill="none" xmlns="http://www.w3.org/2000/svg">
<circle cx="20" cy="20" r="20" fill="#836243"/>
<path d="M20.0167 12.4258C17.2583 12.4258 15.0167 14.6674 15.0167 17.4258V19.8341C15.0167 20.3424 14.8 21.1174 14.5417 21.5508L13.5833 23.1424C12.9917 24.1258 13.4 25.2174 14.4833 25.5841C18.075 26.7841 21.95 26.7841 25.5417 25.5841C26.55 25.2508 26.9917 24.0591 26.4417 23.1424L25.4833 21.5508C25.2333 21.1174 25.0167 20.3424 25.0167 19.8341V17.4258C25.0167 14.6758 22.7667 12.4258 20.0167 12.4258Z" stroke="white" stroke-width="1.5" stroke-miterlimit="10" stroke-linecap="round"/>
<path d="M21.5583 12.6672C21.3 12.5922 21.0333 12.5339 20.7583 12.5005C19.9583 12.4005 19.1917 12.4589 18.475 12.6672C18.7167 12.0505 19.3167 11.6172 20.0167 11.6172C20.7167 11.6172 21.3167 12.0505 21.5583 12.6672Z" stroke="white" stroke-width="1.5" stroke-miterlimit="10" stroke-linecap="round" stroke-linejoin="round"/>
<path d="M22.5167 25.8828C22.5167 27.2578 21.3917 28.3828 20.0167 28.3828C19.3333 28.3828 18.7 28.0995 18.25 27.6495C17.8 27.1995 17.5167 26.5661 17.5167 25.8828" stroke="white" stroke-width="1.5" stroke-miterlimit="10"/>
</svg>
