<svg width="40" height="40" viewBox="0 0 40 40" fill="none" xmlns="http://www.w3.org/2000/svg">
<circle cx="20" cy="20" r="20" fill="#836243"/>
<path d="M28.3333 20.0007V24.1673C28.3333 26.6673 26.6667 28.334 24.1667 28.334H15.8333C13.3333 28.334 11.6667 26.6673 11.6667 24.1673V20.0007C11.6667 17.734 13.0333 16.1506 15.1583 15.884C15.375 15.8506 15.6 15.834 15.8333 15.834H24.1667C24.3833 15.834 24.5917 15.8423 24.7917 15.8756C26.9417 16.1256 28.3333 17.7173 28.3333 20.0007Z" stroke="white" stroke-width="1.5" stroke-linecap="round" stroke-linejoin="round"/>
<path d="M24.7928 15.8743C24.5928 15.841 24.3845 15.8327 24.1678 15.8327H15.8345C15.6012 15.8327 15.3762 15.8494 15.1595 15.8827C15.2762 15.6494 15.4428 15.4327 15.6428 15.2327L18.3512 12.516C19.4928 11.3827 21.3428 11.3827 22.4845 12.516L23.9428 13.991C24.4762 14.516 24.7595 15.1827 24.7928 15.8743Z" stroke="white" stroke-width="1.5" stroke-linecap="round" stroke-linejoin="round"/>
<path d="M28.3333 20.416H25.8333C24.9167 20.416 24.1667 21.166 24.1667 22.0827C24.1667 22.9993 24.9167 23.7493 25.8333 23.7493H28.3333" stroke="white" stroke-width="1.5" stroke-linecap="round" stroke-linejoin="round"/>
</svg>
