<svg width="32" height="32" viewBox="0 0 32 32" fill="none" xmlns="http://www.w3.org/2000/svg">
<path d="M14.7337 19.9346L12.267 22.4013C11.747 22.9213 10.9203 22.9213 10.387 22.4146C10.2403 22.268 10.0937 22.1346 9.94699 21.988C8.57366 20.6013 7.33366 19.148 6.22699 17.628C5.13366 16.108 4.25366 14.588 3.61366 13.0813C2.98699 11.5613 2.66699 10.108 2.66699 8.7213C2.66699 7.81464 2.82699 6.94797 3.14699 6.14797C3.46699 5.33464 3.97366 4.58797 4.68033 3.9213C5.53366 3.0813 6.46699 2.66797 7.45366 2.66797C7.82699 2.66797 8.20033 2.74797 8.53366 2.90797C8.88033 3.06797 9.18699 3.30797 9.42699 3.65464L12.5203 8.01464C12.7603 8.34797 12.9337 8.65464 13.0537 8.94797C13.1737 9.22797 13.2403 9.50797 13.2403 9.7613C13.2403 10.0813 13.147 10.4013 12.9603 10.708C12.787 11.0146 12.5337 11.3346 12.2137 11.6546L11.2003 12.708C11.0537 12.8546 10.987 13.028 10.987 13.2413C10.987 13.348 11.0003 13.4413 11.027 13.548C11.067 13.6546 11.107 13.7346 11.1337 13.8146C11.3737 14.2546 11.787 14.828 12.3737 15.5213C12.9737 16.2146 13.6137 16.9213 14.307 17.628C14.4403 17.7613 14.587 17.8946 14.7203 18.028C15.2537 18.548 15.267 19.4013 14.7337 19.9346Z" fill="#392B1D"/>
<path d="M29.2931 24.4388C29.2931 24.8121 29.2265 25.1988 29.0931 25.5721C29.0531 25.6788 29.0131 25.7854 28.9598 25.8921C28.7331 26.3721 28.4398 26.8254 28.0531 27.2521C27.3998 27.9721 26.6798 28.4921 25.8665 28.8254C25.8531 28.8254 25.8398 28.8387 25.8265 28.8387C25.0398 29.1588 24.1865 29.3321 23.2665 29.3321C21.9065 29.3321 20.4531 29.0121 18.9198 28.3588C17.3865 27.7054 15.8531 26.8254 14.3331 25.7188C13.8131 25.3321 13.2931 24.9454 12.7998 24.5321L17.1598 20.1721C17.5331 20.4521 17.8665 20.6654 18.1465 20.8121C18.2131 20.8387 18.2931 20.8787 18.3865 20.9187C18.4931 20.9587 18.5998 20.9721 18.7198 20.9721C18.9465 20.9721 19.1198 20.8921 19.2665 20.7454L20.2798 19.7454C20.6131 19.4121 20.9331 19.1588 21.2398 18.9988C21.5465 18.8121 21.8531 18.7188 22.1865 18.7188C22.4398 18.7188 22.7065 18.7721 22.9998 18.8921C23.2931 19.0121 23.5998 19.1854 23.9331 19.4121L28.3465 22.5454C28.6931 22.7854 28.9331 23.0654 29.0798 23.3987C29.2131 23.7321 29.2931 24.0654 29.2931 24.4388Z" fill="#392B1D"/>
</svg>
