<svg width="116" height="80" viewBox="0 0 116 80" fill="none" xmlns="http://www.w3.org/2000/svg">
<path d="M47.1406 38.5391V35.2071H38.2086V32.0571L44.6626 18.3791H48.5126L42.0586 32.0571H47.1406V26.8071H50.5566V32.0571H52.4466V35.2071H50.5566V38.5391H47.1406ZM55.8169 38.5391V35.0811H59.2749V38.5391H55.8169ZM70.2708 17.9871C71.5868 17.9871 72.7721 18.2997 73.8268 18.9251C74.8814 19.5411 75.7121 20.3997 76.3188 21.5011C76.9348 22.5931 77.2428 23.8531 77.2428 25.2811V31.4271C77.2428 32.9484 76.9348 34.2784 76.3188 35.4171C75.7121 36.5464 74.8581 37.4191 73.7568 38.0351C72.6554 38.6511 71.3674 38.9591 69.8928 38.9591C68.8754 38.9591 67.9141 38.7864 67.0088 38.4411C66.1034 38.0864 65.2914 37.5451 64.5728 36.8171L66.9948 34.4511C67.3588 34.8711 67.7928 35.2024 68.2968 35.4451C68.8101 35.6784 69.3421 35.7951 69.8928 35.7951C70.6768 35.7951 71.3628 35.6131 71.9508 35.2491C72.5388 34.8757 72.9961 34.3951 73.3228 33.8071C73.6494 33.2097 73.8128 32.5704 73.8128 31.8891V28.5431L74.4148 29.2151C73.8454 29.8871 73.1548 30.4144 72.3428 30.7971C71.5308 31.1704 70.6768 31.3571 69.7808 31.3571C68.5208 31.3571 67.4008 31.0677 66.4208 30.4891C65.4501 29.9104 64.6848 29.1264 64.1248 28.1371C63.5741 27.1384 63.2988 26.0091 63.2988 24.7491C63.2988 23.4891 63.6161 22.3504 64.2508 21.3331C64.8854 20.3064 65.7301 19.4944 66.7848 18.8971C67.8488 18.2904 69.0108 17.9871 70.2708 17.9871ZM70.2708 21.2071C69.6174 21.2071 69.0201 21.3657 68.4788 21.6831C67.9374 22.0004 67.5081 22.4297 67.1908 22.9711C66.8734 23.5031 66.7148 24.0957 66.7148 24.7491C66.7148 25.4024 66.8688 25.9997 67.1768 26.5411C67.4941 27.0824 67.9188 27.5117 68.4508 27.8291C68.9921 28.1464 69.5894 28.3051 70.2428 28.3051C70.8961 28.3051 71.4934 28.1464 72.0348 27.8291C72.5761 27.5117 73.0054 27.0824 73.3228 26.5411C73.6494 25.9997 73.8128 25.4024 73.8128 24.7491C73.8128 24.1144 73.6541 23.5311 73.3368 22.9991C73.0194 22.4577 72.5901 22.0237 72.0488 21.6971C71.5168 21.3704 70.9241 21.2071 70.2708 21.2071Z" fill="black"/>
<rect x="8.19231" y="54.7314" width="16.5385" height="16.5385" rx="8.26923" fill="#7B5C3F"/>
<rect x="8.19231" y="54.7314" width="16.5385" height="16.5385" rx="8.26923" stroke="#7B5C3F" stroke-width="0.384615"/>
<path d="M16.1375 58.8886C16.2889 58.6529 16.6333 58.6529 16.7847 58.8886L17.9536 60.7084C18.0056 60.7895 18.0863 60.8481 18.1795 60.8725L20.2714 61.4218C20.5423 61.493 20.6488 61.8206 20.4714 62.0374L19.1019 63.7114C19.0409 63.786 19.0101 63.8808 19.0156 63.977L19.1396 66.1363C19.1557 66.4159 18.877 66.6184 18.616 66.5167L16.6007 65.7315C16.5109 65.6965 16.4113 65.6965 16.3215 65.7315L14.3062 66.5167C14.0452 66.6184 13.7665 66.4159 13.7826 66.1363L13.9066 63.977C13.9121 63.8808 13.8813 63.786 13.8203 63.7114L12.4508 62.0374C12.2734 61.8206 12.3798 61.493 12.6508 61.4218L14.7427 60.8725C14.8359 60.8481 14.9165 60.7895 14.9686 60.7084L16.1375 58.8886Z" fill="#FFE600"/>
<rect x="28.9618" y="54.7314" width="16.5385" height="16.5385" rx="8.26923" fill="#7B5C3F"/>
<rect x="28.9618" y="54.7314" width="16.5385" height="16.5385" rx="8.26923" stroke="#7B5C3F" stroke-width="0.384615"/>
<path d="M36.907 58.8886C37.0584 58.6529 37.4029 58.6529 37.5542 58.8886L38.7231 60.7084C38.7752 60.7895 38.8558 60.8481 38.949 60.8725L41.0409 61.4218C41.3119 61.493 41.4183 61.8206 41.2409 62.0374L39.8714 63.7114C39.8104 63.786 39.7796 63.8808 39.7851 63.977L39.9091 66.1363C39.9252 66.4159 39.6465 66.6184 39.3855 66.5167L37.3703 65.7315C37.2805 65.6965 37.1808 65.6965 37.091 65.7315L35.0757 66.5167C34.8147 66.6184 34.536 66.4159 34.5521 66.1363L34.6761 63.977C34.6816 63.8808 34.6508 63.786 34.5898 63.7114L33.2203 62.0374C33.0429 61.8206 33.1494 61.493 33.4203 61.4218L35.5122 60.8725C35.6054 60.8481 35.6861 60.7895 35.7381 60.7084L36.907 58.8886Z" fill="#FFE600"/>
<rect x="49.7314" y="54.7314" width="16.5385" height="16.5385" rx="8.26923" fill="#7B5C3F"/>
<rect x="49.7314" y="54.7314" width="16.5385" height="16.5385" rx="8.26923" stroke="#7B5C3F" stroke-width="0.384615"/>
<path d="M57.6765 58.8886C57.8279 58.6529 58.1724 58.6529 58.3238 58.8886L59.4926 60.7084C59.5447 60.7895 59.6253 60.8481 59.7185 60.8725L61.8105 61.4218C62.0814 61.493 62.1878 61.8206 62.0105 62.0374L60.6409 63.7114C60.5799 63.786 60.5491 63.8808 60.5546 63.977L60.6787 66.1363C60.6947 66.4159 60.416 66.6184 60.1551 66.5167L58.1398 65.7315C58.05 65.6965 57.9503 65.6965 57.8605 65.7315L55.8452 66.5167C55.5843 66.6184 55.3056 66.4159 55.3216 66.1363L55.4457 63.977C55.4512 63.8808 55.4204 63.786 55.3594 63.7114L53.9898 62.0374C53.8125 61.8206 53.9189 61.493 54.1898 61.4218L56.2818 60.8725C56.375 60.8481 56.4556 60.7895 56.5077 60.7084L57.6765 58.8886Z" fill="#FFE600"/>
<rect x="70.5009" y="54.7314" width="16.5385" height="16.5385" rx="8.26923" fill="#7B5C3F"/>
<rect x="70.5009" y="54.7314" width="16.5385" height="16.5385" rx="8.26923" stroke="#7B5C3F" stroke-width="0.384615"/>
<path d="M78.4461 58.8886C78.5974 58.6529 78.9419 58.6529 79.0933 58.8886L80.2622 60.7084C80.3142 60.7895 80.3949 60.8481 80.4881 60.8725L82.58 61.4218C82.8509 61.493 82.9574 61.8206 82.78 62.0374L81.4105 63.7114C81.3495 63.786 81.3187 63.8808 81.3242 63.977L81.4482 66.1363C81.4643 66.4159 81.1856 66.6184 80.9246 66.5167L78.9093 65.7315C78.8195 65.6965 78.7198 65.6965 78.63 65.7315L76.6148 66.5167C76.3538 66.6184 76.0751 66.4159 76.0912 66.1363L76.2152 63.977C76.2207 63.8808 76.1899 63.786 76.1289 63.7114L74.7594 62.0374C74.582 61.8206 74.6884 61.493 74.9594 61.4218L77.0513 60.8725C77.1445 60.8481 77.2251 60.7895 77.2772 60.7084L78.4461 58.8886Z" fill="#FFE600"/>
<rect x="91.2685" y="54.7314" width="16.5385" height="16.5385" rx="8.26923" fill="#7B5C3F"/>
<rect x="91.2685" y="54.7314" width="16.5385" height="16.5385" rx="8.26923" stroke="#7B5C3F" stroke-width="0.384615"/>
<path d="M99.2136 58.8886C99.365 58.6529 99.7095 58.6529 99.8609 58.8886L101.03 60.7084C101.082 60.7895 101.162 60.8481 101.256 60.8725L103.348 61.4218C103.618 61.493 103.725 61.8206 103.548 62.0374L102.178 63.7114C102.117 63.786 102.086 63.8808 102.092 63.977L102.216 66.1363C102.232 66.4159 101.953 66.6184 101.692 66.5167L99.6769 65.7315C99.5871 65.6965 99.4874 65.6965 99.3976 65.7315L97.3824 66.5167C97.1214 66.6184 96.8427 66.4159 96.8587 66.1363L96.9828 63.977C96.9883 63.8808 96.9575 63.786 96.8965 63.7114L95.5269 62.0374C95.3496 61.8206 95.456 61.493 95.7269 61.4218L97.8189 60.8725C97.9121 60.8481 97.9927 60.7895 98.0448 60.7084L99.2136 58.8886Z" fill="#FFE600" fill-opacity="0.8"/>
</svg>
