<svg width="40" height="40" viewBox="0 0 40 40" fill="none" xmlns="http://www.w3.org/2000/svg">
<circle cx="20" cy="20" r="20" fill="#836243"/>
<path d="M21.4417 12.9242L22.9083 15.8576C23.1083 16.2659 23.6417 16.6576 24.0917 16.7326L26.75 17.1742C28.45 17.4576 28.85 18.6909 27.625 19.9076L25.5583 21.9742C25.2083 22.3242 25.0167 22.9992 25.125 23.4826L25.7167 26.0409C26.1833 28.0659 25.1083 28.8492 23.3167 27.7909L20.825 26.3159C20.375 26.0492 19.6333 26.0492 19.175 26.3159L16.6833 27.7909C14.9 28.8492 13.8167 28.0576 14.2833 26.0409L14.875 23.4826C14.9833 22.9992 14.7917 22.3242 14.4417 21.9742L12.375 19.9076C11.1583 18.6909 11.55 17.4576 13.25 17.1742L15.9083 16.7326C16.35 16.6576 16.8833 16.2659 17.0833 15.8576L18.55 12.9242C19.35 11.3326 20.65 11.3326 21.4417 12.9242Z" stroke="white" stroke-width="1.5" stroke-linecap="round" stroke-linejoin="round"/>
</svg>
