<svg width="133" height="108" viewBox="0 0 133 108" fill="none" xmlns="http://www.w3.org/2000/svg">
<g filter="url(#filter0_d_2761_113)">
<path d="M64.3445 3.23766C66.1323 1.74136 68.7355 1.74136 70.5233 3.23766L72.406 4.81346C73.794 5.97511 75.6438 6.42404 77.4098 6.02783L79.8459 5.48129C82.1401 4.96658 84.4704 6.18465 85.3574 8.36217L86.2045 10.4418C86.8993 12.1476 88.3614 13.4232 90.1457 13.8803L92.4058 14.4593C94.725 15.0534 96.2551 17.2617 95.9966 19.6418L95.7758 21.6752C95.5729 23.5435 96.2856 25.3946 97.6891 26.6443L99.2596 28.0429C101.069 29.6543 101.399 32.3596 100.029 34.3584L98.8823 36.0321C97.8146 37.5904 97.5705 39.5702 98.2279 41.3411L98.9267 43.2238C99.7663 45.4856 98.8018 48.0195 96.6708 49.1505L94.7161 50.188C93.0712 51.0611 91.9442 52.6693 91.6848 54.5133L91.388 56.6237C91.0576 58.9725 89.0654 60.7306 86.6937 60.7661L84.2586 60.8027C82.4357 60.83 80.7312 61.7109 79.6545 63.1821L78.2594 65.0884C76.8794 66.974 74.3446 67.5962 72.2484 66.5638L70.0024 65.4576C68.3829 64.66 66.4849 64.66 64.8654 65.4576L62.6194 66.5638C60.5232 67.5962 57.9883 66.974 56.6084 65.0884L55.2133 63.1821C54.1366 61.7109 52.4321 60.83 50.6092 60.8027L48.1741 60.7661C45.8024 60.7306 43.8102 58.9725 43.4798 56.6237L43.183 54.5133C42.9236 52.6693 41.7966 51.0611 40.1517 50.188L38.197 49.1505C36.066 48.0195 35.1015 45.4856 35.941 43.2238L36.6399 41.3411C37.2972 39.5702 37.0532 37.5904 35.9855 36.0321L34.8386 34.3584C33.469 32.3596 33.7987 29.6543 35.6082 28.0429L37.1787 26.6443C38.5822 25.3946 39.2949 23.5435 39.092 21.6752L38.8712 19.6418C38.6127 17.2617 40.1428 15.0534 42.462 14.4593L44.722 13.8803C46.5063 13.4232 47.9685 12.1476 48.6633 10.4418L49.5104 8.36217C50.3974 6.18465 52.7277 4.96658 55.0219 5.48129L57.458 6.02783C59.224 6.42404 61.0738 5.97511 62.4618 4.81346L64.3445 3.23766Z" fill="url(#paint0_linear_2761_113)" stroke="#665000"/>
<ellipse cx="67.2012" cy="34.7727" rx="25.4199" ry="24.7727" fill="#785E03"/>
<mask id="mask0_2761_113" style="mask-type:alpha" maskUnits="userSpaceOnUse" x="44" y="13" width="49" height="48">
<ellipse cx="68.5917" cy="37.2431" rx="23.9686" ry="23.3584" fill="#C28B37"/>
</mask>
<g mask="url(#mask0_2761_113)">
<ellipse cx="67.1992" cy="34.7727" rx="25.4199" ry="24.7727" fill="#8A6B1B"/>
</g>
<ellipse cx="67.8995" cy="34.5449" rx="20.5225" ry="20" fill="#B3881C"/>
<path d="M68.5934 19.4439L67.7036 17.7097L66.8139 19.4439L62.3567 28.1314L53.4845 29.2121L51.5537 29.4474L52.8685 30.8808L59.005 37.5706L57.3198 47.2066L56.9824 49.1356L58.7429 48.2778L67.7036 43.9115L76.6644 48.2778L78.4216 49.134L78.0877 47.208L76.4171 37.5705L82.5395 30.8799L83.8507 29.447L81.9227 29.2121L73.0506 28.1314L68.5934 19.4439Z" fill="url(#paint1_linear_2761_113)" stroke="#AE8620" stroke-width="2"/>
<path d="M33.8516 65L33.8516 93.6364L4.00066 93.6364L12.7613 79.3182L4.00066 65L33.8516 65Z" fill="#983535"/>
<path d="M99.1484 65L99.1484 93.6364L128.999 93.6364L120.239 79.3182L128.999 65L99.1484 65Z" fill="#983535"/>
<path d="M25.4551 72.7273L33.8506 65V100H25.4551V72.7273Z" fill="#752727"/>
<path d="M107.545 73.1818L99.1494 65V100H107.545V73.1818Z" fill="#752727"/>
<rect x="25.4551" y="73.1816" width="82.09" height="26.8182" fill="#CE4444"/>
</g>
<defs>
<filter id="filter0_d_2761_113" x="0" y="1.61523" width="133" height="106.385" filterUnits="userSpaceOnUse" color-interpolation-filters="sRGB">
<feFlood flood-opacity="0" result="BackgroundImageFix"/>
<feColorMatrix in="SourceAlpha" type="matrix" values="0 0 0 0 0 0 0 0 0 0 0 0 0 0 0 0 0 0 127 0" result="hardAlpha"/>
<feOffset dy="4"/>
<feGaussianBlur stdDeviation="2"/>
<feComposite in2="hardAlpha" operator="out"/>
<feColorMatrix type="matrix" values="0 0 0 0 0 0 0 0 0 0 0 0 0 0 0 0 0 0 0.25 0"/>
<feBlend mode="normal" in2="BackgroundImageFix" result="effect1_dropShadow_2761_113"/>
<feBlend mode="normal" in="SourceGraphic" in2="effect1_dropShadow_2761_113" result="shape"/>
</filter>
<linearGradient id="paint0_linear_2761_113" x1="67.4339" y1="0" x2="67.4339" y2="70" gradientUnits="userSpaceOnUse">
<stop stop-color="#FFE175"/>
<stop offset="1" stop-color="#FFD12E"/>
</linearGradient>
<linearGradient id="paint1_linear_2761_113" x1="67.7036" y1="19.9004" x2="67.7036" y2="47.3788" gradientUnits="userSpaceOnUse">
<stop stop-color="white"/>
<stop offset="1" stop-color="#FFE86D"/>
</linearGradient>
</defs>
</svg>
