<svg width="113" height="90" viewBox="0 0 113 90" fill="none" xmlns="http://www.w3.org/2000/svg">
<path d="M39.4834 38.5V22.022L35.7034 24.332V20.608L39.4834 18.34H42.9274V38.5H39.4834ZM54.0288 38.878C53.0208 38.878 52.0688 38.682 51.1728 38.29C50.2768 37.898 49.4974 37.3427 48.8348 36.624C48.1814 35.9053 47.7101 35.056 47.4208 34.076L50.6828 33.194C50.9161 33.9967 51.3408 34.6173 51.9568 35.056C52.5821 35.4853 53.2681 35.6953 54.0148 35.686C54.6774 35.686 55.2701 35.532 55.7928 35.224C56.3154 34.916 56.7261 34.5007 57.0248 33.978C57.3234 33.446 57.4728 32.8533 57.4728 32.2C57.4728 31.2013 57.1508 30.366 56.5068 29.694C55.8628 29.022 55.0321 28.686 54.0148 28.686C53.7068 28.686 53.4034 28.728 53.1048 28.812C52.8154 28.896 52.5354 29.0127 52.2648 29.162L50.7248 26.502L57.5008 20.706L57.7948 21.518H48.2048V18.34H60.5668V21.532L55.1208 26.768L55.0928 25.774C56.3154 25.858 57.3561 26.1987 58.2148 26.796C59.0828 27.3933 59.7454 28.1633 60.2028 29.106C60.6694 30.0487 60.9028 31.08 60.9028 32.2C60.9028 33.4693 60.5901 34.608 59.9648 35.616C59.3488 36.624 58.5181 37.422 57.4728 38.01C56.4368 38.5887 55.2888 38.878 54.0288 38.878ZM70.5083 38.92C69.4816 38.92 68.525 38.71 67.6383 38.29C66.7516 37.8607 65.9863 37.2727 65.3423 36.526C64.7076 35.7793 64.2503 34.9113 63.9703 33.922L67.2183 33.054C67.349 33.5953 67.587 34.062 67.9323 34.454C68.287 34.846 68.6976 35.1493 69.1643 35.364C69.6403 35.5787 70.1303 35.686 70.6343 35.686C71.2876 35.686 71.885 35.5273 72.4263 35.21C72.9676 34.8927 73.397 34.468 73.7143 33.936C74.0316 33.3947 74.1903 32.7973 74.1903 32.144C74.1903 31.4907 74.027 30.898 73.7003 30.366C73.383 29.8247 72.9536 29.4 72.4123 29.092C71.871 28.7747 71.2783 28.616 70.6343 28.616C69.8596 28.616 69.2156 28.756 68.7023 29.036C68.1983 29.316 67.811 29.6147 67.5403 29.932L64.6563 29.008L65.2723 18.34H76.2203V21.504H67.0783L68.3383 20.314L67.8903 27.734L67.2743 26.978C67.797 26.502 68.4036 26.1473 69.0943 25.914C69.785 25.6807 70.4523 25.564 71.0963 25.564C72.3563 25.564 73.4716 25.8533 74.4423 26.432C75.4223 27.0013 76.1876 27.7807 76.7383 28.77C77.2983 29.7593 77.5783 30.884 77.5783 32.144C77.5783 33.404 77.2516 34.5473 76.5983 35.574C75.945 36.5913 75.0816 37.4033 74.0083 38.01C72.9443 38.6167 71.7776 38.92 70.5083 38.92Z" fill="black"/>
<path d="M18.0855 75.5V61.1H24.0355C24.1755 61.1 24.3555 61.1067 24.5755 61.12C24.7955 61.1267 24.9989 61.1467 25.1855 61.18C26.0189 61.3067 26.7055 61.5833 27.2455 62.01C27.7922 62.4367 28.1955 62.9767 28.4555 63.63C28.7222 64.2767 28.8555 64.9967 28.8555 65.79C28.8555 66.9633 28.5589 67.9733 27.9655 68.82C27.3722 69.66 26.4622 70.18 25.2355 70.38L24.2055 70.47H20.4955V75.5H18.0855ZM26.3555 75.5L23.5155 69.64L25.9655 69.1L29.0855 75.5H26.3555ZM20.4955 68.22H23.9355C24.0689 68.22 24.2189 68.2133 24.3855 68.2C24.5522 68.1867 24.7055 68.16 24.8455 68.12C25.2455 68.02 25.5589 67.8433 25.7855 67.59C26.0189 67.3367 26.1822 67.05 26.2755 66.73C26.3755 66.41 26.4255 66.0967 26.4255 65.79C26.4255 65.4833 26.3755 65.17 26.2755 64.85C26.1822 64.5233 26.0189 64.2333 25.7855 63.98C25.5589 63.7267 25.2455 63.55 24.8455 63.45C24.7055 63.41 24.5522 63.3867 24.3855 63.38C24.2189 63.3667 24.0689 63.36 23.9355 63.36H20.4955V68.22ZM36.1987 75.8C35.1053 75.8 34.1453 75.5633 33.3187 75.09C32.492 74.6167 31.8453 73.96 31.3787 73.12C30.9187 72.28 30.6887 71.3133 30.6887 70.22C30.6887 69.04 30.9153 68.0167 31.3687 67.15C31.822 66.2767 32.452 65.6 33.2587 65.12C34.0653 64.64 34.9987 64.4 36.0587 64.4C37.1787 64.4 38.1287 64.6633 38.9087 65.19C39.6953 65.71 40.2787 66.4467 40.6587 67.4C41.0387 68.3533 41.182 69.4767 41.0887 70.77H38.6987V69.89C38.692 68.7167 38.4853 67.86 38.0787 67.32C37.672 66.78 37.032 66.51 36.1587 66.51C35.172 66.51 34.4387 66.8167 33.9587 67.43C33.4787 68.0367 33.2387 68.9267 33.2387 70.1C33.2387 71.1933 33.4787 72.04 33.9587 72.64C34.4387 73.24 35.1387 73.54 36.0587 73.54C36.652 73.54 37.162 73.41 37.5887 73.15C38.022 72.8833 38.3553 72.5 38.5887 72L40.9687 72.72C40.5553 73.6933 39.9153 74.45 39.0487 74.99C38.1887 75.53 37.2387 75.8 36.1987 75.8ZM32.4787 70.77V68.95H39.9087V70.77H32.4787ZM45.8493 75.5L41.9293 64.7H44.3393L47.0593 72.53L49.7693 64.7H52.1893L48.2693 75.5H45.8493ZM54.184 63.06V60.85H56.594V63.06H54.184ZM54.184 75.5V64.7H56.594V75.5H54.184ZM64.4995 75.8C63.4061 75.8 62.4461 75.5633 61.6195 75.09C60.7928 74.6167 60.1461 73.96 59.6795 73.12C59.2195 72.28 58.9895 71.3133 58.9895 70.22C58.9895 69.04 59.2161 68.0167 59.6695 67.15C60.1228 66.2767 60.7528 65.6 61.5595 65.12C62.3661 64.64 63.2995 64.4 64.3595 64.4C65.4795 64.4 66.4295 64.6633 67.2095 65.19C67.9961 65.71 68.5795 66.4467 68.9595 67.4C69.3395 68.3533 69.4828 69.4767 69.3895 70.77H66.9995V69.89C66.9928 68.7167 66.7861 67.86 66.3795 67.32C65.9728 66.78 65.3328 66.51 64.4595 66.51C63.4728 66.51 62.7395 66.8167 62.2595 67.43C61.7795 68.0367 61.5395 68.9267 61.5395 70.1C61.5395 71.1933 61.7795 72.04 62.2595 72.64C62.7395 73.24 63.4395 73.54 64.3595 73.54C64.9528 73.54 65.4628 73.41 65.8895 73.15C66.3228 72.8833 66.6561 72.5 66.8895 72L69.2695 72.72C68.8561 73.6933 68.2161 74.45 67.3495 74.99C66.4895 75.53 65.5395 75.8 64.4995 75.8ZM60.7795 70.77V68.95H68.2095V70.77H60.7795ZM73.5301 75.5L70.2301 64.68L72.5901 64.7L74.7001 71.63L76.8401 64.7H78.8701L81.0001 71.63L83.1201 64.7H85.4801L82.1801 75.5H80.3001L77.8501 68.07L75.4101 75.5H73.5301ZM91.0641 75.8C89.7308 75.8 88.6475 75.5 87.8141 74.9C86.9808 74.3 86.4741 73.4567 86.2941 72.37L88.7541 71.99C88.8808 72.5233 89.1608 72.9433 89.5941 73.25C90.0275 73.5567 90.5741 73.71 91.2341 73.71C91.8141 73.71 92.2608 73.5967 92.5741 73.37C92.8941 73.1367 93.0541 72.82 93.0541 72.42C93.0541 72.1733 92.9941 71.9767 92.8741 71.83C92.7608 71.6767 92.5075 71.53 92.1141 71.39C91.7208 71.25 91.1175 71.0733 90.3041 70.86C89.3975 70.62 88.6775 70.3633 88.1441 70.09C87.6108 69.81 87.2275 69.48 86.9941 69.1C86.7608 68.72 86.6441 68.26 86.6441 67.72C86.6441 67.0467 86.8208 66.46 87.1741 65.96C87.5275 65.46 88.0208 65.0767 88.6541 64.81C89.2875 64.5367 90.0341 64.4 90.8941 64.4C91.7341 64.4 92.4775 64.53 93.1241 64.79C93.7775 65.05 94.3041 65.42 94.7041 65.9C95.1041 66.38 95.3508 66.9433 95.4441 67.59L92.9841 68.03C92.9241 67.57 92.7141 67.2067 92.3541 66.94C92.0008 66.6733 91.5275 66.5233 90.9341 66.49C90.3675 66.4567 89.9108 66.5433 89.5641 66.75C89.2175 66.95 89.0441 67.2333 89.0441 67.6C89.0441 67.8067 89.1141 67.9833 89.2541 68.13C89.3941 68.2767 89.6741 68.4233 90.0941 68.57C90.5208 68.7167 91.1541 68.8967 91.9941 69.11C92.8541 69.33 93.5408 69.5833 94.0541 69.87C94.5741 70.15 94.9475 70.4867 95.1741 70.88C95.4075 71.2733 95.5241 71.75 95.5241 72.31C95.5241 73.3967 95.1275 74.25 94.3341 74.87C93.5475 75.49 92.4575 75.8 91.0641 75.8Z" fill="black"/>
<path d="M16.6855 76.75H96.3241V77.25H16.6855V76.75Z" fill="black"/>
</svg>
