<svg width="25" height="24" viewBox="0 0 25 24" fill="none" xmlns="http://www.w3.org/2000/svg">
<path d="M13.39 5.88086H5.60999C3.89999 5.88086 2.5 7.28084 2.5 8.99084V20.3509C2.5 21.8009 3.54 22.4208 4.81 21.7108L8.73999 19.5208C9.15999 19.2908 9.84 19.2908 10.25 19.5208L14.18 21.7108C15.45 22.4208 16.49 21.8009 16.49 20.3509V8.99084C16.5 7.28084 15.1 5.88086 13.39 5.88086Z" stroke="#292D32" stroke-width="1.5" stroke-linecap="round" stroke-linejoin="round"/>
<path d="M16.5 8.99084V20.3509C16.5 21.8009 15.46 22.4108 14.19 21.7108L10.26 19.5208C9.84001 19.2908 9.15999 19.2908 8.73999 19.5208L4.81 21.7108C3.54 22.4108 2.5 21.8009 2.5 20.3509V8.99084C2.5 7.28084 3.89999 5.88086 5.60999 5.88086H13.39C15.1 5.88086 16.5 7.28084 16.5 8.99084Z" stroke="#292D32" stroke-width="1.5" stroke-linecap="round" stroke-linejoin="round"/>
<path d="M22.5 5.10999V16.47C22.5 17.92 21.46 18.53 20.19 17.83L16.5 15.77V8.98999C16.5 7.27999 15.1 5.88 13.39 5.88H8.5V5.10999C8.5 3.39999 9.89999 2 11.61 2H19.39C21.1 2 22.5 3.39999 22.5 5.10999Z" stroke="#292D32" stroke-width="1.5" stroke-linecap="round" stroke-linejoin="round"/>
</svg>
