<svg width="40" height="40" viewBox="0 0 40 40" fill="none" xmlns="http://www.w3.org/2000/svg">
<circle cx="20" cy="20" r="20" fill="#836243"/>
<path d="M20 22.5C21.3807 22.5 22.5 21.3807 22.5 20C22.5 18.6193 21.3807 17.5 20 17.5C18.6193 17.5 17.5 18.6193 17.5 20C17.5 21.3807 18.6193 22.5 20 22.5Z" stroke="white" stroke-width="1.5" stroke-miterlimit="10" stroke-linecap="round" stroke-linejoin="round"/>
<path d="M11.6667 20.7339V19.2672C11.6667 18.4005 12.375 17.6839 13.25 17.6839C14.7583 17.6839 15.375 16.6172 14.6167 15.3089C14.1833 14.5589 14.4417 13.5839 15.2 13.1505L16.6417 12.3255C17.3 11.9339 18.15 12.1672 18.5417 12.8255L18.6333 12.9839C19.3833 14.2922 20.6167 14.2922 21.375 12.9839L21.4667 12.8255C21.8583 12.1672 22.7083 11.9339 23.3667 12.3255L24.8083 13.1505C25.5667 13.5839 25.825 14.5589 25.3917 15.3089C24.6333 16.6172 25.25 17.6839 26.7583 17.6839C27.625 17.6839 28.3417 18.3922 28.3417 19.2672V20.7339C28.3417 21.6005 27.6333 22.3172 26.7583 22.3172C25.25 22.3172 24.6333 23.3838 25.3917 24.6922C25.825 25.4505 25.5667 26.4172 24.8083 26.8505L23.3667 27.6755C22.7083 28.0672 21.8583 27.8339 21.4667 27.1755L21.375 27.0172C20.625 25.7089 19.3917 25.7089 18.6333 27.0172L18.5417 27.1755C18.15 27.8339 17.3 28.0672 16.6417 27.6755L15.2 26.8505C14.4417 26.4172 14.1833 25.4422 14.6167 24.6922C15.375 23.3838 14.7583 22.3172 13.25 22.3172C12.375 22.3172 11.6667 21.6005 11.6667 20.7339Z" stroke="white" stroke-width="1.5" stroke-miterlimit="10" stroke-linecap="round" stroke-linejoin="round"/>
</svg>

