<svg width="22" height="16" viewBox="0 0 22 16" fill="none" xmlns="http://www.w3.org/2000/svg">
<path d="M21.9991 5.71047C22.0485 4.27913 21.7355 2.85849 21.0891 1.58047C20.6505 1.05607 20.0418 0.702182 19.3691 0.580472C16.5866 0.327998 13.7926 0.224516 10.9991 0.270472C8.2157 0.222431 5.43176 0.322573 2.65905 0.570473C2.11087 0.670189 1.60357 0.927314 1.19905 1.31047C0.29905 2.14047 0.19905 3.56047 0.0990503 4.76047C-0.0460376 6.91804 -0.0460376 9.08291 0.0990503 11.2405C0.12798 11.9159 0.228544 12.5863 0.39905 13.2405C0.519625 13.7455 0.763573 14.2128 1.10905 14.6005C1.51632 15.0039 2.03543 15.2757 2.59905 15.3805C4.75497 15.6466 6.92727 15.7569 9.09905 15.7105C12.5991 15.7605 15.669 15.7105 19.299 15.4305C19.8765 15.3321 20.4102 15.06 20.8291 14.6505C21.109 14.3704 21.3181 14.0276 21.4391 13.6505C21.7967 12.5531 21.9723 11.4046 21.959 10.2505C21.9991 9.69047 21.9991 6.31047 21.9991 5.71047ZM8.73905 10.8505V4.66047L14.659 7.77047C12.9991 8.69047 10.809 9.73047 8.73905 10.8505Z" fill="white"/>
</svg>
